<svg width="180" height="180" viewBox="0 0 180 180" xmlns="http://www.w3.org/2000/svg"><title>Imported Layers</title><g fill="none" fill-rule="evenodd"><path d="M179.682 89.86c0 49.5-40.128 89.628-89.628 89.628S.426 139.36.426 89.86C.426 40.36 40.554.234 90.054.234s89.628 40.128 89.628 89.628" fill="#FFB931"/><path d="M173.22 89.902c0 45.932-37.234 83.167-83.166 83.167-45.93 0-83.166-37.236-83.166-83.168 0-45.93 37.235-83.166 83.166-83.166 45.932 0 83.166 37.235 83.166 83.166" fill="#BDE8EF"/><path d="M121.74 27.21l-.315.22v.48l-.043.03v6.948h.545V28.65c0-.498-.066-.98-.188-1.44M57.422 25.99c-.427.79-.67 1.697-.67 2.66v6.236h.942V27.85c0-.2.01-.397.032-.59l-.172-.125-.132-.093v-1.05" fill="#CADFE2"/><path d="M121.382 27.94l-9.953 6.948h9.952v-6.95m-63.655-.68c-.02.195-.032.393-.032.593v7.038h10.127c-4.02-2.83-7.698-5.432-10.084-7.144v-.477c-.004-.003-.008-.005-.01-.008" fill="#D9EEF1"/><path d="M121.425 27.43l-10.683 7.458h.687l9.952-6.95.043-.03v-.48m-63.687-.16v.476c2.386 1.712 6.064 4.313 10.084 7.144h.68c-4.25-2.99-8.2-5.783-10.764-7.62" fill="#D2E6EB"/><path d="M119.73 22.567H59.433c-.358 0-.692.18-.952.5-.26.322-.427.784-.427 1.298v2.353c2.705 1.94 6.99 4.966 11.543 8.17h40.046l11.468-8.007v-2.515c0-.514-.168-.976-.427-1.297-.26-.322-.593-.5-.952-.5" fill="#DEF2F7"/><path d="M119.732 21.938h-60.3c-.578 0-1.09.295-1.444.737-.354.443-.564 1.04-.565 1.69v2.677l.132.093.172.124.01.007c2.565 1.838 6.515 4.63 10.766 7.62h1.093c-4.554-3.203-8.838-6.23-11.543-8.17v-2.352c0-.514.168-.976.427-1.297.26-.322.594-.5.952-.5h60.3c.358 0 .69.178.95.5.26.32.428.783.428 1.297v2.516l-11.468 8.008h1.1l10.998-7.68v-2.843c0-.65-.21-1.247-.566-1.69-.352-.442-.865-.737-1.442-.737" fill="#D0E5E8"/><path d="M35.826 143.59h110.71v4.492H35.826v-4.493z" fill="#F3F3F3"/><path d="M136.762 39.858v2.34l-.315.22v.847l-.06.043v47.094l.036.025v.413l.34.23v3.867c-.002.558-.12 1.085-.333 1.546.466-.816.732-1.76.732-2.768V41.94c0-.735-.142-1.438-.4-2.082M45.35 38.623c-.685.928-1.09 2.076-1.09 3.318v51.775c0 3.09 2.507 5.597 5.598 5.597h81.706c1.608 0 3.058-.678 4.08-1.764-.447.386-1.005.62-1.612.62h-3.066c-.06.003-.12.004-.178.004H51.2c-.06 0-.118 0-.178-.003h-2.945c-.773 0-1.465-.382-1.95-.97-.486-.588-.778-1.387-.78-2.263V91.3l.137-.095.118-.082v-48.98l-.122-.09-.13-.093v-3.337" fill="#D0DADC"/><path d="M45.603 42.142v48.98c.013-.007.025-.016.038-.025v-.442c7.377-5.13 23.416-16.034 34.312-23.427h-17.6c-.99 0-1.92-.257-2.728-.71h-.192c-.574 0-1.086-.282-1.44-.712-.33-.4-.537-.93-.565-1.512-.43-.792-.674-1.7-.674-2.664V50.898c-4.42-3.117-8.35-5.903-11.09-7.868v-.845l-.06-.043" fill="#E6F0F2"/><path d="M78.992 66.52H59.624c.807.45 1.737.708 2.727.708h17.602l.027-.018-.988-.69m-22.24-15.622V61.63c0 .965.245 1.872.675 2.664-.003-.045-.004-.09-.004-.136v-2.6l.135-.094.16-.112c-.015-.172-.023-.346-.023-.522v-9.267l-.942-.665" fill="#E9EEEF"/><path d="M57.695 51.563v9.267c0 .176.008.35.024.522v-.198c1.734-1.205 4.148-2.863 6.88-4.732-2.35-1.652-4.683-3.292-6.905-4.86" fill="#EDF2F3"/><path d="M64.6 56.422c-2.732 1.87-5.146 3.527-6.88 4.732v.196c1.787-1.24 4.25-2.932 7.02-4.827-.047-.034-.092-.067-.14-.1" fill="#ECF0F1"/><path d="M65.292 56.91c-2.865 1.958-5.412 3.707-7.24 4.977v2.27c0 .496.168.938.425 1.248.258.31.593.485.955.485h18.662c-3.938-2.758-8.392-5.882-12.802-8.98" fill="#EEF3F4"/><path d="M64.74 56.523c-2.77 1.895-5.233 3.587-7.02 4.827v.002l-.162.112-.135.093v2.6c0 .046 0 .092.004.137.028.582.234 1.112.564 1.512.356.43.868.713 1.44.713H78.993l-.898-.63H59.432c-.362 0-.697-.174-.955-.485-.257-.31-.424-.752-.424-1.247v-2.27c1.827-1.27 4.374-3.02 7.24-4.98-.184-.127-.37-.257-.552-.385" fill="#ECF0F0"/><path d="M136.386 43.308l-14.46 10.096v8.226c0 .498-.064.98-.186 1.44v1.088c0 .636-.212 1.217-.57 1.648-.353.43-.865.713-1.438.713h-.676c-.807.45-1.738.708-2.728.708h-14.196l34.254 23.174V43.308" fill="#E6F0F2"/><path d="M119.056 66.52h-15.914l-1.012.706.002.002h14.196c.99 0 1.92-.257 2.728-.71m2.87-13.114l-.544.38v7.046c0 .048 0 .097-.002.145l.028.02v.175l.332.224v1.676c.122-.46.187-.942.187-1.44v-8.226" fill="#E9EEEF"/><path d="M121.382 53.784l-5.232 3.653 5.23 3.538c.002-.048.002-.097.002-.145v-7.046" fill="#EDF2F3"/><path d="M116.15 57.437l-.128.09 5.386 3.643v-.176l-.028-.02-5.23-3.537" fill="#ECF0F1"/><path d="M115.47 57.913l-11.427 7.977h15.688c.363 0 .698-.174.956-.485.257-.31.424-.752.424-1.247v-2.43l-5.64-3.815" fill="#EEF3F4"/><path d="M116.022 57.526l-.553.387 5.64 3.816v2.428c0 .495-.167.937-.424 1.247-.258.31-.593.485-.955.485h-15.687l-.9.63h16.59c.573 0 1.085-.284 1.44-.714.356-.43.567-1.012.568-1.648v-2.764l-5.718-3.868" fill="#ECF0F0"/><path d="M130.966 98.17H51.022l.18.002h79.586c.06 0 .12 0 .178-.003" fill="#E6F0F2"/><path d="M80.004 67.228h-.052c-10.896 7.393-26.935 18.298-34.31 23.427v.442c7.562-5.255 23.835-16.317 34.66-23.66l-.298-.21" fill="#DBE6E7"/><path d="M79.98 67.21l-.028.018h.052l-.025-.018" fill="#DFE4E4"/><path d="M102.132 67.228h-.005l-.298.208 34.593 23.404v-.413l-.037-.025-34.254-23.174" fill="#DBE6E7"/><path d="M102.13 67.226l-.003.002h.005l-.002-.002" fill="#DFE4E4"/><path d="M101.276 67.822l-10.22 7.137s-4.225-2.952-10.203-7.138l-7.916 5.374c-9.805 6.663-21.055 14.33-26.958 18.432v3.31c0 .734.247 1.394.634 1.86.39.47.903.74 1.465.742h85.952c.56 0 1.076-.273 1.465-.74.387-.468.635-1.128.635-1.863v-3.534l-34.856-23.58" fill="#EDF8F9"/><path d="M80.3 67.436c-10.823 7.344-27.096 18.406-34.66 23.66-.012.01-.024.02-.037.027l-.118.082-.136.094v3.637c0 .876.292 1.675.78 2.264.483.588 1.175.97 1.948.97h85.954c.607 0 1.165-.236 1.61-.622.123-.105.236-.22.34-.347.176-.213.327-.454.448-.717.212-.46.33-.988.332-1.546V91.07L101.83 67.435l-.554.386 34.856 23.58v3.535c0 .735-.248 1.395-.635 1.862-.39.467-.904.74-1.465.74H48.08c-.563 0-1.077-.273-1.466-.74-.387-.468-.635-1.128-.635-1.863v-3.31c5.902-4.1 17.152-11.768 26.957-18.43 2.81-1.91 5.503-3.737 7.916-5.375l-.552-.386" fill="#D9E3E5"/><path d="M136.447 42.418l-14.52 10.138v.848l14.52-10.14v-.846m-90.783-.233v.845c2.738 1.965 6.67 4.75 11.09 7.868v-.846c-4.395-3.1-8.322-5.882-11.09-7.867" fill="#DBE6E7"/><path d="M80.203 66.52h-1.21l.986.69.024.018h1.21c-.33-.232-.668-.468-1.01-.71m-23.45-16.466v.846l.94.665v-.847l-.94-.664" fill="#DFE4E4"/><path d="M57.695 50.716v.847c2.222 1.567 4.554 3.207 6.904 4.86.2-.14.405-.278.61-.418-2.556-1.797-5.096-3.584-7.515-5.29" fill="#E2E7E8"/><path d="M65.21 56.005l-.61.417.14.1.613-.417-.143-.1" fill="#E0E5E6"/><path d="M65.903 56.49c-.206.14-.41.28-.61.42 4.41 3.098 8.863 6.222 12.8 8.98h1.21c-4.033-2.825-8.722-6.112-13.4-9.4" fill="#E3E8E9"/><path d="M79.304 65.89h-1.21l.898.63h1.21l-.898-.63m-13.95-9.785l-.613.418.552.386.61-.42-.55-.385" fill="#E0E5E6"/><path d="M103.142 66.52h-1.215l-1.014.708h1.214l.003-.002 1.012-.707m18.785-13.964l-.545.38v.848l.545-.38v-.848" fill="#DFE4E4"/><path d="M121.382 52.936l-5.848 4.084.616.417 5.232-3.653v-.848" fill="#E2E7E8"/><path d="M115.534 57.02l-.13.09.618.416.128-.09-.616-.416" fill="#E0E5E6"/><path d="M114.852 57.496l-12.024 8.394h1.215l11.426-7.977-.618-.417" fill="#E3E8E9"/><path d="M104.043 65.89h-1.215l-.9.63h1.214l.9-.63m11.363-8.78l-.553.386.617.417.552-.387-.617-.417" fill="#E0E5E6"/><path d="M102.127 67.228h-1.214l-9.858 6.882-.18-.126s-3.97-2.773-9.66-6.756h-1.21l.296.208c.186.13.37.26.553.386 5.978 4.186 10.202 7.137 10.202 7.137l11.072-7.732" fill="#DBE6E7"/><path d="M56.753 35.517H48.08c-.56 0-1.072.28-1.463.764-.39.485-.638 1.17-.638 1.934v3.423c2.692 1.93 6.498 4.63 10.773 7.645V35.517m77.28 0h-12.106v16.27l14.205-9.917v-3.656c0-.763-.25-1.45-.638-1.933-.39-.483-.904-.762-1.462-.763" fill="#EDF8F9"/><path d="M57.695 35.517h-.942v13.765c.31.22.626.44.942.664v-14.43m64.232 0h-.545V52.17l.545-.38v-16.27" fill="#F0F6F7"/><path d="M68.716 35.517h-11.02v14.43c2.586 1.823 5.32 3.746 8.07 5.678 5.2-3.555 11.316-7.71 16.045-10.918-3.86-2.703-8.64-6.055-13.094-9.19m52.666 0h-10.854L97.35 44.72l17.625 11.922 6.407-4.474v-16.65" fill="#F4F9F9"/><path d="M97.35 44.72l-.128.088 17.624 11.923.13-.088L97.35 44.72m-15.54-.013c-4.728 3.208-10.843 7.363-16.045 10.918l.143.1c5.25-3.585 11.37-7.743 16.047-10.917l-.144-.1" fill="#F2F8F9"/><path d="M96.67 45.194l-7.09 4.95s-2.923-2.044-7.074-4.95c-1.7 1.154-3.6 2.443-5.582 3.79-3.434 2.334-7.12 4.842-10.466 7.128 4.9 3.442 9.806 6.88 13.943 9.778h21.33l12.564-8.773L96.67 45.194" fill="#F6FAFB"/><path d="M101.73 65.89H80.4l.9.63h19.528l.9-.63m-4.506-21.082l-.553.386 17.624 11.923.552-.386L97.222 44.81m-15.267 0c-4.678 3.174-10.798 7.332-16.047 10.918.183.13.366.257.55.386 3.346-2.286 7.032-4.794 10.466-7.127 1.983-1.348 3.882-2.637 5.582-3.79-.18-.128-.366-.257-.55-.387" fill="#F1F7F8"/><path d="M110.528 35.517h-.688L89.58 49.662l-.18-.125s-10.548-7.37-20.003-14.02h-.68c4.452 3.135 9.233 6.487 13.094 9.19l.145.1.55.387c4.152 2.906 7.076 4.95 7.076 4.95l20.948-14.627" fill="#F2F8F9"/><path d="M108.74 35.517H70.49c7.48 5.26 15.456 10.837 18.24 12.783l.85.595 19.16-13.378" fill="#F6FAFB"/><path d="M109.84 35.517h-1.1L89.58 48.895l-.85-.595c-2.784-1.946-10.76-7.522-18.24-12.783h-1.093c9.455 6.65 20.004 14.02 20.004 14.02l.18.125 20.26-14.145" fill="#F1F7F8"/><path d="M100.828 66.52H81.3c.343.24.68.477 1.012.708h17.5l1.016-.71" fill="#F0F6F7"/><path d="M99.813 67.228h-17.5c3.278 2.295 5.918 4.14 7.454 5.214.62.435 1.06.742 1.288.9l8.758-6.114" fill="#EDF8F9"/><path d="M56.753 34.888H48.08c-.778 0-1.47.395-1.954 1-.485.606-.776 1.426-.777 2.326v3.746l.13.094.123.088c.02.015.04.03.06.043 2.77 1.985 6.696 4.767 11.09 7.867v-.77c-4.275-3.016-8.08-5.714-10.774-7.645v-3.423c0-.763.248-1.45.637-1.933.39-.483.904-.762 1.462-.763h8.673v-.63m77.28 0h-12.106v.63h12.105c.558 0 1.07.28 1.462.764.388.485.638 1.17.638 1.934v3.656l-14.205 9.918v.768l14.835-10.358v-3.984c0-.9-.292-1.72-.777-2.326-.483-.605-1.176-1-1.952-1" fill="#D9E3E5"/><path d="M56.753 35.517h.942v-.63h-.942v.63zm64.63 0h.544v-.63h-.545v.63z" fill="#DCE1E2"/><path d="M67.822 34.888H57.695v.63h11.02l-.893-.63m53.56 0h-9.953l-.902.63h10.854v-.63" fill="#E0E5E6"/><path d="M68.503 34.888h-.68c.295.21.593.418.893.63h.68l-.893-.63m42.926 0h-.688l-.902.63h.688l.9-.63" fill="#DEE3E4"/><path d="M109.642 34.888H69.596l.895.63h38.25l.902-.63" fill="#E1E6E7"/><path d="M69.596 34.888h-1.093l.894.63h1.094l-.894-.63m41.146 0h-1.1l-.9.63h1.098l.902-.63" fill="#DEE3E3"/><path d="M56.753 49.282v.77c.312.22.626.44.942.664v-.77l-.942-.664" fill="#DCE1E2"/><path d="M57.695 49.946v.77c2.42 1.705 4.96 3.492 7.515 5.29.183-.127.37-.254.555-.38-2.75-1.933-5.483-3.856-8.07-5.68" fill="#E0E5E6"/><path d="M65.765 55.625l-.555.38.143.1.555-.38-.143-.1" fill="#DEE3E4"/><path d="M66.458 56.112l-.555.38c4.678 3.286 9.367 6.573 13.4 9.398h1.098c-4.136-2.897-9.042-6.336-13.942-9.778" fill="#E1E6E7"/><path d="M80.4 65.89h-1.096l.9.63H81.3l-.9-.63M65.91 55.726l-.555.38.55.385.555-.378-.55-.386" fill="#DEE3E3"/><path d="M101.927 66.52h-1.1l-1.014.708h1.1l1.014-.71m20-14.73l-.545.38v.768l.545-.38v-.768" fill="#DCE1E2"/><path d="M121.382 52.168l-6.407 4.474.56.378 5.847-4.084v-.768" fill="#E0E5E6"/><path d="M114.975 56.642l-.13.09.56.377.13-.09-.56-.378" fill="#DEE3E4"/><path d="M114.294 57.117L101.73 65.89h1.098l12.024-8.394-.558-.38" fill="#E1E6E7"/><path d="M102.828 65.89h-1.1l-.9.63h1.1l.9-.63m12.018-9.16l-.552.387.558.38.553-.388-.56-.38" fill="#DEE3E3"/><path d="M81.3 66.52h-1.097l1.012.708h1.097c-.33-.23-.67-.468-1.012-.71" fill="#DCE1E2"/><path d="M100.913 67.228h-1.1l-8.758 6.115-1.288-.9c-1.536-1.074-4.176-2.92-7.455-5.215h-1.097c5.69 3.983 9.66 6.756 9.66 6.756l.18.126 9.858-6.882" fill="#D9E3E5"/><path d="M140.822 127.777H37.004c-3.092 0-5.598-2.506-5.598-5.598V55.417c0-3.092 2.506-5.598 5.598-5.598h103.818c3.092 0 5.6 2.506 5.6 5.598v66.76c0 3.093-2.508 5.6-5.6 5.6" fill="#D6D6D6"/><path d="M139.862 126.365H38.667c-3.092 0-5.598-2.506-5.598-5.598v-66.76c0-3.093 2.505-5.6 5.597-5.6h101.195c3.09 0 5.598 2.507 5.598 5.6v66.76c0 3.092-2.507 5.598-5.598 5.598" fill="#F3F3F3"/><path d="M142.517 124.97H36.104c-1.65 0-2.99-1.617-2.99-3.612v-4.3c14.53-10.1 56.197-38.3 56.197-38.3l56.196 38.018v4.582c0 1.995-1.338 3.612-2.99 3.612" fill="#E5E5E5"/><path d="M142.546 125.972H36.133c-1.65 0-2.988-1.617-2.988-3.612v-4.3c14.527-10.1 56.195-38.3 56.195-38.3l56.195 38.018v4.582c0 1.995-1.338 3.612-2.99 3.612" fill="#FCFCFC"/><path d="M142.546 125.972v-.314H36.133c-.72 0-1.378-.35-1.87-.944-.492-.593-.804-1.427-.804-2.354v-4.3h-.315l.18.26c7.26-5.05 21.31-14.625 33.542-22.937 6.116-4.156 11.78-7.996 15.912-10.798 2.065-1.4 3.75-2.542 4.918-3.332l1.818-1.232-.176-.26-.176.26 56.056 37.925v4.415c0 .927-.31 1.76-.803 2.354-.493.593-1.15.943-1.87.944v.63c.93 0 1.766-.46 2.356-1.174.59-.714.947-1.686.947-2.754v-4.75L89.34 79.38l-.176.12s-41.667 28.2-56.2 38.302l-.134.094v4.464c0 1.068.357 2.04.948 2.754.588.714 1.425 1.173 2.355 1.173h106.413v-.315" fill="#E2E2E2"/><path d="M142.546 49.933H36.133c-1.65 0-2.988 1.67-2.988 3.728V58.1c14.527 10.425 56.195 39.53 56.195 39.53l56.195-39.238v-4.73c0-2.058-1.338-3.727-2.99-3.727" fill="#E5E5E5"/><path d="M142.546 48.407H36.133c-1.65 0-2.988 1.67-2.988 3.73v4.436C47.672 66.998 89.34 96.1 89.34 96.1l56.195-39.235v-4.73c0-2.058-1.338-3.728-2.99-3.728" fill="#FCFCFC"/><path d="M142.546 48.407v-.314H36.133c-.934 0-1.77.475-2.358 1.21-.59.736-.945 1.735-.945 2.833v4.6l.13.093c14.533 10.426 56.2 39.53 56.2 39.53l.18.125 56.51-39.456v-4.894c0-1.098-.355-2.097-.945-2.833-.587-.735-1.424-1.21-2.36-1.21v.63c.717 0 1.374.36 1.87.973.492.614.806 1.48.805 2.44V56.7L89.16 95.845l.18.257.18-.256-1.818-1.272c-8.174-5.712-41.666-29.136-54.374-38.255l-.183.256h.314v-4.437c0-.96.313-1.826.805-2.44.495-.614 1.153-.973 1.868-.974h106.413v-.315" fill="#E2E2E2"/><path d="M78.792 132.166h23.915c1.774 0 2.71 1.78 1.524 2.896L92.1 146.495c-.822.775-2.26.766-3.068-.018l-11.784-11.434c-1.157-1.122-.216-2.877 1.544-2.877" fill="#E89605"/><path d="M107.485 122.638c-.374-.425-.858-.69-1.37-.804l.002-.004h-.03c-.34-.072-.694-.07-1.04 0l-10.836-.02v-18.564c0-1.268-1.75-2.295-3.91-2.295s-3.91 1.028-3.91 2.296v18.552l-10.335-.018c-.105-.004-.21-.008-.314 0h-.034l.005.004c-.618.056-1.22.328-1.67.826-.95 1.05-.87 2.67.18 3.622l16.28 14.733 16.75-14.708c1.065-.934 1.17-2.555.235-3.62" fill="#FFB931"/></g></svg>