<?xml version="1.0" encoding="UTF-8" standalone="no"?>
<svg width="180px" height="180px" viewBox="0 0 180 180" version="1.1" xmlns="http://www.w3.org/2000/svg" xmlns:xlink="http://www.w3.org/1999/xlink" xmlns:sketch="http://www.bohemiancoding.com/sketch/ns">
    <!-- Generator: Sketch 3.3.2 (12043) - http://www.bohemiancoding.com/sketch -->
    <title>Imported Layers</title>
    <desc>Created with Sketch.</desc>
    <defs></defs>
    <g id="Page-1" stroke="none" stroke-width="1" fill="none" fill-rule="evenodd" sketch:type="MSPage">
        <g id="deliverinbox_1280" sketch:type="MSArtboardGroup" transform="translate(-1016.000000, -1072.000000)">
            <g id="Imported-Layers" sketch:type="MSLayerGroup" transform="translate(1016.000000, 1072.000000)">
                <path d="M179.627413,90.0176224 C179.627413,139.518252 139.5,179.645664 90,179.645664 C40.5,179.645664 0.372587413,139.518252 0.372587413,90.0176224 C0.372587413,40.5182517 40.5,0.39020979 90,0.39020979 C139.5,0.39020979 179.627413,40.5182517 179.627413,90.0176224" id="Fill-1" fill="#FFB931" sketch:type="MSShapeGroup"></path>
                <path d="M173.166294,90.0597902 C173.166294,135.991259 135.931469,173.226084 90,173.226084 C44.0685315,173.226084 6.83370629,135.991259 6.83370629,90.0597902 C6.83370629,44.1283217 44.0685315,6.8934965 90,6.8934965 C135.931469,6.8934965 173.166294,44.1283217 173.166294,90.0597902" id="Fill-2" fill="#BDE8EF" sketch:type="MSShapeGroup"></path>
                <path d="M126.568322,47.1782517 C104.932448,46.2077622 98.7765734,66.9493007 98.7765734,66.9493007 C98.7765734,66.9493007 92.6200699,46.2077622 70.9848252,47.1782517 C46.1064336,48.2934965 30.2796503,73.2996503 40.7240559,98.6651748 C51.2037063,124.115035 98.7765734,149.591958 98.7765734,149.591958 C98.7765734,149.591958 146.348811,124.115035 156.828462,98.6651748 C167.272867,73.2996503 151.446084,48.2934965 126.568322,47.1782517" id="Fill-3" fill="#D6D6D6" sketch:type="MSShapeGroup"></path>
                <path d="M125.675874,44.1597902 C104.040629,43.1893007 97.8841259,63.9308392 97.8841259,63.9308392 C97.8841259,63.9308392 91.7282517,43.1893007 70.0923776,44.1597902 C45.2146154,45.2756643 29.3878322,70.2811888 39.8322378,95.6467133 C50.3118881,121.096573 97.8841259,146.573497 97.8841259,146.573497 C97.8841259,146.573497 145.456993,121.096573 155.936643,95.6467133 C166.381049,70.2811888 150.554266,45.2756643 125.675874,44.1597902 L125.675874,44.1597902 Z" id="Fill-4" fill="#FCFCFC" sketch:type="MSShapeGroup"></path>
                <path d="M125.675874,44.1597902 C104.040629,43.1893007 97.8841259,63.9308392 97.8841259,63.9308392 C97.8841259,63.9308392 91.7282517,43.1893007 70.0923776,44.1597902 C45.2146154,45.2756643 29.3878322,70.2811888 39.8322378,95.6467133 C50.3118881,121.096573 97.8841259,146.573497 97.8841259,146.573497 C97.8841259,146.573497 145.456993,121.096573 155.936643,95.6467133 C166.381049,70.2811888 150.554266,45.2756643 125.675874,44.1597902 L125.675874,44.1597902 Z" id="Stroke-5" stroke="#E2E2E2" sketch:type="MSShapeGroup"></path>
                <path d="M71.7388112,130.102867 C65.1618881,130.102867 59.1727972,128.703147 54.151049,126.871049 C40.0034266,121.708322 30.6176224,112.330699 30.2255245,111.934196 C29.6144056,111.316154 29.6194406,110.321119 30.2368531,109.709371 C30.8536364,109.098881 31.8499301,109.102657 32.4616783,109.719441 C32.5535664,109.812587 41.8134965,119.046713 55.3260839,123.94951 C73.2341958,130.447762 89.8212587,126.64007 104.624685,112.632168 C105.255944,112.033636 106.251608,112.062587 106.848881,112.693217 C107.446154,113.324476 107.418462,114.320769 106.787203,114.917413 C94.6346853,126.417273 82.4123077,130.102867 71.7388112,130.102867" id="Fill-6" fill="#FFB931" sketch:type="MSShapeGroup"></path>
                <path d="M24.5567832,114.432797 C23.9034965,114.432797 23.2936364,114.023077 23.068951,113.371049 C21.0354545,107.46 24.6662937,103.091538 28.7420979,100.974336 C29.570979,100.543217 33.7846154,98.5009091 35.2913287,100.582238 C35.8011189,101.286503 35.6444056,102.27021 34.9407692,102.78 C34.3906993,103.177762 33.6700699,103.168951 33.1382517,102.811469 L33.1338462,102.811469 C32.1929371,102.811469 29.1316783,103.805245 27.168042,106.113776 C25.6241958,107.928881 25.2459441,110.025944 26.0446154,112.347063 C26.3272028,113.168392 25.8904196,114.063986 25.0690909,114.347203 C24.8991608,114.405105 24.7267133,114.432797 24.5567832,114.432797" id="Fill-7" fill="#FFB931" sketch:type="MSShapeGroup"></path>
                <path d="M112.46979,118.209021 C112.29986,118.209021 112.127413,118.181329 111.957483,118.123427 C111.136154,117.84021 110.699371,116.944615 110.981958,116.123287 C111.78,113.802168 111.402378,111.705105 109.858531,109.89 C107.894895,107.581469 104.833636,106.587692 103.892727,106.587692 L103.888322,106.587692 C103.355874,106.945804 102.635874,106.953986 102.086434,106.556224 C101.382797,106.046434 101.225455,105.063357 101.734615,104.358462 C103.242587,102.277762 107.454336,104.318811 108.283217,104.749301 C112.35965,106.867133 115.991119,111.235594 113.956993,117.147273 C113.732937,117.799301 113.122448,118.209021 112.46979,118.209021" id="Fill-8" fill="#FFB931" sketch:type="MSShapeGroup"></path>
            </g>
        </g>
    </g>
</svg>