<?xml version="1.0" encoding="UTF-8" standalone="no"?>
<svg width="180px" height="180px" viewBox="0 0 180 180" version="1.1" xmlns="http://www.w3.org/2000/svg" xmlns:xlink="http://www.w3.org/1999/xlink" xmlns:sketch="http://www.bohemiancoding.com/sketch/ns">
    <!-- Generator: Sketch 3.3.2 (12043) - http://www.bohemiancoding.com/sketch -->
    <title>Imported Layers</title>
    <desc>Created with Sketch.</desc>
    <defs></defs>
    <g id="Page-1" stroke="none" stroke-width="1" fill="none" fill-rule="evenodd" sketch:type="MSPage">
        <g id="deliverinbox_1280" sketch:type="MSArtboardGroup" transform="translate(-394.000000, -1072.000000)">
            <g id="Imported-Layers" sketch:type="MSLayerGroup" transform="translate(394.000000, 1072.000000)">
                <path d="M179.681538,89.9450526 C179.681538,139.618737 139.554126,179.886947 90.0541259,179.886947 C40.5541259,179.886947 0.426083916,139.618737 0.426083916,89.9450526 C0.426083916,40.2713684 40.5541259,0.00315789474 90.0541259,0.00315789474 C139.554126,0.00315789474 179.681538,40.2713684 179.681538,89.9450526" id="Fill-1" fill="#FFB931" sketch:type="MSShapeGroup"></path>
                <path d="M173.22042,89.9867368 C173.22042,136.079368 135.985594,173.444842 90.0541259,173.444842 C44.1226573,173.444842 6.88783217,136.079368 6.88783217,89.9867368 C6.88783217,43.8941053 44.1226573,6.52863158 90.0541259,6.52863158 C135.985594,6.52863158 173.22042,43.8941053 173.22042,89.9867368" id="Fill-2" fill="#BDE8EF" sketch:type="MSShapeGroup"></path>
                <path d="M36.6853846,107.427158 C30.6056643,107.427158 22.9934266,103.890316 22.9934266,95.8408421 L22.9934266,83.7423158 C22.9934266,75.6934737 30.6056643,72.156 36.6853846,72.156 C43.02,72.156 49.3042657,75.3858947 49.9676224,81.8968421 C49.9676224,83.1277895 49.5591608,83.3835789 48.3841259,83.3835789 L43.4794406,83.3835789 C42.406993,83.3835789 42.356014,82.4090526 41.9469231,81.7945263 C40.8744755,80.1025263 39.4439161,79.3332632 36.6853846,79.3332632 C33.3132168,79.3332632 31.0141259,81.2298947 31.0141259,84.4597895 L31.0141259,95.1233684 C31.0141259,98.4050526 33.3132168,100.250526 36.6853846,100.250526 C39.4439161,100.250526 41.6404196,99.2248421 42.0495105,96.7642105 C42.2024476,95.7385263 42.305035,94.9187368 43.4284615,94.9187368 L48.4351049,94.9187368 C49.5591608,94.9187368 49.9676224,95.4309474 49.9676224,96.6618947 C49.9676224,103.275158 43.02,107.427158 36.6853846,107.427158" id="Fill-3" fill="#D6D6D6" sketch:type="MSShapeGroup"></path>
                <path d="M83.7906294,74.4113684 L83.7906294,105.171789 C83.7906294,106.351579 83.2286014,106.659158 82.3084615,106.659158 L77.2508392,106.659158 C76.3313287,106.659158 75.7693007,106.351579 75.7693007,105.171789 L75.7693007,80.1025263 L64.3770629,80.1025263 L64.3770629,105.171789 C64.3770629,106.351579 63.866014,106.659158 62.8955245,106.659158 L57.8372727,106.659158 C56.9177622,106.659158 56.3563636,106.351579 56.3563636,105.171789 L56.3563636,74.4113684 C56.3563636,73.2328421 56.9177622,72.9246316 57.8372727,72.9246316 L82.3084615,72.9246316 C83.2286014,72.9246316 83.7906294,73.2328421 83.7906294,74.4113684" id="Fill-4" fill="#D6D6D6" sketch:type="MSShapeGroup"></path>
                <path d="M119.402308,106.659158 L114.037552,106.659158 C112.914126,106.659158 112.505035,106.351579 112.096573,105.120632 L110.666014,101.070947 L98.1497203,101.070947 L96.7191608,105.120632 C96.3106993,106.351579 95.9016084,106.659158 94.7775524,106.659158 L89.4134266,106.659158 C88.2893706,106.659158 88.2893706,105.839368 88.5448951,105.223579 L99.8867832,74.5136842 C100.295245,73.4381053 100.857273,72.9246316 101.981329,72.9246316 L106.886014,72.9246316 C108.009441,72.9246316 108.52049,73.4381053 108.97993,74.5136842 L120.270839,105.223579 C120.525734,105.839368 120.525734,106.659158 119.402308,106.659158 L119.402308,106.659158 Z M108.264965,93.8930526 L104.433357,82.5631579 L100.601748,93.8930526 L108.264965,93.8930526 L108.264965,93.8930526 Z" id="Fill-5" fill="#D6D6D6" sketch:type="MSShapeGroup"></path>
                <path d="M156.443916,74.3602105 L156.443916,105.171789 C156.443916,106.351579 155.881888,106.659158 154.961748,106.659158 L150.057692,106.659158 C149.138182,106.659158 148.576783,106.351579 148.576783,105.171789 L148.576783,87.792 L143.467552,96.7642105 C143.212028,97.1741053 142.752587,97.8410526 141.986014,97.8410526 L139.432028,97.8410526 C138.665455,97.8410526 138.256364,97.1741053 138.001469,96.7642105 L132.841259,87.792 L132.841259,105.171789 C132.841259,106.351579 132.279231,106.659158 131.35972,106.659158 L126.301469,106.659158 C125.381958,106.659158 124.820559,106.351579 124.820559,105.171789 L124.820559,74.3602105 C124.820559,73.4381053 125.127063,72.8734737 126.301469,72.8734737 L131.35972,72.8734737 C133.096783,72.8734737 133.300699,74.0014737 133.709161,74.6166316 L140.708392,87.2286316 L147.759231,74.6166316 C148.116713,74.0014737 148.371608,72.8734737 150.057692,72.8734737 L154.961748,72.8734737 C156.137413,72.8734737 156.443916,73.4381053 156.443916,74.3602105" id="Fill-6" fill="#D6D6D6" sketch:type="MSShapeGroup"></path>
                <path d="M102.503077,62.4157895 C102.503077,62.4157895 115.808601,57.9764211 120.97007,39.4793684 C120.97007,39.4793684 123.919301,51.3176842 117.283217,62.4157895 L102.503077,62.4157895" id="Fill-7" fill="#D6D6D6" sketch:type="MSShapeGroup"></path>
                <path d="M76.0946853,62.4157895 C76.0946853,62.4157895 62.7885315,57.9764211 57.6276923,39.4793684 C57.6276923,39.4793684 54.6784615,51.3176842 61.3139161,62.4157895 L76.0946853,62.4157895" id="Fill-8" fill="#D6D6D6" sketch:type="MSShapeGroup"></path>
                <path d="M154.175664,97.1810526 C154.076853,96.9858947 153.736993,97.0781053 153.796783,97.3054737 C154.159301,98.6917895 154.322937,100.023789 154.327972,101.305895 C153.686643,105.353053 151.892937,108.569684 149.343986,111.159158 C149.331399,111.165474 149.317552,111.161053 149.306224,111.171789 C148.808392,111.620211 148.292937,112.032632 147.769301,112.427368 C143.853357,114.624632 139.736014,116.28 135.495944,117.581053 C131.971469,118.319368 128.334336,118.704632 124.792238,119.077263 C116.358042,119.964632 107.876643,120.636 99.5217483,122.138526 C89.0332867,124.025053 77.0135664,127.153895 70.3252448,135.685895 C69.4032168,136.565053 68.5258741,137.496632 67.7322378,138.522316 C63.8987413,137.528842 59.9651748,136.923158 56.0297203,136.766526 C54.7111888,136.714105 53.7929371,138.517895 54.8181818,139.477263 C57.3627273,141.858947 59.5875524,144.702947 61.6562937,147.627789 C63.0075524,150.171789 64.3953147,152.696211 65.8013287,155.218105 C65.9681119,155.517474 66.3614685,155.709474 66.6881119,155.525053 C71.2988811,152.914105 75.8901399,151.030737 80.9106294,150.408 C81.3858042,150.527368 81.8194406,150.462316 82.1863636,150.278526 C83.3859441,150.182526 84.6094406,150.156 85.8662937,150.212842 C87.1772727,150.271579 87.6662937,148.692 86.6926573,147.898105 C83.3613986,145.183579 79.661958,142.974947 75.7441259,141.253895 C81.5456643,134.843368 89.4266434,131.149263 98.0376923,128.868 C106.179231,127.316842 114.659371,126.747789 121.759301,125.498526 C122.778252,125.319789 123.822378,125.122737 124.879091,124.910526 C132.849441,124.026947 140.993497,122.417053 147.527622,117.565895 C153.706783,112.978105 157.893986,104.557895 154.175664,97.1810526" id="Fill-9" fill="#D6D6D6" sketch:type="MSShapeGroup"></path>
                <path d="M36.0308392,106.140632 C29.9511189,106.140632 22.3388811,102.603158 22.3388811,94.5543158 L22.3388811,82.4557895 C22.3388811,74.4063158 29.9511189,70.8688421 36.0308392,70.8688421 C42.3654545,70.8688421 48.6497203,74.0987368 49.3137063,80.6103158 C49.3137063,81.8406316 48.9052448,82.0970526 47.7295804,82.0970526 L42.8255245,82.0970526 C41.7524476,82.0970526 41.7014685,81.1225263 41.2923776,80.5073684 C40.2199301,78.816 38.7893706,78.0461053 36.0308392,78.0461053 C32.6586713,78.0461053 30.3602098,79.9427368 30.3602098,83.1726316 L30.3602098,93.8368421 C30.3602098,97.1178947 32.6586713,98.9633684 36.0308392,98.9633684 C38.7893706,98.9633684 40.9865035,97.9376842 41.394965,95.4776842 C41.5485315,94.452 41.6504895,93.6322105 42.7739161,93.6322105 L47.7805594,93.6322105 C48.9052448,93.6322105 49.3137063,94.1444211 49.3137063,95.3747368 C49.3137063,101.988632 42.3654545,106.140632 36.0308392,106.140632 L36.0308392,106.140632 Z" id="Fill-10" fill="#FCFCFC" sketch:type="MSShapeGroup"></path>
                <path d="M36.0308392,106.140632 C29.9511189,106.140632 22.3388811,102.603158 22.3388811,94.5543158 L22.3388811,82.4557895 C22.3388811,74.4063158 29.9511189,70.8688421 36.0308392,70.8688421 C42.3654545,70.8688421 48.6497203,74.0987368 49.3137063,80.6103158 C49.3137063,81.8406316 48.9052448,82.0970526 47.7295804,82.0970526 L42.8255245,82.0970526 C41.7524476,82.0970526 41.7014685,81.1225263 41.2923776,80.5073684 C40.2199301,78.816 38.7893706,78.0461053 36.0308392,78.0461053 C32.6586713,78.0461053 30.3602098,79.9427368 30.3602098,83.1726316 L30.3602098,93.8368421 C30.3602098,97.1178947 32.6586713,98.9633684 36.0308392,98.9633684 C38.7893706,98.9633684 40.9865035,97.9376842 41.394965,95.4776842 C41.5485315,94.452 41.6504895,93.6322105 42.7739161,93.6322105 L47.7805594,93.6322105 C48.9052448,93.6322105 49.3137063,94.1444211 49.3137063,95.3747368 C49.3137063,101.988632 42.3654545,106.140632 36.0308392,106.140632 L36.0308392,106.140632 Z" id="Stroke-11" stroke="#E2E2E2" sketch:type="MSShapeGroup"></path>
                <path d="M83.1360839,73.1248421 L83.1360839,103.885263 C83.1360839,105.064421 82.5740559,105.372 81.6545455,105.372 L76.5969231,105.372 C75.6767832,105.372 75.1147552,105.064421 75.1147552,103.885263 L75.1147552,78.816 L63.7225175,78.816 L63.7225175,103.885263 C63.7225175,105.064421 63.2114685,105.372 62.240979,105.372 L57.1827273,105.372 C56.2632168,105.372 55.7018182,105.064421 55.7018182,103.885263 L55.7018182,73.1248421 C55.7018182,71.9463158 56.2632168,71.6374737 57.1827273,71.6374737 L81.6545455,71.6374737 C82.5740559,71.6374737 83.1360839,71.9463158 83.1360839,73.1248421 L83.1360839,73.1248421 Z" id="Fill-12" fill="#FCFCFC" sketch:type="MSShapeGroup"></path>
                <path d="M83.1360839,73.1248421 L83.1360839,103.885263 C83.1360839,105.064421 82.5740559,105.372 81.6545455,105.372 L76.5969231,105.372 C75.6767832,105.372 75.1147552,105.064421 75.1147552,103.885263 L75.1147552,78.816 L63.7225175,78.816 L63.7225175,103.885263 C63.7225175,105.064421 63.2114685,105.372 62.240979,105.372 L57.1827273,105.372 C56.2632168,105.372 55.7018182,105.064421 55.7018182,103.885263 L55.7018182,73.1248421 C55.7018182,71.9463158 56.2632168,71.6374737 57.1827273,71.6374737 L81.6545455,71.6374737 C82.5740559,71.6374737 83.1360839,71.9463158 83.1360839,73.1248421 L83.1360839,73.1248421 Z" id="Stroke-13" stroke="#E2E2E2" sketch:type="MSShapeGroup"></path>
                <path d="M118.747762,105.372 L113.383636,105.372 C112.25958,105.372 111.85049,105.064421 111.442028,103.834105 L110.011469,99.7844211 L97.4951748,99.7844211 L96.0646154,103.834105 C95.6561538,105.064421 95.2470629,105.372 94.1236364,105.372 L88.7588811,105.372 C87.6348252,105.372 87.6348252,104.552211 87.8903497,103.936421 L99.2322378,73.2271579 C99.6413287,72.1509474 100.202727,71.6374737 101.326783,71.6374737 L106.231469,71.6374737 C107.354895,71.6374737 107.865944,72.1509474 108.325385,73.2271579 L119.616294,103.936421 C119.871189,104.552211 119.871189,105.372 118.747762,105.372 L118.747762,105.372 Z M107.61042,92.6065263 L103.778811,81.276 L99.9472028,92.6065263 L107.61042,92.6065263 L107.61042,92.6065263 Z" id="Fill-14" fill="#FCFCFC" sketch:type="MSShapeGroup"></path>
                <path d="M118.747762,105.372 L113.383636,105.372 C112.25958,105.372 111.85049,105.064421 111.442028,103.834105 L110.011469,99.7844211 L97.4951748,99.7844211 L96.0646154,103.834105 C95.6561538,105.064421 95.2470629,105.372 94.1236364,105.372 L88.7588811,105.372 C87.6348252,105.372 87.6348252,104.552211 87.8903497,103.936421 L99.2322378,73.2271579 C99.6413287,72.1509474 100.202727,71.6374737 101.326783,71.6374737 L106.231469,71.6374737 C107.354895,71.6374737 107.865944,72.1509474 108.325385,73.2271579 L119.616294,103.936421 C119.871189,104.552211 119.871189,105.372 118.747762,105.372 L118.747762,105.372 Z M107.61042,92.6065263 L103.778811,81.276 L99.9472028,92.6065263 L107.61042,92.6065263 L107.61042,92.6065263 Z" id="Stroke-15" stroke="#E2E2E2" sketch:type="MSShapeGroup"></path>
                <path d="M155.789371,73.0730526 L155.789371,103.885263 C155.789371,105.064421 155.227343,105.372 154.307832,105.372 L149.403147,105.372 C148.483636,105.372 147.922238,105.064421 147.922238,103.885263 L147.922238,86.5054737 L142.813007,95.4776842 C142.557483,95.8875789 142.098042,96.5545263 141.331469,96.5545263 L138.777483,96.5545263 C138.010909,96.5545263 137.601818,95.8875789 137.346923,95.4776842 L132.186713,86.5054737 L132.186713,103.885263 C132.186713,105.064421 131.624685,105.372 130.705175,105.372 L125.646923,105.372 C124.727413,105.372 124.166014,105.064421 124.166014,103.885263 L124.166014,73.0730526 C124.166014,72.1509474 124.472517,71.5863158 125.646923,71.5863158 L130.705175,71.5863158 C132.442238,71.5863158 132.646154,72.7143158 133.055245,73.3294737 L140.054476,85.9414737 L147.104685,73.3294737 C147.462168,72.7143158 147.717063,71.5863158 149.403147,71.5863158 L154.307832,71.5863158 C155.482867,71.5863158 155.789371,72.1509474 155.789371,73.0730526 L155.789371,73.0730526 Z" id="Fill-16" fill="#FCFCFC" sketch:type="MSShapeGroup"></path>
                <path d="M155.789371,73.0730526 L155.789371,103.885263 C155.789371,105.064421 155.227343,105.372 154.307832,105.372 L149.403147,105.372 C148.483636,105.372 147.922238,105.064421 147.922238,103.885263 L147.922238,86.5054737 L142.813007,95.4776842 C142.557483,95.8875789 142.098042,96.5545263 141.331469,96.5545263 L138.777483,96.5545263 C138.010909,96.5545263 137.601818,95.8875789 137.346923,95.4776842 L132.186713,86.5054737 L132.186713,103.885263 C132.186713,105.064421 131.624685,105.372 130.705175,105.372 L125.646923,105.372 C124.727413,105.372 124.166014,105.064421 124.166014,103.885263 L124.166014,73.0730526 C124.166014,72.1509474 124.472517,71.5863158 125.646923,71.5863158 L130.705175,71.5863158 C132.442238,71.5863158 132.646154,72.7143158 133.055245,73.3294737 L140.054476,85.9414737 L147.104685,73.3294737 C147.462168,72.7143158 147.717063,71.5863158 149.403147,71.5863158 L154.307832,71.5863158 C155.482867,71.5863158 155.789371,72.1509474 155.789371,73.0730526 L155.789371,73.0730526 Z" id="Stroke-17" stroke="#E2E2E2" sketch:type="MSShapeGroup"></path>
                <path d="M103.216783,60.8475789 C103.216783,60.8475789 116.522308,56.4082105 121.683776,37.9111579 C121.683776,37.9111579 124.633007,49.7494737 117.996923,60.8475789 L103.216783,60.8475789 L103.216783,60.8475789 Z" id="Fill-18" fill="#FCFCFC" sketch:type="MSShapeGroup"></path>
                <path d="M103.216783,60.8475789 C103.216783,60.8475789 116.522308,56.4082105 121.683776,37.9111579 C121.683776,37.9111579 124.633007,49.7494737 117.996923,60.8475789 L103.216783,60.8475789 L103.216783,60.8475789 Z" id="Stroke-19" stroke="#E2E2E2" sketch:type="MSShapeGroup"></path>
                <path d="M76.8077622,60.8475789 C76.8077622,60.8475789 63.5022378,56.4082105 58.3413986,37.9111579 C58.3413986,37.9111579 55.3921678,49.7494737 62.0276224,60.8475789 L76.8077622,60.8475789 L76.8077622,60.8475789 Z" id="Fill-20" fill="#FCFCFC" sketch:type="MSShapeGroup"></path>
                <path d="M76.8077622,60.8475789 C76.8077622,60.8475789 63.5022378,56.4082105 58.3413986,37.9111579 C58.3413986,37.9111579 55.3921678,49.7494737 62.0276224,60.8475789 L76.8077622,60.8475789 L76.8077622,60.8475789 Z" id="Stroke-21" stroke="#E2E2E2" sketch:type="MSShapeGroup"></path>
                <path d="M154.642028,95.6141053 C154.543217,95.4183158 154.203357,95.5105263 154.263147,95.7378947 C154.626294,97.1242105 154.789301,98.4562105 154.794336,99.7383158 C154.153007,103.786105 152.359301,107.002105 149.81035,109.592211 C149.797762,109.597895 149.783916,109.594105 149.772587,109.604211 C149.274755,110.052632 148.759301,110.465684 148.235664,110.859789 C144.31972,113.057053 140.202378,114.712421 135.962308,116.013474 C132.437832,116.752421 128.800699,117.137684 125.258601,117.509684 C116.824406,118.397053 108.343007,119.068421 99.9881119,120.570947 C89.4996503,122.457474 77.4799301,125.586316 70.790979,134.118316 C69.8695804,134.997474 68.9922378,135.929053 68.1986014,136.954737 C64.3644755,135.961263 60.4315385,135.355579 56.4960839,135.198947 C55.1775524,135.146526 54.2593007,136.950316 55.2845455,137.909684 C57.8297203,140.291368 60.0539161,143.135368 62.1226573,146.060211 C63.4739161,148.604211 64.8616783,151.128632 66.2676923,153.651158 C66.4344755,153.949895 66.8278322,154.141895 67.1544755,153.957474 C71.7646154,151.347158 76.3565035,149.463158 81.376993,148.840421 C81.8521678,148.960421 82.2858042,148.894737 82.6527273,148.710947 C83.8523077,148.615579 85.0758042,148.589053 86.3326573,148.645263 C87.6436364,148.704 88.1326573,147.124421 87.159021,146.331158 C83.8277622,143.616 80.1283217,141.407368 76.2104895,139.686947 C82.012028,133.276421 89.893007,129.581684 98.5040559,127.300421 C106.645594,125.749895 115.125734,125.180211 122.225664,123.931579 C123.244615,123.752211 124.288741,123.555789 125.345455,123.342947 C133.315804,122.459368 141.45986,120.849474 147.993986,115.998316 C154.173147,111.410526 158.36035,102.990316 154.642028,95.6141053 L154.642028,95.6141053 Z" id="Fill-22" fill="#FCFCFC" sketch:type="MSShapeGroup"></path>
                <path d="M154.642028,95.6141053 C154.543217,95.4183158 154.203357,95.5105263 154.263147,95.7378947 C154.626294,97.1242105 154.789301,98.4562105 154.794336,99.7383158 C154.153007,103.786105 152.359301,107.002105 149.81035,109.592211 C149.797762,109.597895 149.783916,109.594105 149.772587,109.604211 C149.274755,110.052632 148.759301,110.465684 148.235664,110.859789 C144.31972,113.057053 140.202378,114.712421 135.962308,116.013474 C132.437832,116.752421 128.800699,117.137684 125.258601,117.509684 C116.824406,118.397053 108.343007,119.068421 99.9881119,120.570947 C89.4996503,122.457474 77.4799301,125.586316 70.790979,134.118316 C69.8695804,134.997474 68.9922378,135.929053 68.1986014,136.954737 C64.3644755,135.961263 60.4315385,135.355579 56.4960839,135.198947 C55.1775524,135.146526 54.2593007,136.950316 55.2845455,137.909684 C57.8297203,140.291368 60.0539161,143.135368 62.1226573,146.060211 C63.4739161,148.604211 64.8616783,151.128632 66.2676923,153.651158 C66.4344755,153.949895 66.8278322,154.141895 67.1544755,153.957474 C71.7646154,151.347158 76.3565035,149.463158 81.376993,148.840421 C81.8521678,148.960421 82.2858042,148.894737 82.6527273,148.710947 C83.8523077,148.615579 85.0758042,148.589053 86.3326573,148.645263 C87.6436364,148.704 88.1326573,147.124421 87.159021,146.331158 C83.8277622,143.616 80.1283217,141.407368 76.2104895,139.686947 C82.012028,133.276421 89.893007,129.581684 98.5040559,127.300421 C106.645594,125.749895 115.125734,125.180211 122.225664,123.931579 C123.244615,123.752211 124.288741,123.555789 125.345455,123.342947 C133.315804,122.459368 141.45986,120.849474 147.993986,115.998316 C154.173147,111.410526 158.36035,102.990316 154.642028,95.6141053 L154.642028,95.6141053 Z" id="Stroke-23" stroke="#E2E2E2" sketch:type="MSShapeGroup"></path>
                <path d="M159.911748,38.316 C157.237552,40.1867368 15.3748951,131.228842 15.3748951,131.228842 L18.4795804,138.694105 L164.64965,45.432 L159.911748,38.316" id="Fill-24" fill="#FFB931" sketch:type="MSShapeGroup"></path>
            </g>
        </g>
    </g>
</svg>