<?xml version="1.0" encoding="UTF-8" standalone="no"?>
<svg width="180px" height="180px" viewBox="0 0 180 180" version="1.1" xmlns="http://www.w3.org/2000/svg" xmlns:xlink="http://www.w3.org/1999/xlink" xmlns:sketch="http://www.bohemiancoding.com/sketch/ns">
    <!-- Generator: Sketch 3.3.2 (12043) - http://www.bohemiancoding.com/sketch -->
    <title>Imported Layers</title>
    <desc>Created with Sketch.</desc>
    <defs>
        <path id="path-1" d="M166.563261,82.7740072 C166.563261,128.471264 129.38413,165.516173 83.5213043,165.516173 C37.6584783,165.516173 0.479347826,128.471264 0.479347826,82.7740072 C0.479347826,37.0767509 37.6584783,0.0318411552 83.5213043,0.0318411552 C129.38413,0.0318411552 166.563261,37.0767509 166.563261,82.7740072"></path>
    </defs>
    <g id="Page-1" stroke="none" stroke-width="1" fill="none" fill-rule="evenodd" sketch:type="MSPage">
        <g id="deliverinbox_1280" sketch:type="MSArtboardGroup" transform="translate(-705.000000, -1072.000000)">
            <g id="Imported-Layers" sketch:type="MSLayerGroup" transform="translate(705.000000, 1072.000000)">
                <path d="M179.444348,90.25213 C179.444348,139.509747 139.368913,179.440505 89.9328261,179.440505 C40.4967391,179.440505 0.421304348,139.509747 0.421304348,90.25213 C0.421304348,40.9945126 40.4967391,1.06375451 89.9328261,1.06375451 C139.368913,1.06375451 179.444348,40.9945126 179.444348,90.25213" id="Fill-1" fill="#FFB931" sketch:type="MSShapeGroup"></path>
                <path d="M172.548913,90.0461372 C172.548913,135.61083 135.478043,172.54852 89.7482609,172.54852 C44.0178261,172.54852 6.94695652,135.61083 6.94695652,90.0461372 C6.94695652,44.481444 44.0178261,7.54375451 89.7482609,7.54375451 C135.478043,7.54375451 172.548913,44.481444 172.548913,90.0461372" id="Fill-2" fill="#BDE8EF" sketch:type="MSShapeGroup"></path>
                <g id="Group-11" transform="translate(6.521739, 7.148014)">
                    <mask id="mask-2" sketch:name="Clip 4" fill="white">
                        <use xlink:href="#path-1"></use>
                    </mask>
                    <g id="Clip-4"></g>
                    <path d="M121.737391,146.870903 L-22.6656522,146.870903 C-25.8697826,146.870903 -28.4667391,144.283321 -28.4667391,141.091408 L-28.4667391,44.8323466 C-28.4667391,41.6404332 -25.8697826,39.0522022 -22.6656522,39.0522022 L121.737391,39.0522022 C124.941522,39.0522022 127.538478,41.6404332 127.538478,44.8323466 L127.538478,141.091408 C127.538478,144.283321 124.941522,146.870903 121.737391,146.870903" id="Fill-3" fill="#D6D6D6" sketch:type="MSShapeGroup" mask="url(#mask-2)"></path>
                    <path d="M119.66087,145.165126 L-24.7421739,145.165126 C-27.9456522,145.165126 -30.5432609,142.577545 -30.5432609,139.384982 L-30.5432609,43.1265704 C-30.5432609,39.9340072 -27.9456522,37.346426 -24.7421739,37.346426 L119.66087,37.346426 C122.865,37.346426 125.461957,39.9340072 125.461957,43.1265704 L125.461957,139.384982 C125.461957,142.577545 122.865,145.165126 119.66087,145.165126" id="Fill-5" fill="#F3F3F3" sketch:type="MSShapeGroup" mask="url(#mask-2)"></path>
                    <path d="M121.376739,143.235812 L-26.3295652,143.235812 C-28.6213043,143.235812 -30.4786957,140.999134 -30.4786957,138.23935 L-30.4786957,132.293502 C-10.3128261,118.323682 47.523913,79.3234657 47.523913,79.3234657 L125.526522,131.90296 L125.526522,138.23935 C125.526522,140.999134 123.668478,143.235812 121.376739,143.235812" id="Fill-6" fill="#E5E5E5" sketch:type="MSShapeGroup" mask="url(#mask-2)"></path>
                    <path d="M121.417174,144.621227 L-26.2891304,144.621227 C-28.5808696,144.621227 -30.4382609,142.384549 -30.4382609,139.625415 L-30.4382609,133.678917 C-10.2723913,119.709747 47.5643478,80.7095307 47.5643478,80.7095307 L125.566957,133.289025 L125.566957,139.625415 C125.566957,142.384549 123.708913,144.621227 121.417174,144.621227" id="Fill-7" fill="#FCFCFC" sketch:type="MSShapeGroup" mask="url(#mask-2)"></path>
                    <path d="M121.417174,39.4557401 L-26.2891304,39.4557401 C-28.5808696,39.4557401 -30.4382609,41.7645487 -30.4382609,44.6127076 L-30.4382609,50.7489531 C-10.2723913,65.1664982 47.5643478,105.418267 47.5643478,105.418267 L125.566957,51.1518412 L125.566957,44.6127076 C125.566957,41.7645487 123.708913,39.4557401 121.417174,39.4557401" id="Fill-8" fill="#E5E5E5" sketch:type="MSShapeGroup" mask="url(#mask-2)"></path>
                    <path d="M121.417174,37.346426 L-26.2891304,37.346426 C-28.5808696,37.346426 -30.4382609,39.6552347 -30.4382609,42.5033935 L-30.4382609,48.639639 C-10.2723913,63.0571841 47.5643478,103.308953 47.5643478,103.308953 L125.566957,49.0425271 L125.566957,42.5033935 C125.566957,39.6552347 123.708913,37.346426 121.417174,37.346426 L121.417174,37.346426 Z" id="Fill-9" fill="#FCFCFC" sketch:type="MSShapeGroup" mask="url(#mask-2)"></path>
                    <path d="M121.417174,37.346426 L-26.2891304,37.346426 C-28.5808696,37.346426 -30.4382609,39.6552347 -30.4382609,42.5033935 L-30.4382609,48.639639 C-10.2723913,63.0571841 47.5643478,103.308953 47.5643478,103.308953 L125.566957,49.0425271 L125.566957,42.5033935 C125.566957,39.6552347 123.708913,37.346426 121.417174,37.346426 L121.417174,37.346426 Z" id="Stroke-10" stroke="#E2E2E2" sketch:type="MSShapeGroup" mask="url(#mask-2)"></path>
                </g>
                <path d="M176.773043,32.7729964 C176.773043,50.8594224 162.058043,65.5219495 143.906087,65.5219495 C125.75413,65.5219495 111.038478,50.8594224 111.038478,32.7729964 C111.038478,14.6865704 125.75413,0.0246931408 143.906087,0.0246931408 C162.058043,0.0246931408 176.773043,14.6865704 176.773043,32.7729964" id="Fill-12" fill="#FAE7C5" sketch:type="MSShapeGroup"></path>
                <path d="M170.58587,32.3428159 C170.58587,47.2964621 158.419565,59.4188448 143.411739,59.4188448 C128.403913,59.4188448 116.238261,47.2964621 116.238261,32.3428159 C116.238261,17.3891697 128.403913,5.266787 143.411739,5.266787 C158.419565,5.266787 170.58587,17.3891697 170.58587,32.3428159 L170.58587,32.3428159 Z" id="Fill-13" fill="#FFFFFF" sketch:type="MSShapeGroup"></path>
                <path d="M170.58587,32.3428159 C170.58587,47.2964621 158.419565,59.4188448 143.411739,59.4188448 C128.403913,59.4188448 116.238261,47.2964621 116.238261,32.3428159 C116.238261,17.3891697 128.403913,5.266787 143.411739,5.266787 C158.419565,5.266787 170.58587,17.3891697 170.58587,32.3428159 L170.58587,32.3428159 Z" id="Stroke-14" stroke="#FFBC00" stroke-width="2" sketch:type="MSShapeGroup"></path>
                <path d="M143.557826,46.5134296 L131.329565,30.7046209 C130.58413,29.707148 130.660435,28.2502527 131.628261,27.4652708 C132.643696,26.6425993 134.13,26.8355957 134.902826,27.8694585 L143.557826,35.0577617 L157.16413,20.7032491 C157.935652,19.7090253 159.369783,19.5270758 160.366304,20.2958123 C161.363478,21.0645487 161.546739,22.492852 160.774565,23.486426 L143.557826,46.5134296 C143.548696,46.5251264 143.566304,46.5251264 143.557826,46.5134296" id="Fill-15" fill="#FFB931" sketch:type="MSShapeGroup"></path>
            </g>
        </g>
    </g>
</svg>