<svg width="180" height="180" viewBox="0 0 180 180" xmlns="http://www.w3.org/2000/svg" xmlns:xlink="http://www.w3.org/1999/xlink"><title>Imported Layers</title><defs><path id="a" d="M166.563 82.774c0 45.697-37.18 82.742-83.042 82.742S.48 128.47.48 82.774 37.657.032 83.52.032c45.864 0 83.043 37.045 83.043 82.742"/></defs><g fill="none" fill-rule="evenodd"><path d="M179.444 90.252c0 49.258-40.075 89.19-89.51 89.19C40.496 179.44.42 139.51.42 90.25c0-49.257 40.077-89.188 89.513-89.188 49.436 0 89.51 39.93 89.51 89.188" fill="#FFB931"/><path d="M172.55 90.046c0 45.565-37.072 82.503-82.802 82.503-45.73 0-82.8-36.94-82.8-82.504 0-45.565 37.07-82.502 82.8-82.502s82.8 36.937 82.8 82.502" fill="#BDE8EF"/><g transform="translate(6.522 7.148)"><mask id="b" fill="#fff"><use xlink:href="#a"/></mask><path d="M121.737 146.87H-22.666c-3.204 0-5.8-2.587-5.8-5.78V44.833c0-3.192 2.596-5.78 5.8-5.78h144.403c3.205 0 5.8 2.588 5.8 5.78v96.26c0 3.19-2.595 5.78-5.8 5.78" fill="#D6D6D6" mask="url(#b)"/><path d="M119.66 145.165H-24.74c-3.204 0-5.8-2.587-5.8-5.78V43.127c0-3.193 2.596-5.78 5.8-5.78H119.66c3.205 0 5.802 2.587 5.802 5.78v96.258c0 3.193-2.597 5.78-5.8 5.78" fill="#F3F3F3" mask="url(#b)"/><path d="M121.377 143.236H-26.33c-2.29 0-4.15-2.237-4.15-4.997v-5.946c20.167-13.97 78.004-52.97 78.004-52.97l78.003 52.58v6.335c0 2.76-1.86 4.996-4.15 4.996" fill="#E5E5E5" mask="url(#b)"/><path d="M121.417 144.62H-26.29c-2.29 0-4.148-2.235-4.148-4.995v-5.946c20.166-13.97 78.002-52.97 78.002-52.97l78.003 52.58v6.335c0 2.76-1.858 4.996-4.15 4.996" fill="#FCFCFC" mask="url(#b)"/><path d="M121.417 39.456H-26.29c-2.29 0-4.148 2.31-4.148 5.157v6.136c20.166 14.416 78.002 54.668 78.002 54.668l78.003-54.266v-6.54c0-2.847-1.858-5.156-4.15-5.156" fill="#E5E5E5" mask="url(#b)"/><path d="M121.417 37.346H-26.29c-2.29 0-4.148 2.31-4.148 5.157v6.137c20.166 14.417 78.002 54.67 78.002 54.67l78.003-54.267v-6.54c0-2.848-1.858-5.157-4.15-5.157z" fill="#FCFCFC" mask="url(#b)"/><path d="M121.417 37.346H-26.29c-2.29 0-4.148 2.31-4.148 5.157v6.137c20.166 14.417 78.002 54.67 78.002 54.67l78.003-54.267v-6.54c0-2.848-1.858-5.157-4.15-5.157z" stroke="#E2E2E2" mask="url(#b)"/></g><path d="M176.773 32.773c0 18.086-14.715 32.75-32.867 32.75-18.152 0-32.868-14.664-32.868-32.75S125.754.025 143.906.025s32.867 14.662 32.867 32.748" fill="#FAE7C5"/><path d="M170.586 32.343c0 14.953-12.166 27.076-27.174 27.076s-27.174-12.124-27.174-27.077c0-14.954 12.166-27.076 27.174-27.076s27.174 12.122 27.174 27.076z" fill="#FFF"/><path d="M170.586 32.343c0 14.953-12.166 27.076-27.174 27.076s-27.174-12.124-27.174-27.077c0-14.954 12.166-27.076 27.174-27.076s27.174 12.122 27.174 27.076z" stroke="#FFBC00" stroke-width="2"/><path d="M143.558 46.513L131.33 30.705c-.746-.998-.67-2.455.298-3.24 1.016-.822 2.502-.63 3.275.404l8.655 7.188 13.606-14.355c.772-.994 2.206-1.176 3.202-.407.997.77 1.18 2.197.41 3.19l-17.218 23.027c-.01.012.008.012 0 0" fill="#FFB931"/></g></svg>