<?xml version="1.0" encoding="UTF-8" standalone="no"?>
<svg width="180px" height="180px" viewBox="0 0 180 180" version="1.1" xmlns="http://www.w3.org/2000/svg" xmlns:xlink="http://www.w3.org/1999/xlink" xmlns:sketch="http://www.bohemiancoding.com/sketch/ns">
    <!-- Generator: Sketch 3.3.2 (12043) - http://www.bohemiancoding.com/sketch -->
    <title>Imported Layers</title>
    <desc>Created with Sketch.</desc>
    <defs></defs>
    <g id="Page-1" stroke="none" stroke-width="1" fill="none" fill-rule="evenodd" sketch:type="MSPage">
        <g id="deliverinbox_1280" sketch:type="MSArtboardGroup" transform="translate(-83.000000, -1072.000000)">
            <g id="Улучшить-доставляемо-+-Imported-Layers-+-ДОСТАВЛЯЕМОСТЬ-Copy-2" sketch:type="MSLayerGroup" transform="translate(61.000000, 1072.000000)">
                <g id="Imported-Layers" transform="translate(22.000000, 0.000000)" sketch:type="MSShapeGroup">
                    <path d="M179.681538,89.8609091 C179.681538,139.360909 139.554126,179.488322 90.0541259,179.488322 C40.5541259,179.488322 0.426083916,139.360909 0.426083916,89.8609091 C0.426083916,40.3609091 40.5541259,0.232867133 90.0541259,0.232867133 C139.554126,0.232867133 179.681538,40.3609091 179.681538,89.8609091" id="Fill-1" fill="#FFB931"></path>
                    <path d="M173.22042,89.9024476 C173.22042,135.833916 135.985594,173.068741 90.0541259,173.068741 C44.1226573,173.068741 6.88783217,135.833916 6.88783217,89.9024476 C6.88783217,43.970979 44.1226573,6.73615385 90.0541259,6.73615385 C135.985594,6.73615385 173.22042,43.970979 173.22042,89.9024476" id="Fill-2" fill="#BDE8EF"></path>
                    <path d="M121.73979,27.208951 L121.425105,27.4286014 L121.425105,27.9094406 L121.382308,27.939021 L121.382308,34.8879021 L121.926713,34.8879021 L121.926713,28.6508392 C121.926713,28.1523776 121.861259,27.669021 121.739161,27.208951 M57.4231469,25.9923776 C56.9958042,26.7834965 56.7528671,27.6891608 56.7528671,28.6508392 L56.7528671,34.8879021 L57.695035,34.8879021 L57.695035,27.8509091 C57.695035,27.6507692 57.7057343,27.4531469 57.7265035,27.2586713 C57.6686014,27.2171329 57.6106993,27.1762238 57.5546853,27.1353147 L57.4231469,27.0415385 L57.4231469,25.9923776" id="Fill-3" fill="#CADFE2"></path>
                    <path d="M121.382308,27.939021 L111.429441,34.8879021 L121.382308,34.8879021 L121.382308,27.939021 M57.7265035,27.2586713 C57.7057343,27.4531469 57.695035,27.6507692 57.695035,27.8509091 L57.695035,34.8879021 L67.8216084,34.8879021 C63.8018182,32.056993 60.1237762,29.4558042 57.7378322,27.7439161 L57.7378322,27.2668531 C57.7340559,27.2643357 57.7302797,27.2618182 57.7265035,27.2586713" id="Fill-4" fill="#D9EEF1"></path>
                    <path d="M121.425105,27.4286014 L110.741538,34.8879021 L111.429441,34.8879021 L121.382308,27.939021 L121.425105,27.9094406 L121.425105,27.4286014 M57.7378322,27.2668531 L57.7378322,27.7439161 C60.1237762,29.4558042 63.8018182,32.056993 67.8216084,34.8879021 L68.5025874,34.8879021 C64.2518182,31.8965035 60.3018881,29.1052448 57.7378322,27.2668531" id="Fill-5" fill="#D2E6EB"></path>
                    <path d="M119.730839,22.5673427 L59.4320979,22.5673427 C59.073986,22.567972 58.7397902,22.7460839 58.4798601,23.0683217 C58.2211888,23.3893007 58.0525175,23.8506294 58.0525175,24.3654545 L58.0525175,26.718042 C60.7581818,28.6577622 65.0416783,31.6837762 69.5964336,34.8879021 L109.642028,34.8879021 L121.11042,26.881049 L121.11042,24.3654545 C121.11042,23.8506294 120.941748,23.3893007 120.683077,23.0683217 C120.423147,22.7460839 120.08958,22.567972 119.730839,22.5673427" id="Fill-6" fill="#DEF2F7"></path>
                    <path d="M119.732098,21.937972 L119.730839,21.937972 L59.4320979,21.937972 C58.8543357,21.937972 58.3413986,22.2325175 57.9883217,22.674965 C57.633986,23.118042 57.4237762,23.7140559 57.4231469,24.3654545 L57.4231469,27.0415385 L57.5546853,27.1353147 C57.6106993,27.1762238 57.6686014,27.2171329 57.7265035,27.2586713 C57.7302797,27.2618182 57.7340559,27.2643357 57.7378322,27.2668531 C60.3018881,29.1052448 64.2518182,31.8965035 68.5025874,34.8879021 L69.5964336,34.8879021 C65.0416783,31.6837762 60.7581818,28.6577622 58.0525175,26.718042 L58.0525175,24.3654545 C58.0525175,23.8506294 58.2211888,23.3893007 58.4798601,23.0683217 C58.7397902,22.7460839 59.073986,22.567972 59.4320979,22.5673427 L119.730839,22.5673427 C120.08958,22.567972 120.423147,22.7460839 120.683077,23.0683217 C120.941748,23.3893007 121.11042,23.8506294 121.11042,24.3654545 L121.11042,26.881049 L109.642028,34.8879021 L110.741538,34.8879021 L121.73979,27.208951 L121.73979,24.3654545 C121.739161,23.7140559 121.528951,23.118042 121.173986,22.674965 C120.821538,22.2325175 120.308601,21.937972 119.732098,21.937972" id="Fill-7" fill="#D0E5E8"></path>
                    <path d="M35.8262937,143.589021 L146.535734,143.589021 L146.535734,148.082098 L35.8262937,148.082098 L35.8262937,143.589021 Z" id="Fill-8" fill="#F3F3F3"></path>
                    <path d="M136.761608,39.858042 L136.761608,42.198042 L136.446923,42.4176923 L136.446923,43.2654545 L136.385874,43.3082517 L136.385874,90.4015385 L136.423007,90.4267133 L136.423007,90.8402098 L136.761608,91.0686713 L136.761608,94.9367832 C136.760979,95.495035 136.642028,96.0218182 136.42993,96.4831469 C136.895664,95.6668531 137.161888,94.7215385 137.161888,93.7145455 L137.161888,41.9412587 C137.161888,41.2048951 137.01965,40.5018881 136.761608,39.858042 M45.3493007,38.6225874 C44.6645455,39.5509091 44.2604895,40.6988811 44.2604895,41.9412587 L44.2604895,93.7145455 C44.2604895,96.806014 46.7666434,99.3121678 49.8581119,99.3121678 L131.563636,99.3121678 C133.172308,99.3121678 134.621748,98.6343357 135.643217,97.548042 C135.196993,97.9344755 134.639371,98.1692308 134.032028,98.1692308 L130.966364,98.1692308 C130.906573,98.1711189 130.847413,98.1717483 130.787622,98.1717483 L51.2011888,98.1717483 C51.1413986,98.1717483 51.0822378,98.1711189 51.0224476,98.1692308 L48.0788811,98.1692308 L48.0776224,98.1692308 C47.3053846,98.1692308 46.6130769,97.7878322 46.1290909,97.2006294 C45.641958,96.6115385 45.3499301,95.8128671 45.3493007,94.9367832 L45.3493007,91.299021 L45.4846154,91.2052448 C45.5242657,91.1781818 45.5632867,91.1504895 45.6029371,91.1227972 L45.6029371,42.142028 C45.562028,42.1124476 45.5217483,42.0834965 45.4808392,42.0539161 L45.3493007,41.9601399 L45.3493007,38.6225874" id="Fill-9" fill="#D0DADC"></path>
                    <path d="M45.6029371,42.142028 L45.6029371,91.1227972 C45.6155245,91.1146154 45.6281119,91.1058042 45.6406993,91.096993 L45.6406993,90.6545455 C53.0169231,85.5258042 69.0564336,74.6206993 79.9520979,67.2281119 L62.3511189,67.2281119 C61.3611189,67.2281119 60.4309091,66.9706993 59.6240559,66.5194406 L59.4320979,66.5194406 L59.4308392,66.5194406 C58.8581119,66.5194406 58.3458042,66.2362238 57.9914685,65.8063636 C57.661049,65.4060839 57.4546154,64.8761538 57.4269231,64.293986 C56.9970629,63.5016084 56.7528671,62.5946853 56.7528671,61.6298601 L56.7528671,50.8984615 C52.3340559,47.7811888 48.4023776,44.994965 45.663986,43.0300699 L45.663986,42.1854545 C45.6438462,42.170979 45.6237063,42.1565035 45.6029371,42.142028" id="Fill-10" fill="#E6F0F2"></path>
                    <path d="M78.9923077,66.5194406 L59.6240559,66.5194406 C60.4309091,66.9706993 61.3611189,67.2281119 62.3511189,67.2281119 L79.9520979,67.2281119 C79.9609091,67.2224476 79.9697203,67.2161538 79.9785315,67.2098601 C79.655035,66.9832867 79.3252448,66.7523077 78.9923077,66.5194406 M56.7528671,50.8984615 L56.7528671,61.6298601 C56.7528671,62.5946853 56.9970629,63.5016084 57.4269231,64.293986 C57.4244056,64.2493007 57.4231469,64.2033566 57.4231469,64.158042 L57.4231469,61.5574825 L57.5584615,61.4637063 C57.6113287,61.4265734 57.6654545,61.3888112 57.718951,61.3516783 C57.7032168,61.1798601 57.695035,61.0055245 57.695035,60.8299301 L57.695035,51.5630769 C57.3784615,51.3396503 57.065035,51.1187413 56.7528671,50.8984615" id="Fill-11" fill="#E9EEEF"></path>
                    <path d="M57.695035,51.5630769 L57.695035,60.8299301 C57.695035,61.0055245 57.7032168,61.1798601 57.718951,61.3516783 C57.7202098,61.351049 57.7202098,61.351049 57.7214685,61.3504196 L57.7214685,61.1540559 C59.4541259,59.9494406 61.8677622,58.291049 64.5992308,56.4224476 C62.2485315,54.7697203 59.9167133,53.1295804 57.695035,51.5630769" id="Fill-12" fill="#EDF2F3"></path>
                    <path d="M64.5992308,56.4224476 C61.8677622,58.291049 59.4541259,59.9494406 57.7214685,61.1540559 L57.7214685,61.3504196 C59.506993,60.1099301 61.970979,58.4175524 64.7414685,56.5225175 C64.693007,56.4885315 64.6476923,56.4564336 64.5992308,56.4224476" id="Fill-13" fill="#ECF0F1"></path>
                    <path d="M65.2915385,56.908951 C62.4272727,58.8675524 59.8802098,60.6165734 58.0525175,61.8866434 L58.0525175,64.158042 C58.0525175,64.6527273 58.2199301,65.0951748 58.4767133,65.4048252 C58.7353846,65.7157343 59.0695804,65.8900699 59.4320979,65.8900699 L78.0941958,65.8900699 C74.1562238,63.1321678 69.7015385,60.007972 65.2915385,56.908951" id="Fill-14" fill="#EEF3F4"></path>
                    <path d="M64.7414685,56.5225175 C61.970979,58.4175524 59.506993,60.1099301 57.7214685,61.3504196 C57.7202098,61.351049 57.7202098,61.351049 57.718951,61.3516783 C57.6654545,61.3888112 57.6113287,61.4265734 57.5584615,61.4637063 L57.4231469,61.5574825 L57.4231469,64.158042 C57.4231469,64.2033566 57.4244056,64.2493007 57.4269231,64.293986 C57.4546154,64.8761538 57.661049,65.4060839 57.9914685,65.8063636 C58.3458042,66.2362238 58.8581119,66.5194406 59.4308392,66.5194406 L59.4320979,66.5194406 L78.9923077,66.5194406 C78.6958741,66.3117483 78.3969231,66.1027972 78.0941958,65.8900699 L59.4320979,65.8900699 C59.0695804,65.8900699 58.7353846,65.7157343 58.4767133,65.4048252 C58.2199301,65.0951748 58.0525175,64.6527273 58.0525175,64.158042 L58.0525175,61.8866434 C59.8802098,60.6165734 62.4272727,58.8675524 65.2915385,56.908951 C65.109021,56.7805594 64.923986,56.6509091 64.7414685,56.5225175" id="Fill-15" fill="#ECF0F0"></path>
                    <path d="M136.385874,43.3082517 L121.926713,53.403986 L121.926713,61.6298601 C121.926713,62.1276923 121.861888,62.6104196 121.73979,63.0698601 L121.73979,64.158042 C121.739161,64.7937063 121.527692,65.3746154 121.171469,65.8063636 C120.817133,66.2362238 120.305455,66.5194406 119.732098,66.5194406 L119.730839,66.5194406 L119.056154,66.5194406 C118.248671,66.9706993 117.318462,67.2281119 116.328462,67.2281119 L102.131748,67.2281119 L136.385874,90.4015385 L136.385874,43.3082517" id="Fill-16" fill="#E6F0F2"></path>
                    <path d="M119.056154,66.5194406 L103.141888,66.5194406 L102.12986,67.2262238 L102.131748,67.2281119 L116.328462,67.2281119 C117.318462,67.2281119 118.248671,66.9706993 119.056154,66.5194406 M121.926713,53.403986 L121.382308,53.7841259 L121.382308,60.8299301 C121.382308,60.8783916 121.381678,60.9268531 121.38042,60.9753147 L121.408112,60.9941958 L121.408112,61.1704196 L121.73979,61.3944755 L121.73979,63.0698601 C121.861888,62.6104196 121.926713,62.1276923 121.926713,61.6298601 L121.926713,53.403986" id="Fill-17" fill="#E9EEEF"></path>
                    <path d="M121.382308,53.7841259 L116.15035,57.436993 L121.38042,60.9753147 C121.381678,60.9268531 121.382308,60.8783916 121.382308,60.8299301 L121.382308,53.7841259" id="Fill-18" fill="#EDF2F3"></path>
                    <path d="M116.15035,57.436993 L116.021958,57.5263636 L121.408112,61.1704196 L121.408112,60.9941958 L121.38042,60.9753147 L116.15035,57.436993" id="Fill-19" fill="#ECF0F1"></path>
                    <path d="M115.468741,57.9127972 L104.043147,65.8900699 L119.730839,65.8900699 C120.093357,65.8900699 120.427552,65.7157343 120.686224,65.4048252 C120.943007,65.0951748 121.11042,64.6527273 121.11042,64.158042 L121.11042,61.7286713 L115.468741,57.9127972" id="Fill-20" fill="#EEF3F4"></path>
                    <path d="M116.021958,57.5263636 L115.468741,57.9127972 L121.11042,61.7286713 L121.11042,64.158042 C121.11042,64.6527273 120.943007,65.0951748 120.686224,65.4048252 C120.427552,65.7157343 120.093357,65.8900699 119.730839,65.8900699 L104.043147,65.8900699 L103.141888,66.5194406 L119.730839,66.5194406 L119.732098,66.5194406 C120.305455,66.5194406 120.817133,66.2362238 121.171469,65.8063636 C121.527692,65.3746154 121.739161,64.7937063 121.73979,64.158042 L121.73979,61.3944755 L116.021958,57.5263636" id="Fill-21" fill="#ECF0F0"></path>
                    <path d="M130.966364,98.1692308 L51.0224476,98.1692308 C51.0822378,98.1711189 51.1413986,98.1717483 51.2011888,98.1717483 L130.787622,98.1717483 C130.847413,98.1717483 130.906573,98.1711189 130.966364,98.1692308" id="Fill-22" fill="#E6F0F2"></path>
                    <path d="M80.0037063,67.2281119 L79.9520979,67.2281119 C69.0564336,74.6206993 53.0169231,85.5258042 45.6406993,90.6545455 L45.6406993,91.096993 C53.2038462,85.8417483 69.4768531,74.7799301 80.3013986,67.4364336 C80.2025874,67.3672028 80.1031469,67.2973427 80.0037063,67.2281119" id="Fill-23" fill="#DBE6E7"></path>
                    <path d="M79.9785315,67.2098601 C79.9697203,67.2161538 79.9609091,67.2224476 79.9520979,67.2281119 L80.0037063,67.2281119 C79.9955245,67.2218182 79.9867133,67.2161538 79.9785315,67.2098601" id="Fill-24" fill="#DFE4E4"></path>
                    <path d="M102.131748,67.2281119 L102.127343,67.2281119 L101.829021,67.4364336 L136.423007,90.8402098 L136.423007,90.4267133 L136.385874,90.4015385 L102.131748,67.2281119" id="Fill-25" fill="#DBE6E7"></path>
                    <path d="M102.12986,67.2262238 L102.127343,67.2281119 L102.131748,67.2281119 L102.12986,67.2262238" id="Fill-26" fill="#DFE4E4"></path>
                    <path d="M101.276434,67.8222378 L91.0554545,74.9586713 C91.0554545,74.9586713 86.8311189,72.0081818 80.8527273,67.8222378 C78.4397203,69.4598601 75.7479021,71.2869231 72.9371329,73.1964336 C63.1321678,79.858951 51.8815385,87.5265734 45.9786713,91.6281818 L45.9786713,94.9367832 C45.9786713,95.6718881 46.2266434,96.3320979 46.6137063,96.7990909 C47.0026573,97.2673427 47.5174825,97.5392308 48.0788811,97.5398601 L134.032028,97.5398601 C134.593427,97.5392308 135.108252,97.2673427 135.497203,96.7990909 C135.884266,96.3320979 136.132238,95.6718881 136.132238,94.9367832 L136.132238,91.4028671 L101.276434,67.8222378" id="Fill-27" fill="#EDF8F9"></path>
                    <path d="M80.3013986,67.4364336 C69.4768531,74.7799301 53.2038462,85.8417483 45.6406993,91.096993 C45.6281119,91.1058042 45.6155245,91.1146154 45.6029371,91.1227972 C45.5632867,91.1504895 45.5242657,91.1781818 45.4846154,91.2052448 L45.3493007,91.299021 L45.3493007,94.9367832 C45.3499301,95.8128671 45.641958,96.6115385 46.1290909,97.2006294 C46.6130769,97.7878322 47.3053846,98.1692308 48.0776224,98.1692308 L48.0788811,98.1692308 L134.032028,98.1692308 C134.639371,98.1692308 135.196993,97.9344755 135.643217,97.548042 C135.764685,97.4429371 135.877972,97.3265035 135.981818,97.2006294 C136.158042,96.9866434 136.309091,96.7455944 136.42993,96.4831469 C136.642028,96.0218182 136.760979,95.495035 136.761608,94.9367832 L136.761608,91.0686713 L101.829021,67.4364336 L101.276434,67.8222378 L136.132238,91.4028671 L136.132238,94.9367832 C136.132238,95.6718881 135.884266,96.3320979 135.497203,96.7990909 C135.108252,97.2673427 134.593427,97.5392308 134.032028,97.5398601 L48.0788811,97.5398601 C47.5174825,97.5392308 47.0026573,97.2673427 46.6137063,96.7990909 C46.2266434,96.3320979 45.9786713,95.6718881 45.9786713,94.9367832 L45.9786713,91.6281818 C51.8815385,87.5265734 63.1321678,79.858951 72.9371329,73.1964336 C75.7479021,71.2869231 78.4397203,69.4598601 80.8527273,67.8222378 C80.6708392,67.6951049 80.4864336,67.5660839 80.3013986,67.4364336" id="Fill-28" fill="#D9E3E5"></path>
                    <path d="M136.446923,42.4176923 L121.926713,52.5555944 L121.926713,53.403986 L136.446923,43.2654545 L136.446923,42.4176923 M45.663986,42.1854545 L45.663986,43.0300699 C48.4023776,44.994965 52.3340559,47.7811888 56.7528671,50.8984615 L56.7528671,50.051958 C52.3586014,46.9523077 48.431958,44.1698601 45.663986,42.1854545" id="Fill-29" fill="#DBE6E7"></path>
                    <path d="M80.2032168,66.5194406 L78.9923077,66.5194406 C79.3252448,66.7523077 79.655035,66.9832867 79.9785315,67.2098601 C79.9867133,67.2161538 79.9955245,67.2218182 80.0037063,67.2281119 L81.2146154,67.2281119 C80.8829371,66.9958741 80.5455944,66.7598601 80.2032168,66.5194406 M56.7528671,50.051958 L56.7528671,50.8984615 C57.065035,51.1187413 57.3784615,51.3396503 57.695035,51.5630769 L57.695035,50.7159441 C57.3790909,50.4931469 57.065035,50.2716084 56.7528671,50.051958" id="Fill-30" fill="#DFE4E4"></path>
                    <path d="M57.695035,50.7159441 L57.695035,51.5630769 C59.9167133,53.1295804 62.2485315,54.7697203 64.5992308,56.4224476 C64.8012587,56.283986 65.0045455,56.1448951 65.2103497,56.0045455 C62.6538462,54.2083217 60.1137063,52.4209091 57.695035,50.7159441" id="Fill-31" fill="#E2E7E8"></path>
                    <path d="M65.2103497,56.0045455 C65.0045455,56.1448951 64.8012587,56.283986 64.5992308,56.4224476 C64.6476923,56.4564336 64.693007,56.4885315 64.7414685,56.5225175 C64.9434965,56.3846853 65.1474126,56.244965 65.3525874,56.1046154 C65.3053846,56.0712587 65.2575524,56.0379021 65.2103497,56.0045455" id="Fill-32" fill="#E0E5E6"></path>
                    <path d="M65.9026573,56.491049 C65.6974825,56.6313986 65.4935664,56.7711189 65.2915385,56.908951 C69.7015385,60.007972 74.1562238,63.1321678 78.0941958,65.8900699 L79.3044755,65.8900699 C75.2702098,63.0654545 70.5813986,59.7782517 65.9026573,56.491049" id="Fill-33" fill="#E3E8E9"></path>
                    <path d="M79.3044755,65.8900699 L78.0941958,65.8900699 C78.3969231,66.1027972 78.6958741,66.3117483 78.9923077,66.5194406 L80.2032168,66.5194406 C79.908042,66.3136364 79.6065734,66.1021678 79.3044755,65.8900699 M65.3525874,56.1046154 C65.1474126,56.244965 64.9434965,56.3846853 64.7414685,56.5225175 C64.923986,56.6509091 65.109021,56.7805594 65.2915385,56.908951 C65.4935664,56.7711189 65.6974825,56.6313986 65.9026573,56.491049 C65.7201399,56.3626573 65.5357343,56.233007 65.3525874,56.1046154" id="Fill-34" fill="#E0E5E6"></path>
                    <path d="M103.141888,66.5194406 L101.927203,66.5194406 L100.912657,67.2281119 L102.127343,67.2281119 L102.12986,67.2262238 L103.141888,66.5194406 M121.926713,52.5555944 L121.382308,52.9357343 L121.382308,53.7841259 L121.926713,53.403986 L121.926713,52.5555944" id="Fill-35" fill="#DFE4E4"></path>
                    <path d="M121.382308,52.9357343 L115.533566,57.0197203 L116.15035,57.436993 L121.382308,53.7841259 L121.382308,52.9357343" id="Fill-36" fill="#E2E7E8"></path>
                    <path d="M115.533566,57.0197203 L115.405175,57.1090909 L116.021958,57.5263636 L116.15035,57.436993 L115.533566,57.0197203" id="Fill-37" fill="#E0E5E6"></path>
                    <path d="M114.851958,57.4955245 L102.828462,65.8900699 L104.043147,65.8900699 L115.468741,57.9127972 L114.851958,57.4955245" id="Fill-38" fill="#E3E8E9"></path>
                    <path d="M104.043147,65.8900699 L102.828462,65.8900699 L101.927203,66.5194406 L103.141888,66.5194406 L104.043147,65.8900699 M115.405175,57.1090909 L114.851958,57.4955245 L115.468741,57.9127972 L116.021958,57.5263636 L115.405175,57.1090909" id="Fill-39" fill="#E0E5E6"></path>
                    <path d="M102.127343,67.2281119 L100.912657,67.2281119 L91.0554545,74.1102797 L90.8754545,73.9844056 C90.8748252,73.9844056 86.9041259,71.2113986 81.2146154,67.2281119 L80.0037063,67.2281119 C80.1031469,67.2973427 80.2025874,67.3672028 80.3013986,67.4364336 C80.4864336,67.5660839 80.6708392,67.6951049 80.8527273,67.8222378 C86.8311189,72.0081818 91.0554545,74.9586713 91.0554545,74.9586713 L102.127343,67.2281119" id="Fill-40" fill="#DBE6E7"></path>
                    <path d="M56.7528671,35.5172727 L48.0788811,35.5172727 C47.5212587,35.5179021 47.0076923,35.7967133 46.6168531,36.2813287 C46.2279021,36.7653147 45.9786713,37.4506993 45.9786713,38.2141259 L45.9786713,41.6366434 C48.6717483,43.5681818 52.4781818,46.2656643 56.7528671,49.2816084 L56.7528671,35.5172727 M134.032028,35.5172727 L121.926713,35.5172727 L121.926713,51.7877622 L136.132238,41.8695105 L136.132238,38.2141259 C136.132238,37.4506993 135.882378,36.7653147 135.494056,36.2813287 C135.103217,35.7967133 134.58965,35.5179021 134.032028,35.5172727" id="Fill-41" fill="#EDF8F9"></path>
                    <path d="M57.695035,35.5172727 L56.7528671,35.5172727 L56.7528671,49.2816084 C57.0644056,49.5012587 57.3790909,49.7227972 57.695035,49.9462238 L57.695035,35.5172727 M121.926713,35.5172727 L121.382308,35.5172727 L121.382308,52.1679021 L121.926713,51.7877622 L121.926713,35.5172727" id="Fill-42" fill="#F0F6F7"></path>
                    <path d="M68.7159441,35.5172727 L57.695035,35.5172727 L57.695035,49.9462238 C60.2817483,51.7701399 63.0157343,53.6934965 65.7648252,55.625035 C70.9672028,52.0703497 77.0815385,47.9152448 81.8106294,44.7073427 C77.9500699,42.0035664 73.1693706,38.6521678 68.7159441,35.5172727 M121.382308,35.5172727 L110.528182,35.5172727 L97.3504196,44.7186713 L114.974685,56.6420979 L121.382308,52.1679021 L121.382308,35.5172727" id="Fill-43" fill="#F4F9F9"></path>
                    <path d="M97.3504196,44.7186713 L97.222028,44.808042 L114.846294,56.7314685 L114.974685,56.6420979 L97.3504196,44.7186713 M81.8106294,44.7073427 C77.0815385,47.9152448 70.9672028,52.0703497 65.7648252,55.625035 C65.8113986,55.6583916 65.8611189,55.693007 65.9076923,55.7257343 C71.1566434,52.1395804 77.2766434,47.981958 81.9547552,44.808042 C81.9069231,44.7746853 81.8584615,44.7406993 81.8106294,44.7073427" id="Fill-44" fill="#F2F8F9"></path>
                    <path d="M96.6694406,45.1938462 L89.5814685,50.1425874 C89.5814685,50.1425874 86.6567832,48.1002797 82.5060839,45.1944755 C80.8055245,46.3481119 78.9067133,47.6370629 76.9235664,48.9845455 C73.4903497,51.3176224 69.8041259,53.8262937 66.4577622,56.1121678 C71.358042,59.5541958 76.263986,62.9930769 80.4014685,65.8900699 L101.728951,65.8900699 L114.293706,57.1172727 L96.6694406,45.1938462" id="Fill-45" fill="#F6FAFB"></path>
                    <path d="M101.728951,65.8900699 L80.4014685,65.8900699 C80.7054545,66.1034266 81.0044056,66.313007 81.3002098,66.5194406 L100.827692,66.5194406 L101.728951,65.8900699 M97.222028,44.808042 L96.6694406,45.1938462 L114.293706,57.1172727 L114.846294,56.7314685 L97.222028,44.808042 M81.9547552,44.808042 C77.2766434,47.981958 71.1566434,52.1395804 65.9076923,55.7257343 C66.0914685,55.8547552 66.273986,55.9831469 66.4577622,56.1121678 C69.8041259,53.8262937 73.4903497,51.3176224 76.9235664,48.9845455 C78.9067133,47.6370629 80.8055245,46.3481119 82.5060839,45.1944755 C82.3248252,45.0673427 82.1404196,44.9383217 81.9547552,44.808042" id="Fill-46" fill="#F1F7F8"></path>
                    <path d="M110.528182,35.5172727 L109.84028,35.5172727 L89.5814685,49.6623776 L89.4014685,49.5365035 C89.4008392,49.5365035 78.851958,42.1684615 69.3969231,35.5172727 L68.7159441,35.5172727 C73.1693706,38.6521678 77.9500699,42.0035664 81.8106294,44.7073427 C81.8584615,44.7406993 81.9069231,44.7746853 81.9547552,44.808042 C82.1404196,44.9383217 82.3248252,45.0673427 82.5060839,45.1944755 C86.6567832,48.1002797 89.5814685,50.1425874 89.5814685,50.1425874 L110.528182,35.5172727" id="Fill-47" fill="#F2F8F9"></path>
                    <path d="M108.740769,35.5172727 L70.4913986,35.5172727 C77.9714685,40.7775524 85.9462238,46.3537762 88.7311888,48.3004196 C89.1226573,48.5741958 89.4109091,48.7755944 89.5814685,48.8945455 L108.740769,35.5172727" id="Fill-48" fill="#F6FAFB"></path>
                    <path d="M109.84028,35.5172727 L108.740769,35.5172727 L89.5814685,48.8945455 C89.4109091,48.7755944 89.1226573,48.5741958 88.7311888,48.3004196 C85.9462238,46.3537762 77.9714685,40.7775524 70.4913986,35.5172727 L69.3969231,35.5172727 C78.851958,42.1684615 89.4008392,49.5365035 89.4014685,49.5365035 L89.5814685,49.6623776 L109.84028,35.5172727" id="Fill-49" fill="#F1F7F8"></path>
                    <path d="M100.827692,66.5194406 L81.3002098,66.5194406 C81.6432168,66.7598601 81.9811888,66.9965035 82.3116084,67.2281119 L99.8131469,67.2281119 L100.827692,66.5194406" id="Fill-50" fill="#F0F6F7"></path>
                    <path d="M99.8131469,67.2281119 L82.3116084,67.2281119 C85.5906294,69.5227972 88.2314685,71.3693706 89.7665035,72.4424476 C90.3876923,72.8767133 90.826993,73.1838462 91.0554545,73.3430769 L99.8131469,67.2281119" id="Fill-51" fill="#EDF8F9"></path>
                    <path d="M56.7528671,34.8879021 L48.0788811,34.8879021 C47.3022378,34.8879021 46.6093007,35.2831469 46.1259441,35.887972 C45.6406993,36.4940559 45.3499301,37.3141259 45.3493007,38.2141259 L45.3493007,41.9601399 L45.4808392,42.0539161 C45.5217483,42.0834965 45.562028,42.1124476 45.6029371,42.142028 C45.6237063,42.1565035 45.6438462,42.170979 45.663986,42.1854545 C48.431958,44.1698601 52.3586014,46.9523077 56.7528671,50.051958 L56.7528671,49.2816084 C52.4781818,46.2656643 48.6717483,43.5681818 45.9786713,41.6366434 L45.9786713,38.2141259 C45.9786713,37.4506993 46.2279021,36.7653147 46.6168531,36.2813287 C47.0076923,35.7967133 47.5212587,35.5179021 48.0788811,35.5172727 L56.7528671,35.5172727 L56.7528671,34.8879021 M134.033287,34.8879021 L134.032028,34.8879021 L121.926713,34.8879021 L121.926713,35.5172727 L134.032028,35.5172727 C134.58965,35.5179021 135.103217,35.7967133 135.494056,36.2813287 C135.882378,36.7653147 136.132238,37.4506993 136.132238,38.2141259 L136.132238,41.8695105 L121.926713,51.7877622 L121.926713,52.5555944 L136.761608,42.198042 L136.761608,38.2141259 C136.760979,37.3141259 136.47021,36.4940559 135.984965,35.887972 C135.502238,35.2831469 134.808671,34.8879021 134.033287,34.8879021" id="Fill-52" fill="#D9E3E5"></path>
                    <path d="M56.7528671,35.5172727 L57.695035,35.5172727 L57.695035,34.8879021 L56.7528671,34.8879021 L56.7528671,35.5172727 Z M121.382308,35.5172727 L121.926713,35.5172727 L121.926713,34.8879021 L121.382308,34.8879021 L121.382308,35.5172727 Z" id="Fill-53" fill="#DCE1E2"></path>
                    <path d="M67.8216084,34.8879021 L57.695035,34.8879021 L57.695035,35.5172727 L68.7159441,35.5172727 C68.4157343,35.3064336 68.118042,35.0968531 67.8216084,34.8879021 M121.382308,34.8879021 L111.429441,34.8879021 L110.528182,35.5172727 L121.382308,35.5172727 L121.382308,34.8879021" id="Fill-54" fill="#E0E5E6"></path>
                    <path d="M68.5025874,34.8879021 L67.8216084,34.8879021 C68.118042,35.0968531 68.4157343,35.3064336 68.7159441,35.5172727 L69.3969231,35.5172727 C69.0973427,35.3064336 68.7996503,35.0968531 68.5025874,34.8879021 M111.429441,34.8879021 L110.741538,34.8879021 L109.84028,35.5172727 L110.528182,35.5172727 L111.429441,34.8879021" id="Fill-55" fill="#DEE3E4"></path>
                    <path d="M109.642028,34.8879021 L69.5964336,34.8879021 C69.8934965,35.0968531 70.1918182,35.3070629 70.4913986,35.5172727 L108.740769,35.5172727 L109.642028,34.8879021" id="Fill-56" fill="#E1E6E7"></path>
                    <path d="M69.5964336,34.8879021 L68.5025874,34.8879021 C68.7996503,35.0968531 69.0973427,35.3064336 69.3969231,35.5172727 L70.4913986,35.5172727 C70.1918182,35.3070629 69.8934965,35.0968531 69.5964336,34.8879021 M110.741538,34.8879021 L109.642028,34.8879021 L108.740769,35.5172727 L109.84028,35.5172727 L110.741538,34.8879021" id="Fill-57" fill="#DEE3E3"></path>
                    <path d="M56.7528671,49.2816084 L56.7528671,50.051958 C57.065035,50.2716084 57.3790909,50.4931469 57.695035,50.7159441 L57.695035,49.9462238 C57.3790909,49.7227972 57.0644056,49.5012587 56.7528671,49.2816084" id="Fill-58" fill="#DCE1E2"></path>
                    <path d="M57.695035,49.9462238 L57.695035,50.7159441 C60.1137063,52.4209091 62.6538462,54.2083217 65.2103497,56.0045455 C65.3934965,55.8786713 65.5791608,55.7521678 65.7648252,55.625035 C63.0157343,53.6934965 60.2817483,51.7701399 57.695035,49.9462238" id="Fill-59" fill="#E0E5E6"></path>
                    <path d="M65.7648252,55.625035 C65.5791608,55.7521678 65.3934965,55.8786713 65.2103497,56.0045455 C65.2575524,56.0379021 65.3053846,56.0712587 65.3525874,56.1046154 C65.536993,55.9787413 65.7213986,55.8528671 65.9076923,55.7257343 C65.8611189,55.693007 65.8113986,55.6583916 65.7648252,55.625035" id="Fill-60" fill="#DEE3E4"></path>
                    <path d="M66.4577622,56.1121678 C66.2714685,56.2393007 66.0870629,56.3651748 65.9026573,56.491049 C70.5813986,59.7782517 75.2702098,63.0654545 79.3044755,65.8900699 L80.4014685,65.8900699 C76.263986,62.9930769 71.358042,59.5541958 66.4577622,56.1121678" id="Fill-61" fill="#E1E6E7"></path>
                    <path d="M80.4014685,65.8900699 L79.3044755,65.8900699 C79.6065734,66.1021678 79.908042,66.3136364 80.2032168,66.5194406 L81.3002098,66.5194406 C81.0044056,66.313007 80.7054545,66.1034266 80.4014685,65.8900699 M65.9076923,55.7257343 C65.7213986,55.8528671 65.536993,55.9787413 65.3525874,56.1046154 C65.5357343,56.233007 65.7201399,56.3626573 65.9026573,56.491049 C66.0870629,56.3651748 66.2714685,56.2393007 66.4577622,56.1121678 C66.273986,55.9831469 66.0914685,55.8547552 65.9076923,55.7257343" id="Fill-62" fill="#DEE3E3"></path>
                    <path d="M101.927203,66.5194406 L100.827692,66.5194406 L99.8131469,67.2281119 L100.912657,67.2281119 L101.927203,66.5194406 M121.926713,51.7877622 L121.382308,52.1679021 L121.382308,52.9357343 L121.926713,52.5555944 L121.926713,51.7877622" id="Fill-63" fill="#DCE1E2"></path>
                    <path d="M121.382308,52.1679021 L114.974685,56.6420979 L115.533566,57.0197203 L121.382308,52.9357343 L121.382308,52.1679021" id="Fill-64" fill="#E0E5E6"></path>
                    <path d="M114.974685,56.6420979 L114.846294,56.7314685 L115.405175,57.1090909 L115.533566,57.0197203 L114.974685,56.6420979" id="Fill-65" fill="#DEE3E4"></path>
                    <path d="M114.293706,57.1172727 L101.728951,65.8900699 L102.828462,65.8900699 L114.851958,57.4955245 L114.293706,57.1172727" id="Fill-66" fill="#E1E6E7"></path>
                    <path d="M102.828462,65.8900699 L101.728951,65.8900699 L100.827692,66.5194406 L101.927203,66.5194406 L102.828462,65.8900699 M114.846294,56.7314685 L114.293706,57.1172727 L114.851958,57.4955245 L115.405175,57.1090909 L114.846294,56.7314685" id="Fill-67" fill="#DEE3E3"></path>
                    <path d="M81.3002098,66.5194406 L80.2032168,66.5194406 C80.5455944,66.7598601 80.8829371,66.9958741 81.2146154,67.2281119 L82.3116084,67.2281119 C81.9811888,66.9965035 81.6432168,66.7598601 81.3002098,66.5194406" id="Fill-68" fill="#DCE1E2"></path>
                    <path d="M100.912657,67.2281119 L99.8131469,67.2281119 L91.0554545,73.3430769 C90.826993,73.1838462 90.3876923,72.8767133 89.7665035,72.4424476 C88.2314685,71.3693706 85.5906294,69.5227972 82.3116084,67.2281119 L81.2146154,67.2281119 C86.9041259,71.2113986 90.8748252,73.9844056 90.8754545,73.9844056 L91.0554545,74.1102797 L100.912657,67.2281119" id="Fill-69" fill="#D9E3E5"></path>
                    <path d="M140.822308,127.776713 L37.0044755,127.776713 C33.9123776,127.776713 31.4062238,125.270559 31.4062238,122.179091 L31.4062238,55.417972 C31.4062238,52.3258741 33.9123776,49.8197203 37.0044755,49.8197203 L140.822308,49.8197203 C143.914406,49.8197203 146.420559,52.3258741 146.420559,55.417972 L146.420559,122.179091 C146.420559,125.270559 143.914406,127.776713 140.822308,127.776713" id="Fill-70" fill="#D6D6D6"></path>
                    <path d="M139.861888,126.365035 L38.6666434,126.365035 C35.5751748,126.365035 33.069021,123.858881 33.069021,120.766783 L33.069021,54.0056643 C33.069021,50.9141958 35.5751748,48.4074126 38.6666434,48.4074126 L139.861888,48.4074126 C142.953357,48.4074126 145.45951,50.9141958 145.45951,54.0056643 L145.45951,120.766783 C145.45951,123.858881 142.953357,126.365035 139.861888,126.365035" id="Fill-71" fill="#F3F3F3"></path>
                    <path d="M142.517203,124.97035 L36.1044755,124.97035 C34.4536364,124.97035 33.114965,123.352867 33.114965,121.357762 L33.114965,117.058531 C47.6433566,106.957762 89.3108392,78.7588112 89.3108392,78.7588112 L145.506084,116.775944 L145.506084,121.357762 C145.506084,123.352867 144.168042,124.97035 142.517203,124.97035" id="Fill-72" fill="#E5E5E5"></path>
                    <path d="M142.546154,125.972308 L36.1334266,125.972308 C34.4825874,125.972308 33.1445455,124.354825 33.1445455,122.35972 L33.1445455,118.06049 C47.6723077,107.95972 89.3397902,79.7607692 89.3397902,79.7607692 L145.535035,117.777902 L145.535035,122.35972 C145.535035,124.354825 144.196993,125.972308 142.546154,125.972308" id="Fill-73" fill="#FCFCFC"></path>
                    <path d="M142.546154,125.972308 L142.546154,125.657622 L36.1334266,125.657622 C35.4140559,125.656993 34.7551049,125.307063 34.2623077,124.713566 C33.7713986,124.120699 33.4586014,123.286783 33.4592308,122.35972 L33.4592308,118.06049 L33.1445455,118.06049 L33.3239161,118.318531 C40.5855944,113.27035 54.6344056,103.695105 66.8668531,95.383007 C72.9830769,91.2272727 78.6455245,87.3868531 82.7786014,84.5848951 C84.8454545,83.1845455 86.5296503,82.0434965 87.6977622,81.253007 C88.8652448,80.4618881 89.5141259,80.0225874 89.516014,80.0213287 L89.3397902,79.7607692 L89.1635664,80.0213287 L145.22035,117.945315 L145.22035,122.35972 C145.220979,123.286783 144.908811,124.120699 144.417273,124.713566 C143.924476,125.307063 143.266154,125.656993 142.546154,125.657622 L142.546154,126.286993 C143.476993,126.286993 144.313427,125.828182 144.902517,125.114476 C145.492867,124.40014 145.84972,123.427762 145.84972,122.35972 L145.84972,117.611119 L89.3397902,79.3806294 L89.1635664,79.5002098 C89.1629371,79.5008392 47.4967133,107.698531 32.9645455,117.801818 L32.8298601,117.895594 L32.8298601,122.35972 C32.8298601,123.427762 33.1867133,124.40014 33.7776923,125.114476 C34.3661538,125.828182 35.2025874,126.286993 36.1334266,126.286993 L142.546154,126.286993 L142.546154,125.972308" id="Fill-74" fill="#E2E2E2"></path>
                    <path d="M142.546154,49.933007 L36.1334266,49.933007 C34.4825874,49.933007 33.1445455,51.6020979 33.1445455,53.6613986 L33.1445455,58.0984615 C47.6723077,68.5227273 89.3397902,97.6267133 89.3397902,97.6267133 L145.535035,58.3898601 L145.535035,53.6613986 C145.535035,51.6020979 144.196993,49.933007 142.546154,49.933007" id="Fill-75" fill="#E5E5E5"></path>
                    <path d="M142.546154,48.4074126 L36.1334266,48.4074126 C34.4825874,48.4074126 33.1445455,50.0771329 33.1445455,52.1364336 L33.1445455,56.5734965 C47.6723077,66.9977622 89.3397902,96.1011189 89.3397902,96.1011189 L145.535035,56.8648951 L145.535035,52.1364336 C145.535035,50.0771329 144.196993,48.4074126 142.546154,48.4074126" id="Fill-76" fill="#FCFCFC"></path>
                    <path d="M142.546154,48.4074126 L142.546154,48.0927273 L36.1334266,48.0927273 C35.1988112,48.0927273 34.3617483,48.5679021 33.7745455,49.303007 C33.1848252,50.0387413 32.8298601,51.0381818 32.8298601,52.1364336 L32.8298601,56.7346154 L32.9607692,56.829021 C47.4929371,67.2564336 89.1591608,96.3585315 89.1597902,96.3591608 L89.3397902,96.485035 L145.84972,57.0285315 L145.84972,52.1364336 C145.84972,51.0381818 145.494755,50.0387413 144.905035,49.303007 C144.317832,48.5679021 143.480769,48.0927273 142.546154,48.0927273 L142.546154,48.7220979 C143.262378,48.7227273 143.919441,49.0820979 144.414126,49.6963636 C144.906923,50.31 145.220979,51.1747552 145.22035,52.1364336 L145.22035,56.7006294 L89.1597902,95.8437063 L89.3397902,96.1011189 L89.5197902,95.8437063 C89.5179021,95.8418182 88.869021,95.3886713 87.7015385,94.5723776 C79.5279021,88.8602098 46.0359441,65.4362937 33.3276923,56.3173427 L33.1445455,56.5734965 L33.4592308,56.5734965 L33.4592308,52.1364336 C33.4586014,51.1747552 33.7726573,50.31 34.2654545,49.6963636 C34.7601399,49.0820979 35.4178322,48.7227273 36.1334266,48.7220979 L142.546154,48.7220979 L142.546154,48.4074126" id="Fill-77" fill="#E2E2E2"></path>
                    <path d="M78.7921678,132.165944 L102.706993,132.165944 C104.480559,132.165944 105.417063,133.944545 104.231329,135.061678 L92.1002098,146.494825 C91.2782517,147.27021 89.8413986,147.260769 89.032028,146.476573 L77.2483217,135.043427 C76.0909091,133.920629 77.0324476,132.165944 78.7921678,132.165944" id="Fill-78" fill="#E89605"></path>
                    <path d="M107.485175,122.637902 C107.111329,122.213077 106.626713,121.948112 106.113776,121.834196 L106.116923,121.83042 L106.087972,121.83042 C105.745594,121.758042 105.393147,121.758671 105.047622,121.828531 L94.2111189,121.81028 L94.2111189,103.245734 C94.2111189,101.978182 92.4602098,100.951049 90.3002098,100.951049 C88.1402098,100.951049 86.3893007,101.978182 86.3893007,103.245734 L86.3893007,121.797692 L76.055035,121.78007 C75.9499301,121.775664 75.8460839,121.771888 75.740979,121.779441 L75.7063636,121.779441 L75.7113986,121.783846 C75.0920979,121.83986 74.4897902,122.111748 74.0391608,122.60958 C73.0894406,123.66 73.17,125.281259 74.2197902,126.231608 L90.500979,140.964545 L107.25042,126.256783 C108.314685,125.322797 108.41979,123.702168 107.485175,122.637902" id="Fill-79" fill="#FFB931"></path>
                </g>
            </g>
        </g>
    </g>
</svg>