<svg width="180" height="180" viewBox="0 0 180 180" xmlns="http://www.w3.org/2000/svg"><title>Imported Layers</title><g fill="none" fill-rule="evenodd"><path d="M179.627 90.018c0 49.5-40.127 89.628-89.627 89.628-49.5 0-89.627-40.128-89.627-89.628S40.5.39 90 .39c49.5 0 89.627 40.128 89.627 89.628" fill="#FFB931"/><path d="M173.166 90.06c0 45.93-37.235 83.166-83.166 83.166-45.93 0-83.166-37.235-83.166-83.166C6.834 44.128 44.07 6.893 90 6.893c45.93 0 83.166 37.235 83.166 83.167" fill="#BDE8EF"/><path d="M126.568 47.178c-21.636-.97-27.79 19.77-27.79 19.77S92.62 46.21 70.984 47.18C46.105 48.293 30.28 73.3 40.725 98.665c10.48 25.45 58.052 50.927 58.052 50.927s47.572-25.477 58.05-50.927c10.446-25.365-5.38-50.372-30.26-51.487" fill="#D6D6D6"/><path d="M125.676 44.16c-21.635-.97-27.792 19.77-27.792 19.77s-6.156-20.74-27.792-19.77c-24.877 1.116-40.704 26.12-30.26 51.487 10.48 25.45 58.052 50.926 58.052 50.926s47.573-25.476 58.053-50.926c10.444-25.366-5.383-50.37-30.26-51.487z" fill="#FCFCFC"/><path d="M125.676 44.16c-21.635-.97-27.792 19.77-27.792 19.77s-6.156-20.74-27.792-19.77c-24.877 1.116-40.704 26.12-30.26 51.487 10.48 25.45 58.052 50.926 58.052 50.926s47.573-25.476 58.053-50.926c10.444-25.366-5.383-50.37-30.26-51.487z" stroke="#E2E2E2"/><path d="M71.74 130.103c-6.578 0-12.567-1.4-17.59-3.232-14.147-5.162-23.532-14.54-23.924-14.936-.612-.618-.607-1.613.01-2.225.618-.61 1.614-.607 2.226.01.092.093 9.35 9.327 22.864 14.23 17.908 6.498 34.495 2.69 49.3-11.318.63-.598 1.626-.57 2.223.06.596.632.568 1.63-.063 2.225-12.152 11.5-24.375 15.186-35.048 15.186M24.557 114.433c-.654 0-1.263-.41-1.488-1.062-2.035-5.91 1.596-10.278 5.672-12.396.83-.43 5.043-2.473 6.55-.392.51.705.352 1.688-.35 2.198-.55.398-1.272.39-1.804.03h-.004c-.94 0-4.002.995-5.966 3.304-1.544 1.815-1.922 3.912-1.123 6.233.282.82-.155 1.717-.976 2-.17.058-.343.086-.513.086M112.47 118.21c-.17 0-.343-.03-.513-.087-.82-.283-1.258-1.178-.975-2 .798-2.32.42-4.418-1.123-6.233-1.965-2.31-5.026-3.302-5.967-3.302h-.005c-.532.358-1.252.366-1.802-.032-.703-.51-.86-1.493-.35-2.198 1.507-2.08 5.718-.04 6.547.39 4.077 2.12 7.708 6.488 5.674 12.4-.224.65-.835 1.06-1.487 1.06" fill="#FFB931"/></g></svg>