<svg width="180" height="180" viewBox="0 0 180 180" xmlns="http://www.w3.org/2000/svg"><title>Imported Layers</title><g fill="none" fill-rule="evenodd"><path d="M179.682 89.945c0 49.674-40.128 89.942-89.628 89.942S.426 139.62.426 89.945C.426 40.27 40.554.003 90.054.003s89.628 40.268 89.628 89.942" fill="#FFB931"/><path d="M173.22 89.987c0 46.092-37.234 83.458-83.166 83.458-45.93 0-83.166-37.366-83.166-83.458 0-46.093 37.235-83.458 83.166-83.458 45.932 0 83.166 37.364 83.166 83.457" fill="#BDE8EF"/><path d="M36.685 107.427c-6.08 0-13.692-3.537-13.692-11.586V83.743c0-8.05 7.613-11.586 13.692-11.586 6.335 0 12.62 3.23 13.283 9.74 0 1.232-.41 1.488-1.584 1.488H43.48c-1.073 0-1.124-.975-1.533-1.59-1.073-1.69-2.503-2.46-5.262-2.46-3.372 0-5.67 1.896-5.67 5.126v10.663c0 3.282 2.298 5.128 5.67 5.128 2.76 0 4.955-1.025 5.365-3.486.152-1.025.255-1.845 1.378-1.845h5.007c1.124 0 1.533.51 1.533 1.742 0 6.613-6.948 10.765-13.283 10.765M83.79 74.41v30.762c0 1.18-.56 1.487-1.482 1.487H77.25c-.92 0-1.48-.308-1.48-1.488v-25.07H64.376v25.07c0 1.18-.51 1.487-1.48 1.487h-5.06c-.92 0-1.48-.308-1.48-1.488v-30.76c0-1.18.56-1.487 1.48-1.487h24.47c.922 0 1.484.308 1.484 1.486M119.402 106.66h-5.364c-1.124 0-1.533-.308-1.94-1.54l-1.432-4.05H98.15l-1.43 4.05c-.41 1.232-.818 1.54-1.942 1.54h-5.365c-1.124 0-1.124-.82-.868-1.436l11.342-30.71c.408-1.076.97-1.59 2.094-1.59h4.906c1.123 0 1.634.514 2.094 1.59l11.29 30.71c.256.615.256 1.435-.868 1.435zm-11.137-12.767l-3.832-11.33-3.83 11.33h7.662zM156.444 74.36v30.812c0 1.18-.562 1.487-1.482 1.487h-4.904c-.92 0-1.48-.308-1.48-1.488v-17.38l-5.11 8.972c-.256.41-.715 1.077-1.482 1.077h-2.554c-.767 0-1.176-.666-1.43-1.076l-5.16-8.972v17.38c0 1.18-.563 1.487-1.482 1.487h-5.06c-.918 0-1.48-.308-1.48-1.488V74.36c0-.922.307-1.487 1.48-1.487h5.06c1.737 0 1.94 1.128 2.35 1.744l6.998 12.612 7.05-12.613c.36-.616.614-1.744 2.3-1.744h4.904c1.175 0 1.482.565 1.482 1.487M102.503 62.416s13.306-4.44 18.467-22.937c0 0 2.95 11.838-3.687 22.936h-14.78M76.095 62.416S62.79 57.976 57.628 39.48c0 0-2.95 11.838 3.686 22.936h14.78" fill="#D6D6D6"/><path d="M154.176 97.18c-.1-.194-.44-.102-.38.125.363 1.387.527 2.72.532 4-.64 4.048-2.435 7.265-4.984 9.854-.013.005-.026 0-.038.012-.498.448-1.013.86-1.537 1.255-3.917 2.198-8.034 3.853-12.274 5.154-3.525.74-7.162 1.125-10.704 1.497-8.434.888-16.915 1.56-25.27 3.062-10.49 1.885-22.508 5.014-29.197 13.546-.922.88-1.8 1.81-2.593 2.836-3.833-.993-7.767-1.6-11.702-1.755-1.32-.053-2.237 1.75-1.212 2.71 2.545 2.382 4.77 5.226 6.838 8.15 1.352 2.545 2.74 5.07 4.145 7.59.168.3.56.492.888.308 4.61-2.61 9.202-4.494 14.223-5.117.476.12.91.054 1.276-.13 1.2-.095 2.423-.122 3.68-.065 1.31.06 1.8-1.52.827-2.315-3.332-2.714-7.03-4.923-10.95-6.644 5.803-6.41 13.684-10.105 22.295-12.386 8.14-1.55 16.62-2.12 23.72-3.37 1.02-.178 2.064-.375 3.12-.587 7.97-.883 16.115-2.493 22.65-7.344 6.18-4.588 10.366-13.008 6.648-20.385" fill="#D6D6D6"/><path d="M36.03 106.14c-6.08 0-13.69-3.537-13.69-11.586V82.456c0-8.05 7.61-11.587 13.69-11.587 6.335 0 12.62 3.23 13.284 9.74 0 1.23-.41 1.487-1.584 1.487h-4.904c-1.074 0-1.125-.974-1.534-1.59-1.072-1.69-2.503-2.46-5.26-2.46-3.373 0-5.672 1.896-5.672 5.126v10.664c0 3.28 2.3 5.126 5.67 5.126 2.76 0 4.957-1.025 5.365-3.485.154-1.026.255-1.846 1.38-1.846h5.006c1.125 0 1.534.512 1.534 1.743 0 6.614-6.95 10.766-13.283 10.766z" fill="#FCFCFC"/><path d="M36.03 106.14c-6.08 0-13.69-3.537-13.69-11.586V82.456c0-8.05 7.61-11.587 13.69-11.587 6.335 0 12.62 3.23 13.284 9.74 0 1.23-.41 1.487-1.584 1.487h-4.904c-1.074 0-1.125-.974-1.534-1.59-1.072-1.69-2.503-2.46-5.26-2.46-3.373 0-5.672 1.896-5.672 5.126v10.664c0 3.28 2.3 5.126 5.67 5.126 2.76 0 4.957-1.025 5.365-3.485.154-1.026.255-1.846 1.38-1.846h5.006c1.125 0 1.534.512 1.534 1.743 0 6.614-6.95 10.766-13.283 10.766z" stroke="#E2E2E2"/><path d="M83.136 73.125v30.76c0 1.18-.562 1.487-1.48 1.487h-5.06c-.92 0-1.48-.308-1.48-1.487v-25.07H63.722v25.07c0 1.18-.512 1.487-1.482 1.487h-5.057c-.92 0-1.48-.308-1.48-1.487v-30.76c0-1.18.56-1.488 1.48-1.488h24.472c.92 0 1.48.31 1.48 1.488z" fill="#FCFCFC"/><path d="M83.136 73.125v30.76c0 1.18-.562 1.487-1.48 1.487h-5.06c-.92 0-1.48-.308-1.48-1.487v-25.07H63.722v25.07c0 1.18-.512 1.487-1.482 1.487h-5.057c-.92 0-1.48-.308-1.48-1.487v-30.76c0-1.18.56-1.488 1.48-1.488h24.472c.92 0 1.48.31 1.48 1.488z" stroke="#E2E2E2"/><path d="M118.748 105.372h-5.364c-1.124 0-1.534-.308-1.942-1.538l-1.43-4.05H97.494l-1.43 4.05c-.41 1.23-.818 1.538-1.94 1.538h-5.366c-1.125 0-1.125-.82-.87-1.436l11.342-30.71c.41-1.075.97-1.59 2.095-1.59h4.904c1.125 0 1.636.515 2.095 1.59l11.29 30.71c.256.616.256 1.436-.867 1.436zM107.61 92.607l-3.83-11.33-3.833 11.33h7.663z" fill="#FCFCFC"/><path d="M118.748 105.372h-5.364c-1.124 0-1.534-.308-1.942-1.538l-1.43-4.05H97.494l-1.43 4.05c-.41 1.23-.818 1.538-1.94 1.538h-5.366c-1.125 0-1.125-.82-.87-1.436l11.342-30.71c.41-1.075.97-1.59 2.095-1.59h4.904c1.125 0 1.636.515 2.095 1.59l11.29 30.71c.256.616.256 1.436-.867 1.436zM107.61 92.607l-3.83-11.33-3.833 11.33h7.663z" stroke="#E2E2E2"/><path d="M155.79 73.073v30.812c0 1.18-.563 1.487-1.482 1.487h-4.905c-.92 0-1.48-.308-1.48-1.487v-17.38l-5.11 8.973c-.256.41-.715 1.077-1.482 1.077h-2.553c-.766 0-1.175-.667-1.43-1.077l-5.16-8.973v17.38c0 1.18-.562 1.487-1.482 1.487h-5.058c-.92 0-1.48-.308-1.48-1.487V73.073c0-.922.306-1.487 1.48-1.487h5.058c1.737 0 1.94 1.128 2.35 1.743l7 12.61 7.05-12.61c.357-.616.612-1.744 2.298-1.744h4.905c1.175 0 1.48.565 1.48 1.487z" fill="#FCFCFC"/><path d="M155.79 73.073v30.812c0 1.18-.563 1.487-1.482 1.487h-4.905c-.92 0-1.48-.308-1.48-1.487v-17.38l-5.11 8.973c-.256.41-.715 1.077-1.482 1.077h-2.553c-.766 0-1.175-.667-1.43-1.077l-5.16-8.973v17.38c0 1.18-.562 1.487-1.482 1.487h-5.058c-.92 0-1.48-.308-1.48-1.487V73.073c0-.922.306-1.487 1.48-1.487h5.058c1.737 0 1.94 1.128 2.35 1.743l7 12.61 7.05-12.61c.357-.616.612-1.744 2.298-1.744h4.905c1.175 0 1.48.565 1.48 1.487z" stroke="#E2E2E2"/><path d="M103.217 60.848s13.305-4.44 18.467-22.937c0 0 2.95 11.84-3.687 22.938h-14.78z" fill="#FCFCFC"/><path d="M103.217 60.848s13.305-4.44 18.467-22.937c0 0 2.95 11.84-3.687 22.938h-14.78z" stroke="#E2E2E2"/><path d="M76.808 60.848S63.502 56.408 58.34 37.91c0 0-2.948 11.84 3.688 22.938h14.78z" fill="#FCFCFC"/><path d="M76.808 60.848S63.502 56.408 58.34 37.91c0 0-2.948 11.84 3.688 22.938h14.78z" stroke="#E2E2E2"/><path d="M154.642 95.614c-.1-.196-.44-.103-.38.124.364 1.386.527 2.718.532 4-.64 4.048-2.435 7.264-4.984 9.854-.012.006-.026.002-.037.012-.498.45-1.014.862-1.537 1.256-3.916 2.197-8.034 3.852-12.274 5.153-3.524.74-7.16 1.125-10.703 1.497-8.436.887-16.917 1.558-25.272 3.06-10.488 1.887-22.508 5.016-29.197 13.548-.92.88-1.798 1.81-2.59 2.837-3.836-.994-7.768-1.6-11.704-1.756-1.318-.053-2.237 1.75-1.21 2.71 2.544 2.38 4.768 5.225 6.837 8.15 1.35 2.544 2.74 5.07 4.145 7.59.166.3.56.492.886.307 4.61-2.61 9.203-4.494 14.223-5.117.475.12.91.055 1.276-.13 1.2-.094 2.423-.12 3.68-.065 1.31.06 1.8-1.52.826-2.314-3.332-2.714-7.032-4.923-10.95-6.643 5.802-6.41 13.683-10.105 22.294-12.387 8.142-1.55 16.622-2.12 23.722-3.368 1.02-.18 2.063-.376 3.12-.59 7.97-.883 16.114-2.493 22.648-7.344 6.18-4.587 10.366-13.008 6.648-20.384z" fill="#FCFCFC"/><path d="M154.642 95.614c-.1-.196-.44-.103-.38.124.364 1.386.527 2.718.532 4-.64 4.048-2.435 7.264-4.984 9.854-.012.006-.026.002-.037.012-.498.45-1.014.862-1.537 1.256-3.916 2.197-8.034 3.852-12.274 5.153-3.524.74-7.16 1.125-10.703 1.497-8.436.887-16.917 1.558-25.272 3.06-10.488 1.887-22.508 5.016-29.197 13.548-.92.88-1.798 1.81-2.59 2.837-3.836-.994-7.768-1.6-11.704-1.756-1.318-.053-2.237 1.75-1.21 2.71 2.544 2.38 4.768 5.225 6.837 8.15 1.35 2.544 2.74 5.07 4.145 7.59.166.3.56.492.886.307 4.61-2.61 9.203-4.494 14.223-5.117.475.12.91.055 1.276-.13 1.2-.094 2.423-.12 3.68-.065 1.31.06 1.8-1.52.826-2.314-3.332-2.714-7.032-4.923-10.95-6.643 5.802-6.41 13.683-10.105 22.294-12.387 8.142-1.55 16.622-2.12 23.722-3.368 1.02-.18 2.063-.376 3.12-.59 7.97-.883 16.114-2.493 22.648-7.344 6.18-4.587 10.366-13.008 6.648-20.384z" stroke="#E2E2E2"/><path d="M159.912 38.316c-2.674 1.87-144.537 92.913-144.537 92.913l3.105 7.464 146.17-93.262-4.738-7.116" fill="#FFB931"/></g></svg>