<?xml version="1.0" encoding="UTF-8" standalone="no"?>
<svg width="59px" height="71px" viewBox="0 0 59 71" version="1.1" xmlns="http://www.w3.org/2000/svg" xmlns:xlink="http://www.w3.org/1999/xlink" xmlns:sketch="http://www.bohemiancoding.com/sketch/ns">
    <!-- Generator: Sketch 3.3.2 (12043) - http://www.bohemiancoding.com/sketch -->
    <title>Imported Layers</title>
    <desc>Created with Sketch.</desc>
    <defs></defs>
    <g id="Page-1" stroke="none" stroke-width="1" fill="none" fill-rule="evenodd" sketch:type="MSPage">
        <g id="deliverinbox_1280" sketch:type="MSArtboardGroup" transform="translate(-40.000000, -14.000000)">
            <g id="Imported-Layers" sketch:type="MSLayerGroup" transform="translate(40.000000, 14.000000)">
                <path d="M52.9781138,33.1430125 L52.519009,29.261207 L49.3653353,27.4387556 L47.0689281,25.2232369 C47.0689281,25.2232369 46.1599042,21.1146209 45.5121407,19.5211047 C44.8643772,17.9275885 41.5669132,16.6981022 41.5669132,16.6981022 C41.5669132,16.6981022 41.9055449,23.1803491 43.4512036,25.7919451 L43.1862335,25.8804738 C42.5238084,24.0213716 37.4893772,17.5587781 37.4893772,17.5587781 C31.5717126,16.894813 25.5215629,24.1541646 25.5215629,24.1541646 L23.4018024,30.5724938 C18.7907934,34.644813 17.7309132,39.868005 17.7309132,39.868005 L19.7271976,38.9579302 C20.9139102,47.6785362 33.6473114,56.9540399 33.6473114,56.9540399 L31.3509042,58.3262344 C22.5627305,51.9079052 12.803,59.0344638 12.803,59.0344638 C12.803,59.0344638 25.5510629,68.7430499 38.2108024,70.3955262 C38.2108024,70.3955262 44.6617635,63.7643741 44.8382335,62.229818 L45.6887874,62.9001571 C45.6887874,62.9001571 45.5268024,48.7355686 44.2240329,46.5519202 C44.2240329,46.5519202 50.9881886,44.220606 51.8419222,39.868005 L52.1068922,37.9940299 C52.1068922,37.9940299 54.1662395,35.5734788 52.9781138,33.1430125" id="Fill-1" fill="#F4F2ED" sketch:type="MSShapeGroup"></path>
                <path d="M38.3727874,70.8631347 L38.1535689,70.8344514 C25.523506,69.1858703 12.6643323,59.4847207 12.5359102,59.386808 L12.0633802,59.0270274 L12.5431527,58.6766309 C12.7372874,58.534985 17.3663144,55.2036509 23.2051946,55.2036509 C26.1744491,55.2036509 28.9207754,56.0761895 31.3728084,57.7977182 L32.857524,56.9106608 C31.8061228,56.0988529 29.3403114,54.1179352 26.8169132,51.5359077 C22.5606108,47.181182 20.0631796,43.1692394 19.3846796,39.6002943 L17.1255449,40.6302369 L17.2981287,39.7798304 C17.3424671,39.5618728 18.4272545,34.4303965 23.0198922,30.3203641 L25.1288772,23.9351446 L25.1827545,23.8703416 C25.240518,23.8012893 26.6190689,22.1567805 28.720988,20.488015 C31.5752455,18.2220349 34.2641617,17.0732868 36.7128383,17.0732868 C36.9907036,17.0732868 37.2685689,17.0886908 37.5386617,17.1187905 L37.7232575,17.1396833 L37.8375479,17.2862868 C37.9788653,17.4677706 40.2925838,20.4432195 41.9650749,22.9216683 C41.3111287,20.1098204 41.1358952,16.9107481 41.126003,16.7212968 L41.0908503,16.0484788 L41.7209491,16.2834339 C42.0770689,16.4162269 45.220497,17.6303092 45.9210778,19.3541397 C46.5174371,20.8210599 47.3072246,24.2688978 47.4707994,24.9966035 L49.6327784,27.0821621 L52.931479,28.9887157 L53.4080719,33.01801 C54.5137036,35.3865062 52.9263563,37.6618703 52.5271347,38.1765761 L52.2754132,39.9533466 C51.5050569,43.8792394 46.3911347,46.1806309 44.8179192,46.8017481 C45.9493413,49.971606 46.114506,61.5160998 46.1304042,62.8951995 L46.1408263,63.819616 L45.0359012,62.9486708 C43.9387485,65.0846908 39.5008533,69.7032319 38.527,70.7044913 L38.3727874,70.8631347 L38.3727874,70.8631347 Z M13.576006,59.0525237 C16.0428772,60.8266384 27.1262216,68.4202743 38.048994,69.9272095 C40.6739641,67.2145137 44.2916886,63.1152818 44.3996198,62.1791796 L44.4900629,61.3921596 L45.2330389,61.9778653 C45.1508982,57.5489526 44.7912455,48.3648105 43.8451257,46.7790848 L43.5658473,46.3111222 L44.0804192,46.1333566 C44.1456018,46.1108703 50.6023922,43.8365686 51.406488,39.793818 L51.6877096,37.8047556 L51.7709102,37.7068429 C51.7891048,37.685419 53.624994,35.4723791 52.5815419,33.3379526 L52.548509,33.2701397 L52.1065389,29.5338753 L49.0978922,27.794995 L46.6667036,25.4495162 L46.6379102,25.3190249 C46.6287246,25.2784788 45.7292395,21.2288229 45.1030269,19.6880698 C44.7237665,18.7544464 43.1185778,17.8619002 42.0572844,17.3818978 C42.1947156,19.114581 42.6525838,23.5748329 43.8311707,25.566197 L44.1106257,26.038409 L42.9157874,26.4373192 L42.7704072,26.0293791 C42.2766796,24.6435511 39.0157814,20.2466858 37.2577934,17.9808828 C37.0781437,17.96601 36.8956677,17.9585736 36.7128383,17.9585736 C31.6088084,17.9585736 26.4881737,23.7106359 25.9135419,24.3758404 L23.7837126,30.8255087 L23.6937994,30.9046534 C20.3648922,33.8445137 18.9241617,37.4393092 18.4076467,39.0733716 L20.0845539,38.3086608 L20.1647515,38.8980848 C21.3122485,47.3300873 33.7812096,56.5043142 33.906982,56.5960299 L34.4485808,56.9905137 L31.3267036,58.8561671 L31.0908802,58.6838903 C28.7331766,56.9620075 26.0801198,56.0889377 23.2051946,56.0889377 C18.7332066,56.0889377 14.9167545,58.2091995 13.576006,59.0525237 L13.576006,59.0525237 Z" id="Fill-2" fill="#191919" sketch:type="MSShapeGroup"></path>
                <path d="M26.1829281,0.927072319 C25.8810389,2.11955362 25.0288952,6.81299002 27.0967216,16.3735561 L34.0747964,15.1341546 C34.0747964,15.1341546 30.9748234,3.82302244 26.5454072,0.790738155 C26.4093892,0.697605985 26.2233802,0.767189526 26.1829281,0.927072319" id="Fill-3" fill="#E5C1BD" sketch:type="MSShapeGroup"></path>
                <path d="M26.7550868,16.8836584 L26.664997,16.4672195 C24.5823323,6.83706983 25.4417186,2.05475062 25.7549132,0.818182045 C25.8312246,0.516830424 26.1013174,0.306309227 26.4116856,0.306309227 C26.5482335,0.306309227 26.6807186,0.347386534 26.794479,0.425114713 C28.7033234,1.73197506 30.5821377,4.59322195 32.378988,8.92988778 C33.7029551,12.1252419 34.4927425,14.9882594 34.5006916,15.0169426 L34.6289371,15.4852594 L26.7550868,16.8836584 L26.7550868,16.8836584 Z M26.5416976,1.33412718 C26.2143713,2.86514214 25.6468054,7.34894264 27.4392395,15.8630998 L33.5135898,14.7842893 C32.8887904,12.6833267 30.1626018,4.10737656 26.5416976,1.33412718 L26.5416976,1.33412718 Z" id="Fill-4" fill="#191919" sketch:type="MSShapeGroup"></path>
                <path d="M36.7700719,41.4960474 C36.7700719,41.4960474 48.7357665,34.4401347 52.7728503,33.9638504 C52.7728503,33.9638504 58.6647246,44.569409 58.3736108,48.5951621 C58.3736108,48.5951621 45.1713892,56.1707382 43.352988,56.0407781 C43.352988,56.0407781 37.6428832,44.569409 36.7700719,41.4960474" id="Fill-5" fill="#FFBB00" sketch:type="MSShapeGroup"></path>
                <path d="M43.4017425,56.485015 C43.373479,56.485015 43.346982,56.4841297 43.3215449,56.4823591 L43.0701766,56.4642993 L42.9576527,56.2383741 C42.7237725,55.7684638 37.2194611,44.6949426 36.3454132,41.6173317 L36.2517904,41.288005 L36.5460838,41.1146658 C37.0380449,40.8244688 48.6386108,34.005813 52.7212695,33.524394 L53.0148563,33.4895137 L53.1586467,33.7485486 C53.4017126,34.1862344 59.1112874,44.517 58.8141677,48.6273865 L58.7972096,48.8623416 L58.5931826,48.9795536 C58.560503,48.9981446 55.3026078,50.8659227 51.8428054,52.7096209 C44.7582126,56.485015 43.7371946,56.485015 43.4017425,56.485015 L43.4017425,56.485015 Z M37.2955958,41.701611 C38.3155539,44.8105611 42.7771198,53.8806783 43.6131886,55.5708678 C44.7999012,55.3128953 49.2881407,53.2896608 57.9424162,48.332586 C57.9586677,46.7093242 57.0429311,43.8234663 55.2805269,39.9537007 C54.1280838,37.4226658 52.9401347,35.1959925 52.533494,34.4470399 C48.7537844,35.1209202 39.1238892,40.6396209 37.2955958,41.701611 L37.2955958,41.701611 Z" id="Fill-6" fill="#000000" sketch:type="MSShapeGroup"></path>
                <path d="M52.9947186,34.3707282 C52.9947186,34.3707282 50.7311677,44.0339875 50.1982246,44.4228055 C49.6651048,44.8116234 36.9414192,42.0327082 36.9414192,42.0327082" id="Fill-7" fill="#FFBB00" sketch:type="MSShapeGroup"></path>
                <path d="M49.949506,44.8985586 C49.288494,44.8985586 47.6677605,44.6800698 43.2839192,43.8077082 C40.069479,43.1681771 36.8792395,42.4721646 36.8472665,42.4650823 L37.0353952,41.6001571 C42.5548982,42.8057406 48.7476018,44.0212394 49.9134701,44.0212394 C49.9223024,44.0212394 49.9309581,44.0212394 49.9392605,44.0210623 C50.3852934,43.1203716 51.7191527,37.880005 52.5649371,34.2696284 L53.4246766,34.4718279 C53.419024,34.4960848 52.8505749,36.9205312 52.224009,39.3612668 C50.9192964,44.4442294 50.6527365,44.6386384 50.4578952,44.7808155 C50.3791108,44.8383591 50.2964401,44.8985586 49.949506,44.8985586" id="Fill-8" fill="#E2A100" sketch:type="MSShapeGroup"></path>
                <path d="M58.1121737,48.6284489 C57.9731527,48.0928504 54.7558862,43.3087606 50.8876766,42.7237631 L50.9666377,42.1984339 C55.1916737,42.8374339 58.6543024,48.0337132 58.6385808,48.6025985 L58.108994,48.5880798 C58.1082874,48.6128678 58.111997,48.6277406 58.1121737,48.6284489" id="Fill-9" fill="#E2A100" sketch:type="MSShapeGroup"></path>
                <path d="M43.6093024,56.1078828 L43.096497,55.9734963 C43.1987754,55.5816683 45.6221916,46.3497207 47.3644581,44.0010549 L47.7898234,44.3181646 C46.1081467,46.5846758 43.6340329,56.01298 43.6093024,56.1078828" id="Fill-10" fill="#E2A100" sketch:type="MSShapeGroup"></path>
                <path d="M43.2743802,56.5009501 C43.2461168,56.5009501 43.2197964,56.4998878 43.1941826,56.4981172 L42.9428144,56.4802344 L42.8304671,56.2541322 C42.5965868,55.7842219 37.0920988,44.7107007 36.2180509,41.6330898 L36.1246048,41.3039401 L36.4188982,41.1304239 C36.9106826,40.840404 48.5114251,34.0215711 52.5939072,33.5401521 L52.887494,33.5054489 L53.0314611,33.7644838 C53.2745269,34.2019925 58.9839251,44.5327581 58.686982,48.6431446 L58.670024,48.8780998 L58.465997,48.9953117 C58.4333174,49.0140798 55.1754222,50.8816808 51.7156198,52.7253791 C44.6308503,56.5009501 43.610009,56.5009501 43.2743802,56.5009501 L43.2743802,56.5009501 Z M37.1682335,41.7175461 C38.1881916,44.8263192 42.6497575,53.8966135 43.486003,55.586803 C44.6727156,55.3288304 49.1609551,53.305596 57.8152305,48.3485212 C57.831482,46.7250823 56.9155689,43.8392244 55.1533413,39.9696359 C54.0007216,37.438601 52.8127725,35.2117506 52.4063084,34.462798 C48.6264222,35.1368554 38.9967036,40.6555561 37.1682335,41.7175461 L37.1682335,41.7175461 Z" id="Fill-11" fill="#000000" sketch:type="MSShapeGroup"></path>
                <path d="M51.8717754,33.4895137 C51.8717754,33.4895137 50.2215419,37.241182 49.338485,38.3035262 C48.4550749,39.3658703 45.824982,40.2210574 45.824982,40.2210574 C45.824982,40.2210574 42.4943084,39.5385012 41.2136198,39.2729152 C39.9329311,39.0073292 36.8857754,36.6613192 36.8857754,36.6613192" id="Fill-12" fill="#F4F2ED" sketch:type="MSShapeGroup"></path>
                <path d="M45.8505958,40.6778653 L45.736482,40.6544938 C45.736482,40.6544938 42.4052784,39.9721147 41.1242365,39.7065287 C39.7831347,39.4283716 36.937003,37.2590648 36.6169192,37.0124239 L37.1548084,36.3103915 C37.9802784,36.9456733 40.3346257,38.6388728 41.3031796,38.8394788 C42.441491,39.0754963 45.1992994,39.6408404 45.7976018,39.7635411 C46.5716677,39.4991945 48.3743473,38.7718429 48.9991467,38.0200574 C49.8421048,37.0062269 51.1872695,34.4452693 51.2006946,34.419596 L51.9827096,34.8310773 C51.9258293,34.9394364 50.580488,37.5011022 49.6778234,38.586995 C48.7237545,39.7343267 46.073524,40.6054489 45.9613533,40.6419227 L45.8505958,40.6778653" id="Fill-13" fill="#191919" sketch:type="MSShapeGroup"></path>
                <path d="M42.9659551,26.0378778 C43.0984401,25.9936135 50.5758952,27.8801596 51.8565838,28.6409751" id="Fill-14" fill="#FFFFFF" sketch:type="MSShapeGroup"></path>
                <path d="M51.7216257,28.8695561 C50.5207814,28.156192 43.458976,26.3479052 42.9622455,26.3024015 C42.9666617,26.3031097 43.0030509,26.3055885 43.0498623,26.2898304 L42.8822246,25.7861022 C43.1123952,25.7064264 46.3953743,26.6016284 47.0507335,26.7815187 C48.9113533,27.291798 51.2787725,27.9890499 51.9917186,28.4127481 L51.7216257,28.8695561" id="Fill-15" fill="#191919" sketch:type="MSShapeGroup"></path>
                <path d="M43.2961078,25.7722918 L43.0311377,25.8608204 C42.3687126,24.0017182 37.3342814,17.5391247 37.3342814,17.5391247 C31.4166168,16.8751596 25.3664671,24.1345112 25.3664671,24.1345112 L23.2467066,30.5528404 C18.6356976,34.6251596 17.5758174,39.8483516 17.5758174,39.8483516 L19.5721018,38.9382768 C20.7588144,47.6590599 33.4922156,56.9343865 33.4922156,56.9343865 L31.1958084,58.306581 C22.4076347,51.8882519 12.6479042,59.0148105 12.6479042,59.0148105 C1.82829341,49.3209202 0.591766467,40.1139377 0.591766467,40.1139377 C2.71152695,39.1843865 6.55359281,31.8807706 6.55359281,31.8807706 L5.27290419,32.5004713 C6.55359281,30.2220973 10.9255988,21.9655586 10.9255988,21.9655586 C11.1022455,17.18501 13.7961078,5.6762818 15.8717066,3.33027182 C17.9473054,0.984261845 18.4330838,1.47116958 18.4330838,1.47116958 C15.2534431,4.08276559 15.6215749,13.363581 16.0336916,15.9604813 C16.7687186,20.5908853 18.4269012,23.3156209 18.5655689,22.540995 C18.5657455,22.540995 20.0229042,19.3982269 20.597006,18.6457332 C21.1711078,17.8932394 21.5685629,16.2997232 21.5685629,16.2997232 L21.5685629,17.8047107 C21.5685629,17.8047107 23.1732216,15.1886883 24.0416168,14.4848853 L23.6441617,16.2997232 C23.6441617,16.2997232 30.7416497,14.4657631 35.6469521,15.221798 C37.4284341,15.496414 40.7133563,16.2030499 41.3971557,16.6981022 C41.3971557,16.6981022 41.7504491,23.1606958 43.2961078,25.7722918" id="Fill-16" fill="#484349" sketch:type="MSShapeGroup"></path>
                <path d="M12.6196407,59.5828105 L12.3537874,59.3450224 C1.53682635,49.653611 0.205616766,40.5556958 0.154212575,40.1732519 L0.109697605,39.8421546 L0.414943114,39.7086534 C1.77317964,39.1128554 4.15013772,35.2822195 5.50378144,32.8804364 L4.1973024,33.5125312 L4.88834431,32.2832219 C6.08035629,30.162606 10.0116287,22.7470898 10.4885749,21.8471072 C10.6996677,16.9709476 13.3467186,5.51746135 15.5415539,3.03653367 C16.7618293,1.65725686 17.6576048,0.986740648 18.2799311,0.986740648 C18.5456078,0.986740648 18.693991,1.10678554 18.7453952,1.15830923 L19.0902096,1.50392519 L18.7132455,1.8135985 C15.8918443,4.13092519 15.9642695,12.7056359 16.4696557,15.8908978 C16.9626766,18.997015 17.8609251,21.1413566 18.3585389,21.9428953 C18.7796647,21.0533591 19.7733024,18.997015 20.2461856,18.3769601 C20.6717275,17.8194065 21.0357964,16.61099 21.1401946,16.1924264 L22.0103563,12.7042195 L22.0103563,16.3089302 C22.5540749,15.5073915 23.255009,14.5532294 23.7641048,14.1406858 L24.7429042,13.3476459 L24.2269192,15.7044564 C25.7386617,15.3577781 29.4602545,14.5962544 32.9857695,14.5962544 C33.987003,14.5962544 34.9050359,14.6596409 35.7140778,14.7844663 C37.2240539,15.0171197 40.8166946,15.7319002 41.6559431,16.339384 L41.8265838,16.4629701 L41.8382425,16.6740224 C41.8415988,16.737409 42.2035479,23.0585337 43.6760749,25.5465436 L43.9555299,26.0187556 L42.7606916,26.4178429 L42.6153114,26.0097257 C42.1214072,24.6235436 38.8606856,20.2268554 37.1026976,17.9612294 C36.9232246,17.9463566 36.7405719,17.9389202 36.5577425,17.9389202 C31.4593653,17.9389202 26.3337844,23.6913367 25.7584461,24.3565411 L23.6284401,30.8058554 L23.5387036,30.8851771 C20.2018473,33.8319426 18.7651796,37.4223117 18.2511377,39.0542494 L19.9294581,38.2890075 L20.0096557,38.8784314 C21.157506,47.3145062 33.6261138,56.4846608 33.7518862,56.5763766 L34.2936617,56.9710374 L31.1716078,58.8366908 L30.9357844,58.664414 C28.5780808,56.9425312 25.925024,56.0694613 23.0500988,56.0694613 C17.5065719,56.0694613 12.9531497,59.3398878 12.9077515,59.3728204 L12.6196407,59.5828105 L12.6196407,59.5828105 Z M1.08160778,40.3506633 C1.22327844,41.0732344 1.69421856,43.0700873 2.98161976,45.7818978 C4.45750299,48.8908479 7.33419461,53.5924289 12.6846467,58.4524763 C13.8137725,57.7008678 17.9750389,55.1841746 23.0500988,55.1841746 C26.0193533,55.1841746 28.7656796,56.0567132 31.2178892,57.7782419 L32.7001317,56.8924239 C30.2873144,55.043414 20.6955749,47.2743142 19.2297605,39.5806409 L16.9704491,40.6107606 L17.1430329,39.7603541 C17.1873713,39.5423965 18.2723353,34.4109202 22.8649731,30.3008878 L24.9737814,23.9154913 L25.0276587,23.8508653 C25.2588892,23.5734165 30.7591377,17.0536334 36.5577425,17.0536334 C36.8356078,17.0536334 37.1134731,17.0690374 37.3835659,17.0993142 L37.5681617,17.1200299 L37.6824521,17.2668105 C37.8235928,17.4481172 40.132012,20.4166608 41.8041497,22.8933392 C41.2388802,20.4763292 41.0256677,17.7792145 40.9712605,16.9615636 C40.1546228,16.5692045 37.5033323,15.9558778 35.5798263,15.6593067 C34.8149461,15.5413865 33.9423114,15.4817182 32.9857695,15.4817182 C28.6293084,15.4817182 23.8027904,16.715985 23.7545659,16.7285561 L23.0589311,16.9082693 L23.2346946,16.1054913 C22.7109371,16.8259377 22.1923024,17.6333192 21.9448204,18.0366559 L21.1271228,19.3700748 L21.1271228,18.6498055 C21.0695359,18.7445312 21.0098293,18.833591 20.948003,18.9146833 C20.5081527,19.4913591 19.4014611,21.7915112 18.9856347,22.6858279 C18.9015509,23.0006359 18.6568952,23.1144838 18.4631138,23.1144838 C18.278518,23.1144838 17.7877934,23.1144838 16.9335299,21.0229052 C16.3603114,19.6195486 15.8858383,17.8463192 15.5975509,16.0298878 C15.3940539,14.7476384 15.1859641,11.7330599 15.4463413,8.683601 C15.6498383,6.30430424 16.0822695,4.41864339 16.7372754,3.04450125 C16.5744072,3.21252868 16.396524,3.40463591 16.2022126,3.62418703 C14.2059281,5.88042893 11.5355599,17.4204963 11.3670389,21.9820249 L11.3631527,22.0836559 L11.3158114,22.1730698 C11.278009,22.244601 8.03212575,28.3729102 6.33013473,31.4976185 L7.57037126,30.897394 L6.94433533,32.0873965 C6.56207186,32.8136858 3.29022156,38.9492544 1.08160778,40.3506633 L1.08160778,40.3506633 Z" id="Fill-17" fill="#191919" sketch:type="MSShapeGroup"></path>
                <path d="M17.0423443,3.45899252 C16.7280898,4.45316958 16.0849192,6.94295012 15.8079371,9.96726683 C15.6904671,12.492813 15.8586347,14.8446658 16.0358114,15.9610125 C16.4982725,18.8744913 17.3260389,21.0324663 17.9110928,22.0400998 C17.9361766,22.0806459 17.9623204,22.1249102 17.988994,22.170414 C18.2945928,22.661394 18.5203473,22.8067581 18.5678653,22.5415262 C18.5678653,22.5415262 19.5867635,19.8761047 20.0819042,19.0692544 C20.5745719,18.2657681 21.3846737,16.5240549 21.3846737,16.5240549 L21.5706826,17.8052419 C21.5706826,17.8052419 23.7178234,15.0854638 24.0416168,14.4848853 L23.6462814,16.3002544 C23.6462814,16.3002544 25.5040749,15.9362244 27.473509,15.5307631 C26.6747126,13.0257556 23.7178234,4.70954863 18.7443353,1.42991521 C18.7443353,1.42991521 18.6058443,1.41805237 18.3975778,1.50640399 C17.8423772,1.97613716 17.3972275,2.65143392 17.0423443,3.45899252" id="Fill-18" fill="#E5C1BD" sketch:type="MSShapeGroup"></path>
                <path d="M18.4652335,23.115015 L18.4652335,23.115015 C18.1787126,23.115015 17.9243413,22.9025461 17.6143263,22.4046608 C17.5835898,22.352783 17.5593892,22.3115287 17.5358952,22.2736384 C16.9035,21.1847357 16.0679611,18.981611 15.5998473,16.030419 C15.4076557,14.8198778 15.2527365,12.3998579 15.3666737,9.94672818 L15.3680868,9.9267207 C15.6192784,7.18658105 16.2000928,4.65802494 16.6212186,3.32531421 L16.6381766,3.2805187 C17.0396946,2.36690274 17.5358952,1.65637157 18.1124701,1.16822444 L18.1636976,1.12502244 L18.2253473,1.09881796 C18.5489641,0.961421446 18.7816078,0.988865337 18.7816078,0.988688279 L18.8872425,1.00037406 L18.9870479,1.05986534 C24.0808323,4.41899751 27.092482,12.8821621 27.8941048,15.3960224 L28.0439012,15.8650474 L27.5623623,15.9643766 C25.6134192,16.3655885 23.7496198,16.7310349 23.7310719,16.7347531 L23.0714731,16.864005 L23.1541437,16.484394 C22.5876377,17.2290973 22.0296108,17.9375037 21.9170868,18.0798579 L21.2813353,18.8852918 L21.154503,18.0122219 C20.9220359,18.4746958 20.6648383,18.9637282 20.457985,19.3010224 C20.0179581,20.0184589 19.1076976,22.3685411 18.9921707,22.6684763 C18.9126796,22.9969177 18.6627246,23.115015 18.4652335,23.115015 L18.4652335,23.115015 Z M16.248494,9.99789776 C16.1382665,12.3851621 16.287003,14.7256833 16.4719521,15.8914289 C16.9216946,18.7252319 17.7339162,20.8548778 18.2928263,21.8173616 C18.3067814,21.8396708 18.3240928,21.8690623 18.3431707,21.9009327 C18.6651976,21.0836359 19.3225,19.4619676 19.7056467,18.8373092 C20.1795898,18.0644539 20.9762665,16.3540798 20.9843922,16.3370823 L21.6086617,14.9941022 L21.8591467,16.718818 C22.6300329,15.7241097 23.4797036,14.5962544 23.6531707,14.2743641 L25.1392994,11.520414 L24.2212665,15.7356185 C24.8430629,15.6123865 25.8358174,15.4142594 26.8999371,15.1966559 C25.9460449,12.3347007 23.1343593,4.96451122 18.6360509,1.88973317 C18.6330479,1.89061845 18.6302216,1.8916808 18.6270419,1.89256608 C18.181009,2.28882045 17.7874401,2.867798 17.4560509,3.61551122 C17.336991,3.99671571 16.5641617,6.56599501 16.248494,9.99789776 L16.248494,9.99789776 Z" id="Fill-19" fill="#191919" sketch:type="MSShapeGroup"></path>
                <path d="M26.2723114,0.615451372 C26.3616946,0.451673317 23.6211976,3.6126783 23.4157575,6.3044813 C23.4157575,6.3044813 24.4876497,9.15492768 26.2251467,11.7174788 C26.2251467,11.7174788 25.2825599,2.42674813 26.2723114,0.615451372" id="Fill-20" fill="#484349" sketch:type="MSShapeGroup"></path>
                <path d="M26.8407605,13.4133342 L25.8598413,11.9662444 C24.112982,9.38988279 23.0472725,6.5789202 23.0025808,6.46046883 L22.9679581,6.36857606 L22.9755539,6.27066334 C23.0863114,4.81613716 23.8808683,3.27485287 24.5279251,2.23800499 C24.9008263,1.64008229 25.2551796,1.15795511 25.4865868,0.858905237 C25.9621198,0.244339152 26.0504431,0.166610973 26.2737246,0.166610973 L26.5254461,0.166610973 L26.7824671,0.601286783 L26.6593443,0.828274314 C25.9819042,2.06820698 26.2912126,7.99290025 26.6642904,11.6726833 L26.8407605,13.4133342 L26.8407605,13.4133342 Z M23.8649701,6.24038653 C24.0174162,6.62849626 24.6496347,8.18553865 25.6197784,9.89821446 C25.4581467,7.84842145 25.2686048,4.62402993 25.4521407,2.42444638 C24.7637485,3.479 23.9965719,4.92768329 23.8649701,6.24038653 L23.8649701,6.24038653 Z" id="Fill-21" fill="#191919" sketch:type="MSShapeGroup"></path>
                <path d="M32.6907695,30.3950823 C31.645021,30.0140549 31.8158383,28.7663317 32.6907695,27.6386534 C33.5658772,26.5109751 35.5658713,24.4417057 37.3160868,24.9438404 C39.0659491,25.4459751 40.0661228,26.6363317 39.6285689,28.3904389 C39.191015,30.1445461 36.816,31.8986534 32.6907695,30.3950823" id="Fill-22" fill="#757474" sketch:type="MSShapeGroup"></path>
                <path d="M35.6096796,31.2304389 C34.6789281,31.2304389 33.6665659,31.0333741 32.6003263,30.6447332 C32.1677186,30.4871521 31.8773114,30.1893416 31.7607246,29.7837032 C31.5768353,29.1443491 31.8396856,28.3029726 32.4817964,27.4755835 C33.005024,26.8011721 34.8598144,24.6010574 36.757,24.6010574 C36.9740988,24.6010574 37.1866048,24.6304489 37.3888653,24.6885237 C39.3966317,25.2644913 40.3302096,26.6726284 39.8855898,28.4547107 C39.5411287,29.8364663 38.0853832,31.2304389 35.6096796,31.2304389 L35.6096796,31.2304389 Z M36.757,25.1322294 C35.4404521,25.1322294 33.9013293,26.5111521 32.8999192,27.8017232 C32.378988,28.4731247 32.1376886,29.1762195 32.269997,29.6367456 C32.3395958,29.8789601 32.5068802,30.045394 32.7813892,30.1454314 C33.7893353,30.5128254 34.7409311,30.6992668 35.6096796,30.6992668 C37.7993922,30.6992668 39.0769012,29.5071397 39.3715479,28.325813 C39.5902365,27.4490249 39.6045449,25.8765786 37.2429551,25.1991571 C37.0882126,25.1547157 36.9246377,25.1322294 36.757,25.1322294 L36.757,25.1322294 Z" id="Fill-23" fill="#191919" sketch:type="MSShapeGroup"></path>
                <path d="M33.6178114,29.6675536 C32.8788982,29.3982494 32.9995479,28.5166808 33.6178114,27.7199227 C34.2360749,26.9231646 35.6492485,25.4610249 36.8857754,25.8158479 C38.1223024,26.1706708 38.8288892,27.0116933 38.5197575,28.2510948 C38.2106257,29.4904963 36.532482,30.7298978 33.6178114,29.6675536" id="Fill-24" fill="#FFFFFF" sketch:type="MSShapeGroup"></path>
                <path d="M35.6801617,30.3357681 C35.013497,30.3357681 34.2890689,30.1948304 33.5273683,29.9173815 C33.1973922,29.7969825 32.975524,29.5687556 32.8859641,29.2571347 C32.7492395,28.7812045 32.9398413,28.1615037 33.4088383,27.5570299 C33.7840359,27.0734863 35.1150689,25.4959052 36.4907934,25.4959052 C36.6513653,25.4959052 36.8089341,25.5176833 36.9589072,25.5605312 C38.4227784,25.9806883 39.1023383,27.0106309 38.7769551,28.3157207 C38.5261168,29.3212294 37.4713593,30.3357681 35.6801617,30.3357681 L35.6801617,30.3357681 Z M36.4907934,26.0270773 C35.5888353,26.0270773 34.523479,26.9858429 33.8269611,27.8831696 C33.4738443,28.338207 33.308503,28.8082943 33.3952365,29.1101771 C33.4371018,29.2557182 33.5395569,29.3564638 33.7084311,29.4180798 C34.4121916,29.6746359 35.0755,29.804596 35.6801617,29.804596 C37.1855449,29.804596 38.0620659,28.9920798 38.2627365,28.1866459 C38.607021,26.8068379 37.5022725,26.2689377 36.812997,26.0713416 C36.7105419,26.0419501 36.6020808,26.0270773 36.4907934,26.0270773 L36.4907934,26.0270773 Z" id="Fill-25" fill="#191919" sketch:type="MSShapeGroup"></path>
                <path d="M31.4750868,24.9714613 C32.1797305,25.4284464 33.9168743,25.2906958 34.6600269,24.3329925 C35.4031796,23.3752893 36.4648263,21.3534713 35.297015,20.8745312 C34.1292036,20.3957681 32.0589042,21.8855287 31.4750868,22.6835262 C30.8910928,23.4817007 30.5725988,24.3861097 31.4750868,24.9714613" id="Fill-26" fill="#8E8E8E" sketch:type="MSShapeGroup"></path>
                <path d="M32.5420329,25.4888229 L32.5418563,25.4888229 C32.0537814,25.4888229 31.6238234,25.384182 31.3311198,25.1945536 C30.9591018,24.9532244 30.735997,24.6433741 30.667988,24.2733242 C30.577015,23.7768554 30.7766257,23.189202 31.2613443,22.5264763 C31.7605479,21.8440973 33.4568862,20.5161671 34.7857994,20.5161671 C35.0092575,20.5161671 35.2150509,20.5540574 35.3973503,20.6287756 C35.7253832,20.7633392 35.946015,21.0119277 36.0353982,21.3474514 C36.2927725,22.3147157 35.423494,23.7816359 34.8691766,24.4960623 C34.3012575,25.2280175 33.2945479,25.4888229 32.5420329,25.4888229 L32.5420329,25.4888229 Z M34.7857994,21.0473392 C33.6958892,21.0473392 32.1392784,22.2247706 31.6888293,22.8405761 C31.2936707,23.380601 31.1256796,23.8303267 31.1892725,24.1773591 C31.2302545,24.4008055 31.3708653,24.587601 31.6188772,24.7483691 C31.8239641,24.8813392 32.1602994,24.9576509 32.5418563,24.9576509 L32.5420329,24.9576509 C33.140512,24.9576509 33.9997216,24.7513791 34.4508772,24.1699227 C35.095991,23.3386384 35.6911138,22.1146409 35.523476,21.4844938 C35.476488,21.3083217 35.3726198,21.1925262 35.1966796,21.1204638 C35.0783263,21.0719501 34.9401886,21.0473392 34.7857994,21.0473392 L34.7857994,21.0473392 Z" id="Fill-27" fill="#191919" sketch:type="MSShapeGroup"></path>
                <path d="M42.2710269,23.2456833 C42.2710269,23.2456833 43.2008952,22.2888653 44.7348952,22.72301 C46.2687186,23.1573317 47.6573383,25.2361621 46.3787695,26.6667855 L43.5276916,25.9500574 C43.5276916,25.9500574 42.405985,23.6927531 42.2710269,23.2456833" id="Fill-28" fill="#757474" sketch:type="MSShapeGroup"></path>
                <path d="M46.4693892,26.9631796 L43.3448623,26.1779302 L43.2904551,26.0683317 C43.1747515,25.8353242 42.1549701,23.7780948 42.0173623,23.3227032 L41.9721407,23.1725586 L42.0813084,23.0603042 C42.1097485,23.0310898 42.7903683,22.3442843 43.9479341,22.3442843 C44.229509,22.3442843 44.518503,22.3858928 44.8066138,22.4675162 C45.827985,22.7564738 46.7488443,23.6757556 47.0461407,24.7028653 C47.2738383,25.4895312 47.1070838,26.2499925 46.5760838,26.8438429 L46.4693892,26.9631796 L46.4693892,26.9631796 Z M43.710521,25.7220075 L46.2812605,26.3684439 C46.6939072,25.8231072 46.6523952,25.2487332 46.5370449,24.8508853 C46.2920359,24.00402 45.5036617,23.2166459 44.6626467,22.9785037 C44.4213473,22.9103367 44.1807545,22.8754564 43.9479341,22.8754564 C43.2742036,22.8754564 42.796021,23.1672469 42.5833383,23.328192 C42.7910749,23.8418354 43.4082784,25.1109825 43.710521,25.7220075 L43.710521,25.7220075 Z" id="Fill-29" fill="#191919" sketch:type="MSShapeGroup"></path>
                <path d="M42.6914461,23.5868728 C42.6914461,23.5868728 43.2537126,22.806581 44.1811078,23.1606958 C45.108503,23.5148105 45.9481048,25.2097805 45.1750988,26.3762344 L43.4512036,25.7919451 C43.4512036,25.7919451 42.7730569,23.9512569 42.6914461,23.5868728" id="Fill-30" fill="#FFFFFF" sketch:type="MSShapeGroup"></path>
                <path d="M45.2830299,26.6933441 L43.2464701,26.0028204 L43.2026617,25.884015 C43.1327096,25.6938554 42.5160359,24.0160599 42.4328353,23.6449476 L42.4068683,23.5282668 L42.4766437,23.4312394 C42.495015,23.4055661 42.9383982,22.8028628 43.7053982,22.8028628 C43.8933503,22.8028628 44.085012,22.8396908 44.2756138,22.9124613 C44.8468892,23.130596 45.371,23.7559626 45.6107096,24.5054464 C45.8461796,25.242182 45.7698683,25.9585561 45.3955539,26.5233691 L45.2830299,26.6933441 L45.2830299,26.6933441 Z M43.6562904,25.5810698 L45.0540958,26.0548753 C45.3121766,25.5263591 45.2028323,24.9698678 45.1060299,24.6676309 C44.916488,24.075197 44.5068443,23.5691671 44.0867784,23.4087531 C43.9569431,23.3591771 43.828521,23.3340349 43.7053982,23.3340349 C43.3588174,23.3340349 43.104976,23.5353491 42.984503,23.655217 C43.1063892,24.0636883 43.4692216,25.0709676 43.6562904,25.5810698 L43.6562904,25.5810698 Z" id="Fill-31" fill="#191919" sketch:type="MSShapeGroup"></path>
                <path d="M42.8843443,19.0630574 C42.5623174,19.722419 42.8843443,21.2058055 43.8272844,21.5354863 C44.7702246,21.8651671 45.1841078,21.3706459 45.2302126,20.9310125 C45.2761407,20.4915561 44.4941257,19.6673541 43.8272844,19.0630574 C43.1602665,18.4587606 42.8843443,19.0630574 42.8843443,19.0630574" id="Fill-32" fill="#8E8E8E" sketch:type="MSShapeGroup"></path>
                <path d="M44.3909641,21.9083691 C44.3909641,21.9083691 44.3909641,21.9083691 44.3907874,21.9083691 C44.1908234,21.9083691 43.9719581,21.8672918 43.7398443,21.7861995 C43.2925749,21.6298579 42.9239132,21.2456434 42.7020449,20.7045561 C42.4524431,20.0958329 42.430009,19.389197 42.6462246,18.9463766 C42.7152934,18.7951696 42.931509,18.5288753 43.2863922,18.5288753 C43.5162096,18.5288753 43.7580389,18.6423691 44.0048144,18.8661696 C45.5647814,20.2792643 45.5114341,20.790783 45.4937695,20.9588105 C45.4443084,21.4315536 45.0839491,21.9083691 44.3909641,21.9083691 L44.3909641,21.9083691 Z M43.2863922,19.0600474 C43.1834072,19.0600474 43.1258204,19.1724788 43.1252904,19.1735411 C42.9735509,19.4846309 43.0030509,20.0407681 43.1922395,20.5025337 C43.2869222,20.7335935 43.5066707,21.1420648 43.9145479,21.2847731 C44.0901347,21.346212 44.2503533,21.377197 44.3909641,21.377197 C44.8917575,21.377197 44.9583533,20.9825362 44.9666557,20.9033915 C44.9827305,20.7507681 44.7232365,20.2328753 43.6495778,19.2601222 C43.4575629,19.0860748 43.3395629,19.0600474 43.2863922,19.0600474 L43.2863922,19.0600474 Z" id="Fill-33" fill="#191919" sketch:type="MSShapeGroup"></path>
                <path d="M38.3300389,27.4387556 C38.3300389,28.2123192 37.562509,28.8396334 36.6156826,28.8396334 C35.6688563,28.8396334 34.9013263,28.2123192 34.9013263,27.4387556 C34.9013263,26.665015 35.6688563,26.0378778 36.6156826,26.0378778 C37.562509,26.0378778 38.3300389,26.665015 38.3300389,27.4387556" id="Fill-34" fill="#88E3FF" sketch:type="MSShapeGroup"></path>
                <path d="M36.6156826,29.1052195 C35.5243593,29.1052195 34.6363563,28.3575062 34.6363563,27.4387556 C34.6363563,26.5198279 35.5243593,25.7724688 36.6156826,25.7724688 C37.707006,25.7724688 38.5948323,26.5198279 38.5948323,27.4387556 C38.5948323,28.3575062 37.707006,29.1052195 36.6156826,29.1052195 L36.6156826,29.1052195 Z M36.6156826,26.3036409 C35.8165329,26.3036409 35.1662964,26.8128579 35.1662964,27.4387556 C35.1662964,28.0648304 35.8165329,28.5740474 36.6156826,28.5740474 C37.4148323,28.5740474 38.0648922,28.0648304 38.0648922,27.4387556 C38.0648922,26.8128579 37.4148323,26.3036409 36.6156826,26.3036409 L36.6156826,26.3036409 Z" id="Fill-35" fill="#191919" sketch:type="MSShapeGroup"></path>
                <path d="M45.1667964,24.4324988 C45.1667964,25.0838928 44.5969341,25.6120549 43.8940569,25.6120549 C43.1911796,25.6120549 42.6213174,25.0838928 42.6213174,24.4324988 C42.6213174,23.7811047 43.1911796,23.2529426 43.8940569,23.2529426 C44.5969341,23.2529426 45.1667964,23.7811047 45.1667964,24.4324988" id="Fill-36" fill="#88E3FF" sketch:type="MSShapeGroup"></path>
                <path d="M43.8940569,25.8774638 C43.0463293,25.8774638 42.3563473,25.2292569 42.3563473,24.4324988 C42.3563473,23.6355636 43.0463293,22.9873566 43.8940569,22.9873566 C44.7419611,22.9873566 45.4317665,23.6355636 45.4317665,24.4324988 C45.4317665,25.2292569 44.7419611,25.8774638 43.8940569,25.8774638 L43.8940569,25.8774638 Z M43.8940569,23.5185287 C43.338503,23.5185287 42.8862874,23.9285935 42.8862874,24.4324988 C42.8862874,24.936404 43.338503,25.3462918 43.8940569,25.3462918 C44.4497874,25.3462918 44.9018263,24.936404 44.9018263,24.4324988 C44.9018263,23.9285935 44.4497874,23.5185287 43.8940569,23.5185287 L43.8940569,23.5185287 Z" id="Fill-37" fill="#191919" sketch:type="MSShapeGroup"></path>
                <path d="M49.6969012,37.8382195 C49.6969012,37.8382195 50.7788623,38.5577805 51.4501198,38.207207 C52.1215539,37.8564564 53.342006,37.2629601 53.3400629,35.9644214 C53.3382964,34.6658828 52.9452575,32.7214389 52.9452575,32.7214389 C52.9452575,32.7214389 49.8516437,37.1151172 49.6969012,37.8382195" id="Fill-38" fill="#FFFFFF" sketch:type="MSShapeGroup"></path>
                <path d="M51.0196317,38.7461696 L51.0196317,38.7461696 C50.2844281,38.7461696 49.5357994,38.2622718 49.4527754,38.2070299 L49.2019371,38.040419 L49.2651766,37.7454414 C49.4262784,36.9924165 51.846515,33.5141247 52.5843683,32.4661222 L53.1745449,31.6277556 L53.3780419,32.6336185 C53.3944701,32.7147107 53.7799132,34.6364913 53.7816796,35.9638903 C53.783976,37.4917182 52.439518,38.1910948 51.7172096,38.5668105 L51.6543234,38.5997431 C51.4683144,38.6969476 51.2547485,38.7461696 51.0196317,38.7461696 L51.0196317,38.7461696 Z M50.2542216,37.6432793 C50.479976,37.7518155 50.7726796,37.8608828 51.0196317,37.8608828 C51.1113114,37.8608828 51.1876228,37.8453017 51.2462695,37.8146708 L51.3103922,37.781207 C51.943494,37.4517032 52.8998593,36.9541721 52.8984461,35.9651297 C52.8975629,35.3206409 52.7942246,34.4980324 52.6947725,33.8540748 C51.6218204,35.4098778 50.6061018,36.9667431 50.2542216,37.6432793 L50.2542216,37.6432793 Z" id="Fill-39" fill="#191919" sketch:type="MSShapeGroup"></path>
                <path d="M47.7937096,31.9692993 C47.7937096,31.9692993 47.2196078,30.5085761 47.7937096,29.844611 C48.3678114,29.1806459 51.017512,28.5609451 51.6357754,28.6494738 C52.2540389,28.7380025 52.6073323,28.9593242 52.9606257,29.844611 C53.3139192,30.7298978 53.5788892,31.7037132 53.2697575,32.1906209 C52.9606257,32.6775287 51.9449072,34.4481022 51.5916138,34.6251596 C51.2383204,34.802217 49.7368234,33.9169302 49.7368234,33.5628155 C49.7368234,33.2087007 50.8546437,32.9431147 50.4723802,32.456207 C50.0901168,31.9692993 48.4119731,31.8365062 48.4119731,32.1020923 C48.4119731,32.3676783 48.6769431,32.9431147 48.6769431,32.9431147 C48.6769431,32.9431147 47.9970299,32.7170125 47.7937096,31.9692993" id="Fill-40" fill="#5B5B5B" sketch:type="MSShapeGroup"></path>
                <path d="M51.471494,35.0909975 C51.0107994,35.0909975 50.3729281,34.7174065 50.1883323,34.6030274 C49.4008413,34.1145262 49.3077485,33.7722743 49.2967964,33.6157556 L48.5379222,33.3634489 C48.5011796,33.3510549 47.6442665,33.0559002 47.3743503,32.1093516 C47.2763114,31.8520873 46.7562635,30.3687007 47.460024,29.5547681 C48.1252754,28.7854539 50.662982,28.1985087 51.4921617,28.1985087 C51.5702395,28.1985087 51.6375419,28.202581 51.6983084,28.2114339 C52.5488623,28.3332494 52.9865928,28.7174638 53.3707994,29.6803017 C53.9017994,31.0108878 53.988003,31.8839576 53.642482,32.4282319 C53.5843653,32.5197706 53.500988,32.6573441 53.4015359,32.8212993 C52.472021,34.3537307 52.0952335,34.8679052 51.7892814,35.0212369 C51.6967186,35.0676259 51.5898473,35.0909975 51.471494,35.0909975 L51.471494,35.0909975 Z M51.471494,34.2057107 L51.471494,34.6483541 L51.4716707,34.2057107 C51.4716707,34.2057107 51.4716707,34.2057107 51.471494,34.2057107 L51.471494,34.2057107 Z M50.2755958,33.5824688 C50.5493982,33.8211421 51.1567096,34.1568429 51.4200898,34.2009302 C51.6967186,33.9277307 52.379988,32.8012918 52.6467246,32.3614813 C52.7500629,32.1911521 52.8367964,32.0480898 52.8972096,31.953187 C52.9592126,31.8556284 53.1167814,31.4276808 52.5506287,30.0090973 C52.2353144,29.2187132 51.9864192,29.1468279 51.5734192,29.0876908 C51.5508084,29.0846808 51.5236048,29.0837955 51.4921617,29.0837955 C50.7011377,29.0837955 48.5271467,29.6725112 48.1275719,30.1346309 C47.8539461,30.4508554 48.0214072,31.2736409 48.1660808,31.7008803 C48.2992725,31.5996035 48.5188443,31.5250623 48.8765539,31.5250623 C49.273479,31.5250623 50.3960689,31.6431596 50.8196677,32.1826534 C50.9947246,32.4055686 51.0069132,32.6185686 50.9862455,32.7579127 C50.9323683,33.1219426 50.6195269,33.3411397 50.3681587,33.5169576 C50.3406018,33.5364339 50.3077455,33.5592743 50.2755958,33.5824688 L50.2755958,33.5824688 Z M48.9376737,32.4110574 C48.9772425,32.5224264 49.0267036,32.6461895 49.0781078,32.7579127 L49.3400749,33.3285686 C49.435994,33.0897182 49.6675778,32.9277107 49.8624192,32.7911995 C49.9124102,32.7563192 49.981479,32.7079825 50.0376527,32.6637182 C49.8391018,32.5491621 49.3902425,32.4218579 48.9376737,32.4110574 L48.9376737,32.4110574 Z" id="Fill-41" fill="#191919" sketch:type="MSShapeGroup"></path>
                <path d="M35.3401168,37.2367556 C35.3401168,37.2367556 35.0864521,35.2209576 37.2945359,34.6483541" id="Fill-42" fill="#FFFFFF" sketch:type="MSShapeGroup"></path>
                <path d="M35.3401168,37.2367556 C35.3401168,37.2367556 35.3097335,37.1843466 35.2797036,37.0853716 C35.2630988,37.0357955 35.2482605,36.9748878 35.2346587,36.9037107 C35.2249431,36.8328878 35.2081617,36.7509102 35.2076317,36.6616733 C35.2023323,36.5719052 35.2065719,36.4747007 35.217524,36.3714763 C35.2277695,36.2682519 35.2516168,36.1602469 35.2807635,36.049409 C35.3171527,35.9410499 35.3512455,35.8256085 35.4113054,35.719197 C35.4404521,35.6659027 35.4639461,35.6083591 35.4987455,35.5573666 L35.6059701,35.4050973 C35.6757455,35.3018728 35.7718413,35.2204264 35.8562784,35.1333142 C35.9463683,35.0518678 36.0481168,34.987419 36.1410329,34.9215536 C36.2399551,34.8643641 36.3411737,34.8202768 36.4346198,34.7772519 C36.5282425,34.734404 36.6259281,34.7174065 36.7107186,34.6931496 C36.7969222,34.6715486 36.8753533,34.65402 36.948485,34.6524264 C37.0198503,34.6456983 37.0829132,34.6453441 37.1339641,34.6442818 C37.2362425,34.6426883 37.2945359,34.6483541 37.2945359,34.6483541 C37.2945359,34.6483541 37.2471946,34.6878379 37.1648772,34.7453815 C37.1235419,34.7737107 37.0744341,34.8092993 37.0173772,34.8436484 C36.9590838,34.8762269 36.9007904,34.9268653 36.8357844,34.9744938 C36.7723683,35.0247781 36.6972934,35.0658554 36.6303443,35.1257007 C36.5628653,35.1818279 36.4916766,35.2409651 36.418015,35.3022269 C36.353009,35.3711022 36.2804072,35.4339576 36.2134581,35.5038953 C36.1556946,35.5818005 36.0779701,35.6439476 36.0267425,35.7278728 C35.9668593,35.8050698 35.9090958,35.8836833 35.8606946,35.9677855 C35.8050509,36.0476384 35.7658353,36.1354589 35.7183174,36.2174364 C35.6787485,36.302601 35.636,36.3852868 35.6031437,36.4677955 C35.5688743,36.5499501 35.5358413,36.6290948 35.5104042,36.7048753 C35.4531707,36.8553741 35.4130719,36.9881671 35.3846317,37.0834239 C35.3563683,37.1809825 35.3401168,37.2367556 35.3401168,37.2367556" id="Fill-43" fill="#191919" sketch:type="MSShapeGroup"></path>
                <path d="M37.4932635,26.5915362 C37.4932635,26.8973142 37.2214042,27.1451945 36.8857754,27.1451945 C36.5503234,27.1451945 36.2782874,26.8973142 36.2782874,26.5915362 C36.2782874,26.2857581 36.5503234,26.0378778 36.8857754,26.0378778 C37.2214042,26.0378778 37.4932635,26.2857581 37.4932635,26.5915362" id="Fill-44" fill="#FFFFFF" sketch:type="MSShapeGroup"></path>
                <path d="M36.8859521,27.4107805 C36.4047665,27.4107805 36.0133174,27.0433865 36.0133174,26.5917132 C36.0133174,26.1398628 36.4047665,25.7724688 36.8859521,25.7724688 C37.3667844,25.7724688 37.7582335,26.1398628 37.7582335,26.5917132 C37.7582335,27.0433865 37.3667844,27.4107805 36.8859521,27.4107805 L36.8859521,27.4107805 Z M36.8859521,26.3036409 C36.6969401,26.3036409 36.5432575,26.4327157 36.5432575,26.5917132 C36.5432575,26.7505337 36.6969401,26.8796085 36.8859521,26.8796085 C37.0747874,26.8796085 37.2282934,26.7505337 37.2282934,26.5917132 C37.2282934,26.4327157 37.0747874,26.3036409 36.8859521,26.3036409 L36.8859521,26.3036409 Z" id="Fill-45" fill="#191919" sketch:type="MSShapeGroup"></path>
                <path d="M44.2667814,23.806601 C44.2667814,24.1123791 43.9947455,24.3602594 43.6592934,24.3602594 C43.3236647,24.3602594 43.0518054,24.1123791 43.0518054,23.806601 C43.0518054,23.5008229 43.3236647,23.2529426 43.6592934,23.2529426 C43.9947455,23.2529426 44.2667814,23.5008229 44.2667814,23.806601" id="Fill-46" fill="#FFFFFF" sketch:type="MSShapeGroup"></path>
                <path d="M43.6592934,24.6258454 C43.1782844,24.6258454 42.7868353,24.2584514 42.7868353,23.806601 C42.7868353,23.3547506 43.1782844,22.9873566 43.6592934,22.9873566 C44.1403024,22.9873566 44.5317515,23.3547506 44.5317515,23.806601 C44.5317515,24.2584514 44.1403024,24.6258454 43.6592934,24.6258454 L43.6592934,24.6258454 Z M43.6592934,23.5185287 C43.4704581,23.5185287 43.3167754,23.6477805 43.3167754,23.806601 C43.3167754,23.9654214 43.4704581,24.0946733 43.6592934,24.0946733 C43.8483054,24.0946733 44.0018114,23.9654214 44.0018114,23.806601 C44.0018114,23.6477805 43.8483054,23.5185287 43.6592934,23.5185287 L43.6592934,23.5185287 Z" id="Fill-47" fill="#191919" sketch:type="MSShapeGroup"></path>
                <path d="M50.5633533,30.4855586 C50.5633533,30.8566708 50.2333772,31.1573142 49.8263832,31.1573142 C49.4193892,31.1573142 49.0894132,30.8566708 49.0894132,30.4855586 C49.0894132,30.1146234 49.4193892,29.81398 49.8263832,29.81398 C50.2333772,29.81398 50.5633533,30.1146234 50.5633533,30.4855586" id="Fill-48" fill="#FFFFFF" sketch:type="MSShapeGroup"></path>
            </g>
        </g>
    </g>
</svg>