<svg width="59" height="71" viewBox="0 0 59 71" xmlns="http://www.w3.org/2000/svg"><title>Imported Layers</title><g fill="none" fill-rule="evenodd"><path d="M52.978 33.143l-.46-3.882-3.153-1.82-2.296-2.217s-.91-4.108-1.558-5.702c-.648-1.592-3.945-2.822-3.945-2.822s.34 6.482 1.884 9.094l-.264.088c-.662-1.86-5.697-8.32-5.697-8.32-5.918-.665-11.968 6.594-11.968 6.594l-2.12 6.418c-4.61 4.073-5.67 9.296-5.67 9.296l1.995-.91c1.187 8.72 13.92 17.996 13.92 17.996l-2.296 1.372c-8.787-6.418-18.547.708-18.547.708s12.748 9.71 25.408 11.362c0 0 6.452-6.632 6.628-8.166l.85.67s-.16-14.164-1.464-16.348c0 0 6.764-2.33 7.618-6.684l.265-1.874s2.06-2.42.87-4.85" fill="#F4F2ED"/><path d="M38.373 70.863l-.22-.03c-12.63-1.647-25.49-11.348-25.617-11.446l-.473-.36.48-.35c.194-.142 4.823-3.473 10.662-3.473 2.97 0 5.716.872 8.168 2.594l1.485-.887c-1.052-.81-3.518-2.792-6.04-5.374-4.257-4.355-6.755-8.367-7.433-11.936l-2.26 1.03.173-.85c.044-.218 1.13-5.35 5.722-9.46l2.11-6.385.053-.065c.058-.07 1.436-1.713 3.538-3.382 2.855-2.266 5.544-3.415 7.993-3.415.278 0 .556.016.826.046l.183.02.115.146c.14.182 2.455 3.157 4.127 5.636-.654-2.812-.83-6.01-.84-6.2l-.034-.674.63.235c.357.133 3.5 1.347 4.2 3.07.597 1.468 1.387 4.916 1.55 5.644l2.163 2.085 3.298 1.907.478 4.028c1.106 2.37-.482 4.644-.88 5.16l-.253 1.775c-.77 3.926-5.884 6.228-7.457 6.85 1.13 3.17 1.297 14.713 1.312 16.092l.01.925-1.104-.87c-1.097 2.135-5.535 6.753-6.51 7.754l-.153.16zm-24.797-11.81c2.467 1.774 13.55 9.367 24.473 10.874 2.624-2.712 6.242-6.812 6.35-7.748l.09-.788.743.586c-.082-4.43-.442-13.613-1.388-15.2l-.28-.467.515-.177c.066-.022 6.522-2.296 7.326-6.34l.282-1.988.083-.098c.02-.022 1.855-2.235.812-4.37l-.033-.067-.443-3.736-3.01-1.74-2.43-2.344-.03-.13c-.008-.042-.908-4.09-1.534-5.632-.38-.934-1.984-1.826-3.046-2.306.138 1.733.596 6.193 1.774 8.184l.28.472-1.194.4-.146-.41c-.493-1.384-3.754-5.78-5.512-8.047-.18-.014-.362-.02-.545-.02-5.104 0-10.225 5.75-10.8 6.416l-2.13 6.45-.09.08c-3.328 2.94-4.77 6.533-5.285 8.167l1.677-.764.08.588c1.147 8.432 13.616 17.606 13.742 17.698l.542.395-3.123 1.866-.236-.172c-2.357-1.722-5.01-2.595-7.885-2.595-4.472 0-8.288 2.12-9.63 2.963z" fill="#191919"/><path d="M26.183.927c-.302 1.193-1.154 5.886.914 15.447l6.978-1.24s-3.1-11.31-7.53-14.343c-.136-.092-.322-.023-.362.137" fill="#E5C1BD"/><path d="M26.755 16.884l-.09-.417c-2.083-9.63-1.223-14.412-.91-15.65.076-.3.346-.51.657-.51.136 0 .27.04.382.118 1.91 1.307 3.788 4.168 5.585 8.505 1.323 3.195 2.113 6.058 2.12 6.087l.13.468-7.875 1.4zm-.213-15.55c-.328 1.53-.895 6.015.897 14.53l6.074-1.08c-.625-2.1-3.35-10.677-6.972-13.45z" fill="#191919"/><path d="M36.77 41.496s11.966-7.056 16.003-7.532c0 0 5.892 10.605 5.6 14.63 0 0-13.202 7.577-15.02 7.447 0 0-5.71-11.47-6.583-14.544" fill="#FB0"/><path d="M43.402 56.485c-.03 0-.055 0-.08-.003l-.252-.018-.112-.226c-.234-.47-5.74-11.543-6.613-14.62l-.093-.33.294-.173c.492-.29 12.093-7.11 16.175-7.59l.295-.035.144.26c.242.436 5.95 10.767 5.654 14.877l-.017.235-.204.118c-.032.018-3.29 1.886-6.75 3.73-7.085 3.775-8.106 3.775-8.44 3.775zm-6.106-14.783c1.02 3.11 5.48 12.18 6.317 13.87 1.187-.26 5.675-2.282 14.33-7.24.016-1.623-.9-4.51-2.662-8.378-1.152-2.53-2.34-4.758-2.747-5.507-3.78.674-13.41 6.193-15.237 7.255z" fill="#000"/><path d="M52.995 34.37s-2.264 9.664-2.797 10.053c-.533.39-13.257-2.39-13.257-2.39" fill="#FB0"/><path d="M49.95 44.9c-.662 0-2.282-.22-6.666-1.092-3.215-.64-6.405-1.336-6.437-1.343l.188-.865c5.52 1.206 11.713 2.42 12.878 2.42h.026c.445-.9 1.78-6.14 2.625-9.75l.86.202c-.006.024-.574 2.45-1.2 4.89-1.306 5.082-1.572 5.277-1.767 5.42-.08.056-.162.117-.508.117" fill="#E2A100"/><path d="M58.112 48.628c-.14-.535-3.356-5.32-7.224-5.904l.08-.526c4.224.64 7.686 5.836 7.67 6.405l-.53-.015c0 .025.004.04.004.04M43.61 56.108l-.514-.135c.103-.39 2.526-9.623 4.268-11.972l.426.318c-1.682 2.267-4.156 11.695-4.18 11.79" fill="#E2A100"/><path d="M43.274 56.5c-.028 0-.054 0-.08-.002l-.25-.018-.114-.226c-.233-.47-5.738-11.543-6.612-14.62l-.093-.33.294-.174c.49-.29 12.09-7.108 16.174-7.59l.293-.035.144.26c.245.437 5.954 10.768 5.657 14.878l-.017.235-.204.117c-.033.02-3.29 1.887-6.75 3.73C44.63 56.5 43.61 56.5 43.274 56.5zM37.168 41.72c1.02 3.108 5.482 12.18 6.318 13.87 1.187-.26 5.675-2.282 14.33-7.24.015-1.623-.9-4.51-2.663-8.378-1.152-2.53-2.34-4.758-2.747-5.507-3.78.674-13.41 6.193-15.238 7.255z" fill="#000"/><path d="M51.872 33.49s-1.65 3.75-2.534 4.814c-.883 1.062-3.513 1.917-3.513 1.917s-3.33-.68-4.61-.947c-1.282-.266-4.33-2.612-4.33-2.612" fill="#F4F2ED"/><path d="M45.85 40.678l-.114-.024s-3.33-.682-4.612-.947c-1.34-.28-4.187-2.448-4.507-2.695l.538-.702c.825.636 3.18 2.33 4.148 2.53 1.138.235 3.896.8 4.495.924.774-.265 2.576-.992 3.2-1.744.844-1.014 2.19-3.575 2.203-3.6l.783.41c-.057.11-1.403 2.67-2.305 3.757-.954 1.147-3.604 2.018-3.717 2.055l-.11.036" fill="#191919"/><path d="M42.966 26.038c.132-.044 7.61 1.842 8.89 2.603" fill="#FFF"/><path d="M51.722 28.87c-1.2-.714-8.263-2.522-8.76-2.568.005 0 .04.004.088-.012l-.168-.504c.23-.08 3.513.816 4.17.996 1.86.51 4.227 1.207 4.94 1.63l-.27.458" fill="#191919"/><path d="M43.296 25.772l-.265.09c-.66-1.86-5.696-8.323-5.696-8.323-5.917-.665-11.968 6.595-11.968 6.595l-2.12 6.418c-4.61 4.072-5.67 9.295-5.67 9.295l1.996-.91c1.187 8.72 13.92 17.996 13.92 17.996l-2.296 1.373c-8.788-6.42-18.548.708-18.548.708C1.828 49.32.592 40.115.592 40.115c2.12-.93 5.962-8.234 5.962-8.234l-1.28.62c1.28-2.278 5.652-10.534 5.652-10.534.176-4.78 2.87-16.29 4.946-18.636 2.075-2.346 2.56-1.86 2.56-1.86-3.18 2.613-2.81 11.894-2.398 14.49.735 4.63 2.393 7.356 2.532 6.58 0 0 1.457-3.142 2.03-3.894.575-.753.973-2.346.973-2.346v1.505s1.603-2.616 2.472-3.32l-.398 1.815s7.098-1.834 12.003-1.078c1.78.274 5.066.98 5.75 1.476 0 0 .353 6.463 1.9 9.074" fill="#484349"/><path d="M12.62 59.583l-.266-.238C1.537 49.655.206 40.555.154 40.173l-.044-.33.305-.134c1.358-.597 3.735-4.428 5.09-6.83l-1.308.633.69-1.23c1.193-2.12 5.125-9.536 5.602-10.436.21-4.876 2.857-16.33 5.052-18.81 1.22-1.38 2.116-2.05 2.738-2.05.266 0 .414.12.465.17l.345.347-.377.31c-2.82 2.317-2.75 10.892-2.243 14.077.493 3.107 1.39 5.25 1.89 6.053.42-.89 1.413-2.946 1.886-3.566.426-.558.79-1.766.894-2.185l.87-3.488v3.605c.544-.803 1.245-1.757 1.754-2.17l.98-.792-.517 2.356c1.512-.346 5.233-1.108 8.76-1.108 1 0 1.918.064 2.727.188 1.51.233 5.103.948 5.942 1.555l.17.123.012.21c.004.064.366 6.386 1.838 8.874l.28.472-1.195.398-.145-.408c-.494-1.386-3.754-5.783-5.512-8.05-.18-.014-.362-.02-.545-.02-5.1 0-10.224 5.75-10.8 6.417l-2.13 6.45-.09.078c-3.336 2.947-4.773 6.537-5.287 8.17l1.68-.766.08.588c1.148 8.437 13.616 17.607 13.742 17.698l.542.395-3.122 1.867-.236-.173c-2.358-1.72-5.01-2.595-7.886-2.595-5.543 0-10.097 3.27-10.142 3.303l-.288.21zM1.082 40.35c.14.723.612 2.72 1.9 5.432 1.476 3.11 4.352 7.81 9.703 12.67 1.13-.75 5.29-3.268 10.365-3.268 2.97 0 5.716.873 8.168 2.594l1.482-.886c-2.413-1.85-12.004-9.618-13.47-17.31l-2.26 1.03.173-.852c.044-.218 1.13-5.35 5.722-9.46l2.11-6.385.053-.064c.23-.277 5.73-6.796 11.53-6.796.278 0 .555.015.826.045l.184.02.114.147c.142.18 2.45 3.15 4.122 5.626-.565-2.417-.778-5.114-.833-5.93-.815-.394-3.467-1.007-5.39-1.304-.765-.12-1.638-.178-2.594-.178-4.357 0-9.183 1.234-9.23 1.247l-.697.178.175-.803c-.524.72-1.043 1.528-1.29 1.932l-.818 1.333v-.72c-.057.095-.117.184-.18.265-.44.576-1.546 2.877-1.96 3.77-.085.316-.33.43-.524.43-.184 0-.675 0-1.53-2.092-.573-1.403-1.047-3.177-1.335-4.993-.204-1.282-.412-4.297-.152-7.346.204-2.38.636-4.265 1.29-5.64-.162.17-.34.36-.534.58-1.996 2.256-4.666 13.796-4.835 18.358l-.004.102-.047.09c-.038.07-3.284 6.2-4.986 9.324l1.24-.6-.626 1.19c-.382.726-3.654 6.86-5.862 8.263z" fill="#191919"/><path d="M17.042 3.46c-.314.993-.957 3.483-1.234 6.507-.118 2.526.05 4.878.228 5.994.462 2.914 1.29 5.072 1.875 6.08.026.04.052.085.08.13.305.49.53.637.578.372 0 0 1.02-2.666 1.514-3.473.493-.804 1.303-2.546 1.303-2.546l.186 1.28s2.148-2.72 2.472-3.32l-.396 1.816s1.858-.364 3.828-.77c-.8-2.504-3.756-10.82-8.73-14.1 0 0-.138-.012-.346.076-.556.47-1 1.145-1.356 1.953" fill="#E5C1BD"/><path d="M18.465 23.115c-.286 0-.54-.212-.85-.71-.03-.052-.056-.093-.08-.13-.63-1.09-1.467-3.293-1.935-6.245-.192-1.21-.347-3.63-.233-6.083v-.02c.252-2.74.833-5.27 1.254-6.602l.018-.044c.402-.913.898-1.624 1.474-2.112l.052-.043.06-.026c.325-.14.558-.11.558-.11l.105.01.1.06c5.094 3.36 8.105 11.822 8.907 14.336l.15.47-.482.098c-1.95.402-3.812.767-3.83.77l-.66.13.082-.38c-.566.745-1.124 1.454-1.237 1.596l-.636.805-.125-.873c-.233.463-.49.952-.697 1.29-.44.716-1.35 3.067-1.466 3.366-.08.33-.33.447-.527.447zM16.248 9.998c-.11 2.387.04 4.728.224 5.893.45 2.835 1.262 4.965 1.82 5.927.015.023.032.052.05.084.323-.816.98-2.438 1.364-3.063.474-.773 1.27-2.483 1.278-2.5l.625-1.343.25 1.725c.77-.996 1.62-2.124 1.793-2.446l1.486-2.754-.92 4.216c.623-.124 1.616-.322 2.68-.54-.954-2.86-3.766-10.23-8.264-13.306l-.01.003c-.445.396-.84.975-1.17 1.723-.12.38-.892 2.95-1.208 6.382z" fill="#191919"/><path d="M26.272.615c.09-.163-2.65 2.998-2.856 5.69 0 0 1.072 2.85 2.81 5.412 0 0-.943-9.29.046-11.102" fill="#484349"/><path d="M26.84 13.413l-.98-1.447C24.113 9.39 23.047 6.58 23.003 6.46l-.035-.09.008-.1c.11-1.454.905-2.995 1.552-4.032.373-.598.727-1.08.96-1.38.474-.614.562-.69.786-.69h.25l.258.433-.123.228c-.678 1.24-.37 7.165.004 10.845l.177 1.74zM23.866 6.24c.152.388.785 1.946 1.755 3.658-.162-2.05-.35-5.274-.168-7.474-.688 1.055-1.455 2.504-1.587 3.816z" fill="#191919"/><path d="M32.69 30.395c-1.045-.38-.874-1.63 0-2.756.876-1.13 2.876-3.198 4.626-2.696 1.75.502 2.75 1.692 2.313 3.446-.44 1.755-2.814 3.51-6.94 2.005" fill="#757474"/><path d="M35.61 31.23c-.93 0-1.943-.197-3.01-.585-.432-.158-.723-.456-.84-.86-.183-.64.08-1.482.722-2.31.523-.674 2.378-2.874 4.275-2.874.217 0 .43.03.632.09 2.007.574 2.94 1.983 2.496 3.765-.345 1.38-1.8 2.775-4.276 2.775zm1.147-6.098c-1.317 0-2.856 1.38-3.857 2.67-.52.67-.762 1.374-.63 1.835.07.242.237.408.51.508 1.01.368 1.96.554 2.83.554 2.19 0 3.467-1.193 3.762-2.374.218-.877.233-2.45-2.13-3.127-.154-.045-.317-.068-.485-.068z" fill="#191919"/><path d="M33.618 29.668c-.74-.27-.618-1.15 0-1.948.618-.797 2.03-2.26 3.268-1.904 1.236.355 1.943 1.196 1.634 2.435-.31 1.24-1.988 2.48-4.902 1.418" fill="#FFF"/><path d="M35.68 30.336c-.667 0-1.39-.14-2.153-.42-.33-.12-.55-.347-.64-.66-.138-.475.053-1.094.522-1.7.374-.483 1.705-2.06 3.08-2.06.16 0 .32.022.47.065 1.463.42 2.142 1.45 1.817 2.756-.25 1.005-1.306 2.02-3.097 2.02zm.81-4.31c-.9 0-1.967.96-2.663 1.857-.353.455-.518.925-.432 1.227.042.146.145.246.313.308.704.257 1.367.387 1.972.387 1.506 0 2.382-.813 2.583-1.618.344-1.38-.76-1.918-1.45-2.116-.102-.028-.21-.043-.322-.043z" fill="#191919"/><path d="M31.475 24.97c.705.458 2.442.32 3.185-.637.743-.958 1.805-2.98.637-3.458-1.168-.48-3.238 1.01-3.822 1.81-.584.797-.902 1.7 0 2.286" fill="#8E8E8E"/><path d="M32.542 25.49c-.488 0-.918-.106-1.21-.295-.373-.242-.596-.552-.664-.922-.09-.496.11-1.084.593-1.747.5-.682 2.197-2.01 3.526-2.01.223 0 .43.038.61.113.33.133.55.382.64.717.257.968-.613 2.435-1.167 3.15-.57.73-1.575.992-2.328.992zm2.244-4.443c-1.09 0-2.647 1.178-3.097 1.794-.396.54-.564.99-.5 1.337.04.224.18.41.43.57.204.134.54.21.922.21.6 0 1.458-.206 1.91-.787.644-.83 1.24-2.055 1.07-2.686-.046-.176-.15-.29-.325-.364-.12-.048-.257-.073-.41-.073z" fill="#191919"/><path d="M42.27 23.246s.93-.957 2.465-.523c1.534.434 2.922 2.513 1.644 3.944l-2.852-.717s-1.122-2.257-1.257-2.704" fill="#757474"/><path d="M46.47 26.963l-3.125-.785-.055-.11c-.115-.233-1.135-2.29-1.273-2.745l-.045-.15.11-.113c.028-.03.708-.716 1.866-.716.282 0 .57.042.86.124 1.02.288 1.94 1.208 2.238 2.235.228.787.06 1.547-.47 2.14l-.107.12zm-2.76-1.24l2.57.645c.414-.545.372-1.12.257-1.517-.245-.846-1.033-1.633-1.874-1.87-.242-.07-.482-.105-.715-.105-.674 0-1.152.292-1.365.453.208.514.825 1.783 1.128 2.394z" fill="#191919"/><path d="M42.69 23.587s.564-.78 1.49-.426c.93.355 1.768 2.05.995 3.216l-1.724-.584s-.677-1.84-.76-2.205" fill="#FFF"/><path d="M45.283 26.693l-2.037-.69-.043-.12c-.07-.19-.687-1.867-.77-2.238l-.026-.117.07-.097c.018-.024.46-.627 1.228-.627.188 0 .38.037.57.11.572.218 1.096.843 1.336 1.592.236.737.16 1.454-.214 2.018l-.113.17zm-1.627-1.112l1.398.475c.258-.53.15-1.085.052-1.387-.19-.593-.6-1.1-1.02-1.26-.13-.05-.257-.074-.38-.074-.347 0-.6.2-.72.32.12.41.483 1.417.67 1.927z" fill="#191919"/><path d="M42.884 19.063c-.322.66 0 2.143.943 2.472.943.33 1.357-.164 1.403-.604.046-.438-.736-1.263-1.403-1.867-.667-.604-.943 0-.943 0" fill="#8E8E8E"/><path d="M44.39 21.908c-.2 0-.418-.04-.65-.122-.447-.156-.816-.54-1.038-1.08-.25-.61-.272-1.317-.056-1.76.07-.15.286-.417.64-.417.23 0 .472.112.72.336 1.56 1.413 1.505 1.925 1.488 2.093-.05.472-.41.948-1.103.948zm-1.104-2.848c-.103 0-.16.112-.16.114-.152.31-.123.867.066 1.33.095.23.315.638.723.78.175.062.335.093.476.093.502 0 .568-.394.577-.474.016-.152-.244-.67-1.317-1.643-.192-.174-.31-.2-.364-.2z" fill="#191919"/><path d="M38.33 27.44c0 .772-.767 1.4-1.714 1.4s-1.715-.628-1.715-1.4c0-.775.77-1.402 1.716-1.402.947 0 1.714.627 1.714 1.4" fill="#88E3FF"/><path d="M36.616 29.105c-1.092 0-1.98-.747-1.98-1.666 0-.92.888-1.668 1.98-1.668 1.09 0 1.98.748 1.98 1.667 0 .918-.89 1.665-1.98 1.665zm0-2.8c-.8 0-1.45.508-1.45 1.134 0 .625.65 1.134 1.45 1.134.8 0 1.45-.51 1.45-1.135 0-.627-.65-1.136-1.45-1.136z" fill="#191919"/><path d="M45.167 24.432c0 .652-.57 1.18-1.273 1.18s-1.273-.528-1.273-1.18c0-.65.57-1.18 1.274-1.18.703 0 1.273.53 1.273 1.18" fill="#88E3FF"/><path d="M43.894 25.877c-.848 0-1.538-.648-1.538-1.445 0-.796.69-1.445 1.538-1.445.848 0 1.538.65 1.538 1.445 0 .797-.69 1.445-1.538 1.445zm0-2.358c-.555 0-1.008.41-1.008.912 0 .504.453.914 1.008.914.556 0 1.008-.41 1.008-.914 0-.503-.452-.913-1.008-.913z" fill="#191919"/><path d="M49.697 37.838s1.082.72 1.753.37c.672-.352 1.892-.945 1.89-2.244-.002-1.298-.395-3.243-.395-3.243s-3.093 4.395-3.248 5.118" fill="#FFF"/><path d="M51.02 38.746c-.736 0-1.484-.484-1.567-.54l-.25-.166.062-.295c.16-.753 2.582-4.23 3.32-5.28l.59-.837.203 1.006c.016.08.402 2.002.404 3.33.002 1.528-1.342 2.227-2.065 2.603l-.063.033c-.186.097-.4.146-.634.146zm-.766-1.103c.226.11.52.218.766.218.09 0 .168-.015.226-.045l.064-.034c.633-.328 1.59-.826 1.588-1.815 0-.644-.104-1.467-.203-2.11-1.073 1.555-2.09 3.112-2.44 3.788z" fill="#191919"/><path d="M47.794 31.97s-.574-1.46 0-2.125c.574-.664 3.224-1.284 3.842-1.196.618.088.97.31 1.325 1.195.354.885.62 1.86.31 2.346-.31.488-1.325 2.258-1.678 2.435-.354.177-1.855-.708-1.855-1.062 0-.354 1.118-.62.735-1.107-.382-.487-2.06-.62-2.06-.354s.265.84.265.84-.68-.225-.883-.973" fill="#5B5B5B"/><path d="M51.47 35.09c-.46 0-1.097-.373-1.282-.487-.787-.488-.88-.83-.89-.987l-.76-.253c-.037-.012-.894-.307-1.164-1.254-.098-.258-.618-1.74.086-2.555.665-.77 3.203-1.356 4.032-1.356.078 0 .146.003.206.01.85.123 1.29.507 1.673 1.47.532 1.33.618 2.204.272 2.748-.058.092-.14.23-.24.393-.93 1.534-1.307 2.048-1.613 2.2-.093.048-.2.07-.32.07zm0-.884v.442l.002-.442zm-1.194-.624c.273.24.88.575 1.144.62.277-.274.96-1.4 1.227-1.84.103-.17.19-.314.25-.41.062-.096.22-.524-.346-1.943-.315-.79-.564-.863-.977-.922-.022-.003-.05-.004-.08-.004-.792 0-2.966.59-3.365 1.05-.274.317-.107 1.14.038 1.567.133-.1.353-.175.71-.175.397 0 1.52.118 1.944.658.175.223.187.436.166.575-.054.364-.366.583-.618.76-.027.018-.06.04-.092.064zm-1.338-1.17c.04.11.09.234.14.346l.262.57c.096-.238.328-.4.522-.537.05-.034.12-.082.176-.126-.2-.115-.648-.242-1.1-.253z" fill="#191919"/><path d="M35.34 37.237s-.254-2.016 1.955-2.59" fill="#FFF"/><path d="M35.34 37.237s-.03-.053-.06-.152c-.017-.05-.032-.11-.045-.18-.01-.072-.027-.154-.027-.243-.006-.09 0-.187.01-.29.01-.104.034-.212.063-.323.037-.11.07-.224.13-.33.03-.054.054-.112.09-.163l.106-.152c.07-.103.166-.185.25-.272.09-.08.192-.146.285-.21.1-.06.2-.103.295-.146.093-.043.19-.06.276-.084.087-.02.165-.04.238-.04.072-.007.135-.008.186-.01.102 0 .16.005.16.005s-.047.04-.13.097c-.04.03-.09.064-.147.1-.058.03-.116.082-.18.13-.065.05-.14.09-.207.15l-.212.177c-.065.07-.138.132-.205.202-.057.078-.135.14-.186.224-.06.077-.118.156-.166.24-.055.08-.094.167-.142.25-.04.085-.082.167-.115.25-.034.082-.067.16-.093.237-.057.15-.097.283-.125.378-.03.098-.045.154-.045.154" fill="#191919"/><path d="M37.493 26.592c0 .305-.272.553-.607.553-.336 0-.608-.248-.608-.553 0-.306.272-.554.608-.554.335 0 .607.248.607.554" fill="#FFF"/><path d="M36.886 27.41c-.48 0-.873-.367-.873-.818 0-.452.392-.82.873-.82.48 0 .872.368.872.82 0 .45-.39.82-.872.82zm0-1.106c-.19 0-.343.13-.343.288 0 .16.154.288.343.288.19 0 .342-.13.342-.288 0-.16-.153-.288-.342-.288z" fill="#191919"/><path d="M44.267 23.807c0 .305-.272.553-.608.553-.336 0-.608-.248-.608-.553 0-.306.272-.554.607-.554.335 0 .607.248.607.554" fill="#FFF"/><path d="M43.66 24.626c-.482 0-.873-.368-.873-.82 0-.45.39-.82.872-.82.48 0 .872.37.872.82 0 .452-.392.82-.873.82zm0-1.107c-.19 0-.343.128-.343.287 0 .158.153.288.342.288.188 0 .342-.13.342-.288 0-.16-.154-.288-.343-.288z" fill="#191919"/><path d="M50.563 30.486c0 .37-.33.67-.737.67s-.737-.3-.737-.67c0-.37.33-.672.736-.672.407 0 .737.3.737.672" fill="#FFF"/></g></svg>