<?xml version="1.0" encoding="UTF-8" standalone="no"?>
<svg width="171px" height="24px" viewBox="0 0 171 24" version="1.1" xmlns="http://www.w3.org/2000/svg" xmlns:xlink="http://www.w3.org/1999/xlink" xmlns:sketch="http://www.bohemiancoding.com/sketch/ns">
    <!-- Generator: Sketch 3.3.2 (12043) - http://www.bohemiancoding.com/sketch -->
    <title>Imported Layers</title>
    <desc>Created with Sketch.</desc>
    <defs></defs>
    <g id="Page-1" stroke="none" stroke-width="1" fill="none" fill-rule="evenodd" sketch:type="MSPage">
        <g id="deliverinbox_1280" sketch:type="MSArtboardGroup" transform="translate(-118.000000, -31.000000)" fill="#000000">
            <g id="Imported-Layers" sketch:type="MSLayerGroup" transform="translate(118.000000, 31.500000)">
                <path d="M10.8866974,21.0682289 C9.92855275,22.0984229 8.61978434,22.839 6.76840013,22.839 C2.65010285,22.839 0.000453881885,19.9096468 0.000453881885,15.4991393 C0.000453881885,10.927403 3.25660252,7.74012935 7.88540345,7.74012935 C9.16274054,7.74012935 10.0884326,7.96578109 10.8866974,8.44843781 L10.8866974,0.0461144279 L14.557921,0.0461144279 L14.557921,22.5815373 L10.8866974,22.5815373 L10.8866974,21.0682289 L10.8866974,21.0682289 Z M10.8866974,17.9136816 L10.8866974,12.0865572 C9.96055143,11.5067512 9.03485932,11.2171343 8.04528334,11.2171343 C5.87425282,11.2171343 3.92698607,12.6981741 3.92698607,15.3701791 C3.92698607,17.9459502 5.58694559,19.3942637 7.53421234,19.3942637 C8.87554678,19.3942637 10.056434,18.7503781 10.8866974,17.9136816 L10.8866974,17.9136816 Z" id="Fill-1" sketch:type="MSShapeGroup"></path>
                <path d="M30.9691553,21.1327662 C29.5323922,22.3563433 27.4892429,22.9356915 25.4780922,22.9356915 C20.8491778,22.9356915 17.7524552,19.9096468 17.7524552,15.3379104 C17.7524552,11.1204428 20.6254141,7.74012935 25.350211,7.74012935 C29.0533198,7.74012935 32.1500425,10.4121343 32.1500425,14.4689453 C32.1500425,15.3701791 32.0866125,15.9172587 31.9267326,16.464796 L21.5511062,16.464796 C21.8707525,18.6536866 23.5942555,19.8451095 25.861282,19.8451095 C27.6171241,19.8451095 29.0853185,19.2013383 29.915582,18.5252985 L30.9691553,21.1327662 L30.9691553,21.1327662 Z M21.4236788,13.9858308 L28.4789323,13.9858308 C28.5108175,12.2150597 27.2979317,10.8307114 25.190785,10.8307114 C22.9878693,10.8307114 21.8068686,12.0865572 21.4236788,13.9858308 L21.4236788,13.9858308 Z" id="Fill-2" sketch:type="MSShapeGroup"></path>
                <path d="M35.1209263,0.0461144279 L38.7920365,0.0461144279 L38.7920365,17.0764129 C38.7920365,18.7182239 39.1752263,19.4265323 40.0374884,19.4265323 C40.6119894,19.4265323 41.0904944,19.1690697 41.537568,18.8471841 L42.3039476,21.6803035 C41.4736841,22.3563433 40.2287996,22.9035373 38.5048427,22.9035373 C36.3022674,22.9035373 35.1209263,21.5513433 35.1209263,18.5897214 L35.1209263,0.0461144279" id="Fill-3" sketch:type="MSShapeGroup"></path>
                <path d="M47.1255348,0.722154229 C48.1791082,0.722154229 49.2326815,1.55896517 49.2326815,2.87877612 C49.2326815,4.35981592 48.1791082,5.19708458 47.1255348,5.19708458 C45.8801964,5.19708458 44.827077,4.35981592 44.827077,2.87877612 C44.827077,1.55896517 45.8801964,0.722154229 47.1255348,0.722154229 L47.1255348,0.722154229 Z M45.2098129,8.09428358 L48.8814904,8.09428358 L48.8814904,22.5815373 L45.2098129,22.5815373 L45.2098129,8.09428358 Z" id="Fill-4" sketch:type="MSShapeGroup"></path>
                <path d="M60.6938799,22.6460746 L57.980347,22.6460746 L51.3717133,8.09428358 L55.7453192,8.09428358 L58.395422,14.3077164 C58.7786118,15.1772537 59.2252316,16.464796 59.4804267,17.591796 C59.7361891,16.4970647 60.1508102,15.1772537 60.534,14.2432935 L63.0243364,8.09428358 L66.8873251,8.09428358 L60.6938799,22.6460746" id="Fill-5" sketch:type="MSShapeGroup"></path>
                <path d="M80.6164579,21.1327662 C79.1796948,22.3563433 77.1365455,22.9356915 75.1253948,22.9356915 C70.4964804,22.9356915 67.3997578,19.9096468 67.3997578,15.3379104 C67.3997578,11.1204428 70.2727167,7.74012935 74.9975136,7.74012935 C78.7006224,7.74012935 81.7973451,10.4121343 81.7973451,14.4689453 C81.7973451,15.3701791 81.7339151,15.9172587 81.5740352,16.464796 L71.1984088,16.464796 C71.5180551,18.6536866 73.2415581,19.8451095 75.5085846,19.8451095 C77.2644267,19.8451095 78.7326211,19.2013383 79.5628845,18.5252985 L80.6164579,21.1327662 L80.6164579,21.1327662 Z M71.0709814,13.9858308 L78.1262349,13.9858308 C78.1581201,12.2150597 76.9452342,10.8307114 74.8380876,10.8307114 C72.6350584,10.8307114 71.4541712,12.0865572 71.0709814,13.9858308 L71.0709814,13.9858308 Z" id="Fill-6" sketch:type="MSShapeGroup"></path>
                <path d="M84.7681155,8.09428358 L88.4393391,8.09428358 L88.4393391,9.5109005 C89.1097226,8.57739801 90.0039834,7.8368209 91.7279403,7.8368209 C92.9088275,7.8368209 93.4833285,8.02974627 93.9624008,8.3839005 L92.6536324,11.8609055 C91.9512502,11.4423284 91.5680604,11.3138259 90.8017943,11.3138259 C89.5249111,11.3138259 88.8545275,12.0221343 88.4393391,12.8589453 L88.4393391,22.5815373 L84.7681155,22.5815373 L84.7681155,8.09428358" id="Fill-7" sketch:type="MSShapeGroup"></path>
                <path d="M98.528793,0.722154229 C99.5823663,0.722154229 100.63594,1.55896517 100.63594,2.87877612 C100.63594,4.35981592 99.5823663,5.19708458 98.528793,5.19708458 C97.2834545,5.19708458 96.2303351,4.35981592 96.2303351,2.87877612 C96.2303351,1.55896517 97.2834545,0.722154229 98.528793,0.722154229 L98.528793,0.722154229 Z M96.6129575,8.09428358 L100.284635,8.09428358 L100.284635,22.5815373 L96.6129575,22.5815373 L96.6129575,8.09428358 Z" id="Fill-8" sketch:type="MSShapeGroup"></path>
                <path d="M104.914003,8.09428358 L108.585227,8.09428358 L108.585227,9.54305473 C109.447489,8.60955224 110.979567,7.8368209 112.703524,7.8368209 C116.215435,7.8368209 118.609776,9.54305473 118.609776,14.0825224 L118.609776,22.5815373 L114.938552,22.5815373 L114.938552,14.726408 C114.938552,12.4085572 113.757098,11.3138259 111.713948,11.3138259 C110.469064,11.3138259 109.447489,11.8286368 108.585227,12.6981741 L108.585227,22.5815373 L104.914003,22.5815373 L104.914003,8.09428358" id="Fill-9" sketch:type="MSShapeGroup"></path>
                <path d="M122.346812,0.0461144279 L126.018036,0.0461144279 L126.018036,8.99597512 C126.912183,8.28766667 128.284949,7.74012935 129.817141,7.74012935 C134.095318,7.74012935 136.648971,10.8307114 136.648971,15.1127164 C136.648971,19.8773781 133.488364,22.9356915 128.444375,22.9356915 C126.082033,22.9356915 123.655694,22.1629602 122.346812,21.3261493 L122.346812,0.0461144279 L122.346812,0.0461144279 Z M126.018036,12.6014826 L126.018036,18.7503781 C126.816301,19.2657612 127.614565,19.4909552 128.63614,19.4909552 C130.934598,19.4909552 132.722552,17.9776468 132.722552,15.3701791 C132.722552,12.6014826 131.030027,11.2171343 128.955446,11.2171343 C127.677995,11.2171343 126.624536,11.8931741 126.018036,12.6014826 L126.018036,12.6014826 Z" id="Fill-10" sketch:type="MSShapeGroup"></path>
                <path d="M146.770877,7.74012935 C151.527559,7.74012935 154.592283,10.9919403 154.592283,15.3379104 C154.592283,19.6838806 151.527559,22.9356915 146.770877,22.9356915 C142.014082,22.9356915 138.949358,19.6838806 138.949358,15.3379104 C138.949358,10.9919403 142.014082,7.74012935 146.770877,7.74012935 L146.770877,7.74012935 Z M146.770877,19.4909552 C149.037336,19.4909552 150.697296,17.8491443 150.697296,15.3379104 C150.697296,12.8910995 149.005338,11.2171343 146.770877,11.2171343 C144.599847,11.2171343 142.87589,12.8266766 142.87589,15.3379104 C142.87589,17.7524527 144.535849,19.4909552 146.770877,19.4909552 L146.770877,19.4909552 Z" id="Fill-11" sketch:type="MSShapeGroup"></path>
                <path d="M165.863646,15.0160249 L170.971632,22.5815373 L166.502144,22.5815373 L163.150113,17.3661443 L159.6702,22.5815373 L155.424022,22.5815373 L160.532009,15.2089502 L155.743214,8.09428358 L160.244701,8.09428358 L163.27754,12.8910995 L166.406261,8.09428358 L170.652326,8.09428358 L165.863646,15.0160249" id="Fill-12" sketch:type="MSShapeGroup"></path>
            </g>
        </g>
    </g>
</svg>