<svg width="171" height="24" viewBox="0 0 171 24" xmlns="http://www.w3.org/2000/svg"><title>Imported Layers</title><g fill="#000" fill-rule="evenodd"><path d="M10.887 21.568c-.958 1.03-2.267 1.77-4.12 1.77C2.65 23.34 0 20.41 0 16 0 11.43 3.257 8.24 7.885 8.24c1.278 0 2.203.226 3.002.708V.546h3.67v22.536h-3.67v-1.514zm0-3.154v-5.827c-.926-.58-1.852-.87-2.842-.87-2.17 0-4.118 1.48-4.118 4.153 0 2.576 1.66 4.024 3.607 4.024 1.342 0 2.522-.644 3.353-1.48zM30.97 21.633c-1.438 1.223-3.48 1.803-5.492 1.803-4.63 0-7.726-3.026-7.726-7.598 0-4.218 2.873-7.598 7.598-7.598 3.703 0 6.8 2.672 6.8 6.73 0 .9-.063 1.447-.223 1.995H21.55c.32 2.19 2.044 3.38 4.31 3.38 1.757 0 3.225-.644 4.056-1.32l1.053 2.608zm-9.546-7.147h7.055c.03-1.77-1.182-3.155-3.29-3.155-2.202 0-3.383 1.257-3.766 3.156zM35.12.546h3.672v17.03c0 1.642.383 2.35 1.245 2.35.575 0 1.053-.257 1.5-.58l.767 2.834c-.83.676-2.075 1.224-3.8 1.224-2.202 0-3.383-1.353-3.383-4.314V.546M47.126 1.222c1.053 0 2.107.837 2.107 2.157 0 1.48-1.054 2.317-2.107 2.317-1.246 0-2.3-.837-2.3-2.318 0-1.32 1.054-2.158 2.3-2.158zM45.21 8.594h3.67v14.488h-3.67V8.594zM60.694 23.146H57.98L51.372 8.594h4.373l2.65 6.214c.384.87.83 2.157 1.085 3.284.256-1.095.67-2.415 1.054-3.35l2.49-6.148h3.863l-6.193 14.552M80.616 21.633c-1.436 1.223-3.48 1.803-5.49 1.803-4.63 0-7.726-3.026-7.726-7.598 0-4.218 2.873-7.598 7.598-7.598 3.703 0 6.8 2.672 6.8 6.73 0 .9-.064 1.447-.224 1.995H71.198c.32 2.19 2.044 3.38 4.31 3.38 1.756 0 3.225-.644 4.055-1.32l1.053 2.608zm-9.545-7.147h7.056c.032-1.77-1.18-3.155-3.288-3.155-2.203 0-3.384 1.257-3.767 3.156zM84.768 8.594h3.67v1.417c.672-.933 1.566-1.673 3.29-1.673 1.18 0 1.755.193 2.234.547l-1.308 3.477c-.703-.418-1.086-.546-1.852-.546-1.277 0-1.947.708-2.363 1.545v9.722h-3.672V8.594M98.53 1.222c1.052 0 2.106.837 2.106 2.157 0 1.48-1.054 2.317-2.107 2.317-1.247 0-2.3-.837-2.3-2.318 0-1.32 1.053-2.158 2.3-2.158zm-1.917 7.372h3.672v14.488h-3.672V8.594zM104.914 8.594h3.67v1.45c.863-.934 2.396-1.707 4.12-1.707 3.51 0 5.906 1.706 5.906 6.246v8.5h-3.67v-7.857c0-2.317-1.183-3.412-3.226-3.412-1.245 0-2.267.515-3.13 1.384v9.884h-3.67V8.594M122.347.546h3.67v8.95c.895-.708 2.268-1.256 3.8-1.256 4.278 0 6.832 3.09 6.832 7.373 0 4.764-3.162 7.823-8.206 7.823-2.362 0-4.788-.773-6.097-1.61V.546zm3.67 12.555v6.15c.8.516 1.598.74 2.62.74 2.298 0 4.086-1.512 4.086-4.12 0-2.77-1.693-4.153-3.768-4.153-1.277 0-2.33.676-2.937 1.384zM146.77 8.24c4.758 0 7.822 3.252 7.822 7.598s-3.064 7.598-7.82 7.598c-4.758 0-7.823-3.252-7.823-7.598s3.064-7.598 7.82-7.598zm0 11.75c2.267 0 3.927-1.64 3.927-4.152 0-2.447-1.692-4.12-3.926-4.12-2.17 0-3.894 1.61-3.894 4.12 0 2.414 1.66 4.153 3.895 4.153zM165.864 15.516l5.108 7.566h-4.47l-3.352-5.216-3.48 5.216h-4.246l5.108-7.373-4.79-7.116h4.503l3.033 4.797 3.128-4.796h4.246l-4.788 6.922"/></g></svg>